{
.appVersion = "1268";
copyright = "Copyright 2011 The Balsamiq Sans Project Authors (https://github.com/balsamiq/balsamiqsans)";
customParameters = (
{
name = license;
value = "This Font Software is licensed under the SIL Open Font License, Version 1.1. This license is available with a FAQ at: http://scripts.sil.org/OFL";
},
{
name = licenseURL;
value = "http://scripts.sil.org/OFL";
},
{
name = trademark;
value = "Balsamiq Sans is a trademark of Balsamiq SRL.";
},
{
name = panose;
value = (
2,
0,
6,
3,
0,
0,
0,
0,
0,
0
);
},
{
name = openTypeOS2VendorID;
value = "2ttf";
},
{
name = glyphOrder;
value = (
NULL,
CR,
space,
exclam,
quotedbl,
numbersign,
dollar,
percent,
ampersand,
quotesingle,
parenleft,
parenright,
asterisk,
plus,
comma,
hyphen,
period,
slash,
zero,
one,
two,
three,
four,
five,
six,
seven,
eight,
nine,
colon,
semicolon,
less,
equal,
greater,
question,
at,
A,
B,
C,
D,
E,
F,
G,
H,
I,
J,
K,
L,
M,
N,
O,
P,
Q,
R,
S,
T,
U,
V,
W,
X,
Y,
Z,
bracketleft,
backslash,
bracketright,
asciicircum,
underscore,
grave,
a,
b,
c,
d,
e,
f,
g,
h,
i,
j,
k,
l,
m,
n,
o,
p,
q,
r,
s,
t,
u,
v,
w,
x,
y,
z,
braceleft,
bar,
braceright,
asciitilde,
exclamdown,
cent,
sterling,
currency,
yen,
brokenbar,
section,
dieresis,
copyright,
ordfeminine,
guillemotleft,
logicalnot,
registered,
overscore,
degree,
plusminus,
uni00B2,
uni00B3,
acute,
uni00B5,
paragraph,
middot,
cedilla,
uni00B9,
ordmasculine,
guillemotright,
onequarter,
onehalf,
threequarters,
questiondown,
Agrave,
Aacute,
Acircumflex,
Atilde,
Adieresis,
Aring,
AE,
Ccedilla,
Egrave,
Eacute,
Ecircumflex,
Edieresis,
Igrave,
Iacute,
Icircumflex,
Idieresis,
Eth,
Ntilde,
Ograve,
Oacute,
Ocircumflex,
Otilde,
Odieresis,
multiply,
Oslash,
Ugrave,
Uacute,
Ucircumflex,
Udieresis,
Yacute,
Thorn,
germandbls,
agrave,
aacute,
acircumflex,
atilde,
adieresis,
aring,
ae,
ccedilla,
egrave,
eacute,
ecircumflex,
edieresis,
igrave,
iacute,
icircumflex,
idieresis,
eth,
ntilde,
ograve,
oacute,
ocircumflex,
otilde,
odieresis,
divide,
oslash,
ugrave,

glyphs = (
{
glyphname = exclam;
lastChange = "2019-10-09 22:50:45 +0000";
layers = (
{
layerId = UUID0;
paths = (
{
closed = 1;
nodes = (
"156 618 OFFCURVE",
"153 433 OFFCURVE",
"154 287 OFFCURVE",
"157 220 QCURVE",
"158 200 OFFCURVE",
"130 169 OFFCURVE",
"89 167 OFFCURVE",
"58 195 OFFCURVE",
"57 216 QCURVE",
"54 282 OFFCURVE",
"53 430 OFFCURVE",
"56 619 OFFCURVE",
"56 665 QCURVE",
"56 686 OFFCURVE",
"85 715 OFFCURVE",
"127 715 OFFCURVE",
"156 686 OFFCURVE",
"156 665 QCURVE"
);
},
{
closed = 1;
nodes = (
"148 68 OFFCURVE",
"148 26 OFFCURVE",
"119 -3 OFFCURVE",
"77 -3 OFFCURVE",
"48 26 OFFCURVE",
"48 68 OFFCURVE",
"77 97 OFFCURVE",
"119 97 OFFCURVE",
"133 82 QCURVE"
);
}
);
width = 211;
},
{
layerId = "E9DB90EB-1A2C-4E35-923D-2CA62A497591";
paths = (
{
closed = 1;
nodes = (
"206 226 LINE",
"206 197 OFFCURVE",
"166 156 OFFCURVE",
"108 155 OFFCURVE",
"67 195 OFFCURVE",
"66 224 QCURVE",
"66 634 LINE",
"66 663 OFFCURVE",
"107 704 OFFCURVE",
"165 704 OFFCURVE",
"206 663 OFFCURVE",
"206 634 QCURVE"
);
},
{
closed = 1;
nodes = (
"206 76 OFFCURVE",
"206 18 OFFCURVE",
"165 -23 OFFCURVE",
"107 -23 OFFCURVE",
"66 18 OFFCURVE",
"66 76 OFFCURVE",
"107 117 OFFCURVE",
"165 117 OFFCURVE",
"185 96 QCURVE"
);
}
);
width = 273;
}
);
unicode = 0021;
},
{
glyphname = quotedbl;
lastChange = "2019-10-09 22:50:45 +0000";
layers = (
{
layerId = UUID0;
paths = (
{
closed = 1;
nodes = (
"153 505 OFFCURVE",
"152 478 QCURVE",
"151 457 OFFCURVE",
"121 429 OFFCURVE",
"79 431 OFFCURVE",
"51 461 OFFCURVE",
"52 482 QCURVE",
"53 507 OFFCURVE",
"53 674 QCURVE",
"53 695 OFFCURVE",
"82 724 OFFCURVE",
"124 724 OFFCURVE",
"153 695 OFFCURVE",
"153 674 QCURVE"
);
},
{
closed = 1;
nodes = (
"315 652 OFFCURVE",
"311 479 QCURVE",
"311 458 OFFCURVE",
"281 430 OFFCURVE",
"239 430 OFFCURVE",
"211 460 OFFCURVE",
"211 481 QCURVE",
"215 657 OFFCURVE",
"218 695 QCURVE",
"220 716 OFFCURVE",
"252 743 OFFCURVE",
"293 739 OFFCURVE",
"320 707 OFFCURVE",
"318 687 QCURVE"
);
}
);
width = 373;
},
{
layerId = "E9DB90EB-1A2C-4E35-923D-2CA62A497591";
paths = (
{
closed = 1;
nodes = (
"357 566 OFFCURVE",
"355 472 QCURVE",
"354 444 OFFCURVE",
"312 404 OFFCURVE",
"255 405 OFFCURVE",
"215 447 OFFCURVE",
"215 476 QCURVE",
"217 566 OFFCURVE",
"216 642 QCURVE",
"216 671 OFFCURVE",
"256 712 OFFCURVE",
"314 713 OFFCURVE",
"355 673 OFFCURVE",
"356 644 QCURVE"
);
},
{
closed = 1;
nodes = (
"193 563 OFFCURVE",
"191 469 QCURVE",
"190 441 OFFCURVE",
"148 401 OFFCURVE",
"91 402 OFFCURVE",
"51 444 OFFCURVE",
"51 473 QCURVE",
"53 563 OFFCURVE",
"52 639 QCURVE",
"52 668 OFFCURVE",
"92 709 OFFCURVE",
"150 710 OFFCURVE",
"191 670 OFFCURVE",
"192 641 QCURVE"
);
}
);
width = 373;
}
);
unicode = 0022;
},
{
glyphname = numbersign;
lastChange = "2019-10-09 22:50:45 +0000";
layers = (
{
layerId = UUID0;
paths = (
{
closed = 1;
nodes = (
"380 584 OFFCURVE",
"382 634 QCURVE",
"383 655 OFFCURVE",
"414 683 OFFCURVE",
"455 681 OFFCURVE",
"483 650 OFFCURVE",
"482 630 QCURVE",
"480 581 OFFCURVE",
"479 520 QCURVE",
"545 518 LINE",
"566 517 OFFCURVE",
"594 487 OFFCURVE",
"592 445 OFFCURVE",
"562 417 OFFCURVE",
"541 418 QCURVE",
"477 420 LINE",
"477 374 OFFCURVE",
"476 349 QCURVE",
"476 314 OFFCURVE",
"475 285 QCURVE",
"545 283 LINE",
"565 282 OFFCURVE",
"594 252 OFFCURVE",
"592 211 OFFCURVE",
"562 182 OFFCURVE",
"541 183 QCURVE",
"471 185 LINE",
"468 119 OFFCURVE",
"462 64 QCURVE",
"460 43 OFFCURVE",
"427 17 OFFCURVE",
"386 21 OFFCURVE",
"360 54 OFFCURVE",
"362 74 QCURVE",
"368 127 OFFCURVE",
"371 186 QCURVE",
"317 186 OFFCURVE",
"265 185 QCURVE",
"261 125 OFFCURVE",
"256 72 QCURVE",
"254 51 OFFCURVE",
"222 25 OFFCURVE",
"180 29 OFFCURVE",
"154 61 OFFCURVE",
"156 82 QCURVE",
"161 128 OFFCURVE",
"165 182 QCURVE",
"136 181 OFFCURVE",
"107 179 QCURVE",
"86 178 OFFCURVE",
"55 205 OFFCURVE",
"53 247 OFFCURVE",
"80 278 OFFCURVE",
"101 279 QCURVE",
"135 281 OFFCURVE",
"171 282 QCURVE",
"174 356 LINE",
"176 389 OFFCURVE",
"178 414 QCURVE",
"142 413 LINE",
"121 412 OFFCURVE",
"91 441 OFFCURVE",
"89 482 OFFCURVE",
"118 512 OFFCURVE",
"138 513 QCURVE",
"185 515 LINE",
"190 581 OFFCURVE",
"197 636 QCURVE",
"200 656 OFFCURVE",
"233 681 OFFCURVE",
"274 676 OFFCURVE",
"299 643 OFFCURVE",
"297 622 QCURVE",
"290 573 OFFCURVE",
"285 518 QCURVE",
"337 519 OFFCURVE",
"379 520 QCURVE"
);
},
{
closed = 1;
nodes = (
"334 419 OFFCURVE",
"278 418 QCURVE",
"276 391 OFFCURVE",
"274 351 QCURVE",
"271 285 LINE",
"322 286 OFFCURVE",
"375 286 QCURVE",
"376 314 OFFCURVE",
"376 351 QCURVE",
"377 375 OFFCURVE",
"377 420 QCURVE"
);
}
);
width = 643;
},
{
layerId = "E9DB90EB-1A2C-4E35-923D-2CA62A497591";
paths = (
{
closed = 1;
nodes = (
"380 592 OFFCURVE",
"382 635 QCURVE",
"384 664 OFFCURVE",
"426 703 OFFCURVE",
"484 700 OFFCURVE",
"523 658 OFFCURVE",
"522 629 QCURVE",
"520 588 OFFCURVE",
"519 539 QCURVE",
"543 538 OFFCURVE",
"565 538 QCURVE",
"594 537 OFFCURVE",
"634 495 OFFCURVE",
"632 437 OFFCURVE",
"590 397 OFFCURVE",
"561 398 QCURVE",
"539 399 OFFCURVE",
"517 399 QCURVE",
"516 370 OFFCURVE",
"516 349 QCURVE",
"516 325 OFFCURVE",
"515 304 QCURVE",
"540 303 OFFCURVE",
"564 303 QCURVE",
"593 302 OFFCURVE",
"633 261 OFFCURVE",
"632 203 OFFCURVE",
"590 163 OFFCURVE",
"562 163 QCURVE",
"536 164 OFFCURVE",
"510 164 QCURVE",
"506 111 OFFCURVE",
"501 62 QCURVE",
"498 33 OFFCURVE",
"454 -3 OFFCURVE",
"396 3 OFFCURVE",
"360 47 OFFCURVE",
"363 76 QCURVE",
"367 119 OFFCURVE",
"370 164 QCURVE",
"304 164 LINE",
"300 112 OFFCURVE",
"295 69 QCURVE",
"292 40 OFFCURVE",
"247 4 OFFCURVE",
"189 11 OFFCURVE",
"153 56 OFFCURVE",
"157 85 QCURVE",
"161 121 OFFCURVE",
"164 160 QCURVE",
"145 160 OFFCURVE",
"126 159 QCURVE",
"97 158 OFFCURVE",
"55 198 OFFCURVE",
"53 256 OFFCURVE",
"93 298 OFFCURVE",
"122 299 QCURVE",
"149 300 OFFCURVE",
"173 300 QCURVE",
"175 357 LINE",
"177 394 LINE",
"169 393 OFFCURVE",
"161 393 QCURVE",
"132 393 OFFCURVE",
"91 433 OFFCURVE",
"90 491 OFFCURVE",
"130 532 OFFCURVE",
"159 533 QCURVE",
"187 533 LINE",
"191 587 OFFCURVE",
"198 638 QCURVE",
"202 667 OFFCURVE",
"248 702 OFFCURVE",
"305 694 OFFCURVE",
"340 648 OFFCURVE",
"336 620 QCURVE",
"331 580 OFFCURVE",
"327 537 QCURVE",
"356 538 OFFCURVE",
"379 538 QCURVE"
);
},
{
closed = 1;
nodes = (
"351 398 OFFCURVE",
"317 397 QCURVE",
"315 350 LINE",
"312 303 LINE",
"344 304 OFFCURVE",
"376 304 QCURVE",
"376 351 LINE",
"377 371 OFFCURVE",
"377 399 QCURVE"
);
}
);
width = 643;
}
);
unicode = 0023;
},
{
glyphname = dollar;
lastChange = "2019-10-09 22:50:45 +0000";
layers = (
{
layerId = UUID0;
paths = (
{
closed = 1;
nodes = (
"426 100 OFFCURVE",
"500 148 OFFCURVE",
"509 174 QCURVE",
"516 200 OFFCURVE",
"507 230 OFFCURVE",
"489 245 QCURVE",
"457 270 OFFCURVE",
"374 301 QCURVE",
"375 173 OFFCURVE",
"373 89 QCURVE"
);
},
{
closed = 1;
nodes = (
"218 633 OFFCURVE",
"186 608 QCURVE",
"153 583 OFFCURVE",
"158 536 QCURVE",
"161 499 OFFCURVE",
"220 467 QCURVE",
"242 455 OFFCURVE",
"273 443 QCURVE",
"272 557 OFFCURVE",
"274 636 QCURVE"
);
},
{
closed = 1;
nodes = (
"488 517 OFFCURVE",
"488 528 QCURVE",
"488 532 LINE",
"488 540 LINE",
"488 544 LINE",
"475 571 OFFCURVE",
"414 613 OFFCURVE",
"374 625 QCURVE",
"372 542 OFFCURVE",
"373 407 QCURVE",
"383 403 LINE",
"504 361 OFFCURVE",
"552 322 QCURVE",
"640 250 OFFCURVE",
"603 142 QCURVE",
"582 79 OFFCURVE",
"448 -1 OFFCURVE",
"369 -14 QCURVE",
"368 -55 OFFCURVE",
"365 -93 QCURVE",
"363 -113 OFFCURVE",
"332 -140 OFFCURVE",
"291 -137 OFFCURVE",
"264 -106 OFFCURVE",
"265 -85 QCURVE",
"269 -17 LINE",
"144 -4 OFFCURVE",
"100 82 QCURVE",
"91 99 OFFCURVE",
"77 143 OFFCURVE",
"67 191 OFFCURVE",
"65 196 QCURVE",
"59 216 OFFCURVE",
"79 252 OFFCURVE",
"119 264 OFFCURVE",
"155 244 OFFCURVE",
"161 224 QCURVE",
"166 206 OFFCURVE",
"175 166 OFFCURVE",
"182 140 OFFCURVE",
"188 128 QCURVE",
"207 92 OFFCURVE",
"273 83 QCURVE",
"274 127 OFFCURVE",
"274 327 QCURVE",
"274 336 LINE",
"210 359 OFFCURVE",
"172 379 QCURVE",
"66 437 OFFCURVE",
"58 526 QCURVE",
"49 629 OFFCURVE",
"125 687 QCURVE",
"184 733 OFFCURVE",
"278 737 QCURVE",
"278 745 LINE",
"279 766 OFFCURVE",
"310 794 OFFCURVE",
"351 792 OFFCURVE",
"379 761 OFFCURVE",
"378 741 QCURVE",
"377 727 LINE",
"444 712 OFFCURVE",
"552 641 OFFCURVE",
"578 588 QCURVE",
"587 569 OFFCURVE",
"588 544 QCURVE",
"588 530 LINE",
"588 525 OFFCURVE",
"589 522 QCURVE",
"591 501 OFFCURVE",
"566 469 OFFCURVE",
"524 464 OFFCURVE",
"492 489 OFFCURVE",
"489 510 QCURVE"
);
}
);
width = 662;
},
{
layerId = "E9DB90EB-1A2C-4E35-923D-2CA62A497591";
paths = (
{
closed = 1;
nodes = (
"411 183 OFFCURVE",
"409 129 QCURVE",
"448 142 OFFCURVE",
"476 179 OFFCURVE",
"473 194 QCURVE",
"469 216 OFFCURVE",
"441 233 QCURVE",
"429 240 OFFCURVE",
"411 248 QCURVE"
);
},
{
closed = 1;
nodes = (
"260 565 LINE",
"218 555 OFFCURVE",
"198 524 QCURVE",
"183 502 OFFCURVE",
"199 478 QCURVE",
"210 460 OFFCURVE",
"255 443 QCURVE",
"263 440 OFFCURVE",
"272 437 QCURVE",
"272 567 LINE"
);
},
{
closed = 1;
nodes = (
"458 457 OFFCURVE",
"447 495 QCURVE",
"444 505 OFFCURVE",
"442 508 QCURVE",
"431 524 OFFCURVE",
"412 537 QCURVE",
"411 488 OFFCURVE",
"411 396 QCURVE",
"474 376 OFFCURVE",
"514 352 QCURVE",
"595 302 OFFCURVE",
"611 220 QCURVE",
"618 178 OFFCURVE",
"598 104 OFFCURVE",
"555 53 OFFCURVE",
"494 12 OFFCURVE",
"434 -11 OFFCURVE",
"403 -17 QCURVE",
"402 -17 LINE",
"400 -49 LINE",
"397 -78 OFFCURVE",
"353 -115 OFFCURVE",
"295 -110 OFFCURVE",
"258 -66 OFFCURVE",
"260 -37 QCURVE",
"262 -22 LINE",
"146 -5 OFFCURVE",
"96 71 QCURVE",
"78 97 OFFCURVE",
"68 139 QCURVE",
"62 164 LINE",
"60 176 OFFCURVE",
"57 183 QCURVE",
"49 211 OFFCURVE",
"75 262 OFFCURVE",
"131 279 OFFCURVE",
"182 253 OFFCURVE",
"191 225 QCURVE",
"194 213 OFFCURVE",
"198 195 QCURVE",
"199 194 OFFCURVE",
"203 176 OFFCURVE",
"204 171 QCURVE",
"208 154 OFFCURVE",
"212 147 QCURVE",
"225 128 OFFCURVE",
"269 118 QCURVE",
"272 189 OFFCURVE",
"272 291 QCURVE",
"231 303 OFFCURVE",
"204 313 QCURVE",
"117 346 OFFCURVE",
"81 402 QCURVE",
"49 456 OFFCURVE",
"52 556 OFFCURVE",
"81 601 QCURVE",
"106 639 OFFCURVE",
"185 691 OFFCURVE",
"230 701 QCURVE",
"254 706 OFFCURVE",
"279 708 QCURVE",
"287 729 OFFCURVE",
"325 755 OFFCURVE",
"348 754 QCURVE",
"374 753 OFFCURVE",
"412 716 OFFCURVE",
"415 690 QCURVE",
"506 659 OFFCURVE",
"556 588 QCURVE",
"571 567 OFFCURVE",
"581 534 QCURVE",
"581 532 OFFCURVE",
"587 510 OFFCURVE",
"590 503 QCURVE",
"599 476 OFFCURVE",
"575 423 OFFCURVE",
"521 404 OFFCURVE",
"468 428 OFFCURVE",
"458 455 QCURVE"
);
}
);
width = 662;
}
);
unicode = 0024;
},
{
glyphname = percent;
lastChange = "2019-10-09 22:50:45 +0000";
layers = (
{
layerId = UUID0;
paths = (
{
closed = 1;
nodes = (
"206 611 OFFCURVE",
"201 608 QCURVE",
"185 601 LINE",
"173 596 OFFCURVE",
"169 592 QCURVE",
"143 567 OFFCURVE",
"160 528 QCURVE",
"169 509 OFFCURVE",
"199 486 OFFCURVE",
"216 485 QCURVE",
"240 484 OFFCURVE",
"285 520 OFFCURVE",
"298 551 QCURVE",
"310 580 OFFCURVE",
"306 600 QCURVE",
"304 610 OFFCURVE",
"299 612 QCURVE",
"285 618 OFFCURVE",
"256 617 QCURVE",
"251 617 OFFCURVE",
"241 616 OFFCURVE",
"228 615 OFFCURVE",
"224 615 QCURVE",
"219 614 OFFCURVE",
"213 614 QCURVE"
);
},
{
closed = 1;
nodes = (
"166 715 OFFCURVE",
"191 714 QCURVE",
"201 714 OFFCURVE",
"218 715 QCURVE",
"252 717 LINE",
"301 719 OFFCURVE",
"335 706 QCURVE",
"393 683 OFFCURVE",
"405 617 QCURVE",
"413 569 OFFCURVE",
"390 513 QCURVE",
"368 459 OFFCURVE",
"274 382 OFFCURVE",
"212 385 QCURVE",
"163 387 OFFCURVE",
"87 445 OFFCURVE",
"69 488 QCURVE",
"56 516 OFFCURVE",
"52 576 OFFCURVE",
"74 639 OFFCURVE",
"99 664 QCURVE",
"115 680 OFFCURVE",
"143 693 QCURVE",
"150 696 LINE"
);
},
{
closed = 1;
nodes = (
"635 270 OFFCURVE",
"606 219 OFFCURVE",
"605 190 QCURVE",
"605 159 OFFCURVE",
"640 114 OFFCURVE",
"674 107 QCURVE",
"712 99 OFFCURVE",
"772 134 OFFCURVE",
"786 168 QCURVE",
"799 199 OFFCURVE",
"782 251 OFFCURVE",
"753 263 QCURVE",
"746 265 OFFCURVE",
"732 266 QCURVE",
"691 269 OFFCURVE",
"690 269 QCURVE",
"674 272 OFFCURVE",
"662 284 QCURVE"
);
},
{
closed = 1;
nodes = (
"774 362 OFFCURVE",
"791 355 QCURVE",
"829 340 OFFCURVE",
"877 286 OFFCURVE",
"894 224 OFFCURVE",
"890 159 OFFCURVE",
"878 129 QCURVE",
"852 66 OFFCURVE",
"731 -7 OFFCURVE",
"654 9 QCURVE",
"582 24 OFFCURVE",
"505 127 OFFCURVE",
"505 191 QCURVE",
"506 252 OFFCURVE",
"577 360 OFFCURVE",
"640 383 QCURVE",
"659 390 OFFCURVE",
"686 389 QCURVE",
"687 389 OFFCURVE",
"701 387 QCURVE",
"709 387 LINE",
"736 388 OFFCURVE",
"751 365 QCURVE"
);
},
{
closed = 1;
nodes = (
"595 541 LINE",
"476 336 LINE",
"382 166 LINE",
"369 142 OFFCURVE",
"333 84 QCURVE",
"304 39 OFFCURVE",
"291 11 QCURVE",
"283 -8 OFFCURVE",
"244 -22 OFFCURVE",
"206 -5 OFFCURVE",
"192 34 OFFCURVE",
"201 53 QCURVE",
"216 87 OFFCURVE",
"249 138 QCURVE",
"283 192 OFFCURVE",
"294 212 QCURVE",
"507 590 LINE",
"606 760 LINE",
"616 778 OFFCURVE",
"656 789 OFFCURVE",
"692 768 OFFCURVE",
"703 728 OFFCURVE",
"692 710 QCURVE"
);
}
);
width = 944;
},
{
layerId = "E9DB90EB-1A2C-4E35-923D-2CA62A497591";
paths = (
{
closed = 1;
nodes = (
"237 570 OFFCURVE",
"226 563 QCURVE",
"208 551 LINE",
"198 544 LINE",
"186 523 OFFCURVE",
"204 498 QCURVE",
"219 477 OFFCURVE",
"237 483 QCURVE",
"249 487 OFFCURVE",
"275 522 OFFCURVE",
"279 545 QCURVE",
"281 563 OFFCURVE",
"277 572 QCURVE",
"274 577 OFFCURVE",
"262 580 QCURVE",
"254 578 LINE",
"250 577 OFFCURVE",
"244 575 QCURVE"
);
},
{
closed = 1;
nodes = (
"155 700 OFFCURVE",
"187 705 QCURVE",
"191 706 OFFCURVE",
"200 708 QCURVE",
"220 713 OFFCURVE",
"221 713 QCURVE",
"259 723 OFFCURVE",
"290 716 QCURVE",
"365 700 OFFCURVE",
"399 639 QCURVE",
"427 588 OFFCURVE",
"416 523 QCURVE",
"407 468 OFFCURVE",
"336 369 OFFCURVE",
"281 351 QCURVE",
"224 332 OFFCURVE",
"173 352 QCURVE",
"122 373 OFFCURVE",
"90 417 QCURVE",
"71 444 OFFCURVE",
"52 508 OFFCURVE",
"56 545 QCURVE",
"59 582 OFFCURVE",
"78 614 QCURVE",
"95 643 OFFCURVE",
"130 667 QCURVE",
"138 672 LINE"
);
},
{
closed = 1;
nodes = (
"665 206 OFFCURVE",
"663 165 OFFCURVE",
"691 136 OFFCURVE",
"709 136 QCURVE",
"717 136 OFFCURVE",
"743 152 OFFCURVE",
"753 166 QCURVE",
"765 184 OFFCURVE",
"755 195 QCURVE",
"752 198 OFFCURVE",
"740 202 QCURVE",
"685 220 LINE"
);
},
{
closed = 1;
nodes = (
"783 334 LINE",
"832 319 OFFCURVE",
"859 289 QCURVE",
"887 257 OFFCURVE",
"903 181 OFFCURVE",
"896 149 QCURVE",
"888 117 OFFCURVE",
"869 89 QCURVE",
"843 50 OFFCURVE",
"800 24 QCURVE",
"758 -3 OFFCURVE",
"711 -4 QCURVE",
"662 -4 OFFCURVE",
"584 34 OFFCURVE",
"541 94 OFFCURVE",
"523 172 OFFCURVE",
"535 248 OFFCURVE",
"579 318 OFFCURVE",
"614 340 QCURVE",
"637 354 OFFCURVE",
"670 361 QCURVE",
"689 365 LINE",
"696 366 OFFCURVE",
"700 367 QCURVE",
"723 374 OFFCURVE",
"767 356 OFFCURVE",
"779 336 QCURVE"
);
},
{
closed = 1;
nodes = (
"357 20 LINE",
"343 -6 OFFCURVE",
"288 -23 OFFCURVE",
"237 4 OFFCURVE",
"220 59 OFFCURVE",
"233 84 QCURVE",
"569 703 LINE",
"582 729 OFFCURVE",
"637 746 OFFCURVE",
"689 720 OFFCURVE",
"706 665 OFFCURVE",
"693 639 QCURVE"
);
}
);
width = 944;
}
);
unicode = 0025;
},
{
glyphname = ampersand;
lastChange = "2019-10-09 22:50:45 +0000";
layers = (
{
layerId = UUID0;
paths = (
{
closed = 1;
nodes = (
"203 316 OFFCURVE",
"194 302 QCURVE",
"143 228 OFFCURVE",
"152 168 QCURVE",
"162 110 OFFCURVE",
"238 102 QCURVE",
"276 98 OFFCURVE",
"351 120 OFFCURVE",
"372 139 QCURVE",
"377 143 OFFCURVE",
"381 148 QCURVE",
"309 220 LINE",
"252 279 OFFCURVE",
"214 329 QCURVE"
);
},
{
closed = 1;
nodes = (
"597 82 LINE",
"612 67 OFFCURVE",
"612 26 OFFCURVE",
"583 -4 OFFCURVE",
"542 -4 OFFCURVE",
"527 10 QCURVE",
"454 79 LINE",
"440 65 LINE",
"401 30 OFFCURVE",
"284 -3 OFFCURVE",
"228 3 QCURVE",
"163 9 OFFCURVE",
"65 83 OFFCURVE",
"54 152 QCURVE",
"38 252 OFFCURVE",
"111 359 QCURVE",
"131 388 OFFCURVE",
"157 417 QCURVE",
"140 449 OFFCURVE",
"131 478 QCURVE",
"114 535 OFFCURVE",
"132 586 QCURVE",
"151 636 OFFCURVE",
"193 669 QCURVE",
"233 701 OFFCURVE",
"331 717 OFFCURVE",
"382 693 QCURVE",
"434 665 OFFCURVE",
"446 616 QCURVE",
"457 570 OFFCURVE",
"427 521 QCURVE",
"411 496 OFFCURVE",
"364 461 QCURVE",
"354 453 OFFCURVE",
"335 440 QCURVE",
"310 422 LINE",
"297 412 OFFCURVE",
"285 401 QCURVE",
"322 351 OFFCURVE",
"381 289 QCURVE",
"433 237 LINE",
"460 302 LINE",
"468 321 OFFCURVE",
"507 336 OFFCURVE",
"545 320 OFFCURVE",
"560 281 OFFCURVE",
"552 262 QCURVE",
"548 254 OFFCURVE",
"540 236 QCURVE",
"526 198 LINE",
"518 180 OFFCURVE",
"510 164 QCURVE"
);
},
{
closed = 1;
nodes = (
"248 500 LINE",
"254 505 OFFCURVE",
"294 533 OFFCURVE",
"304 541 QCURVE",
"336 565 OFFCURVE",
"341 573 QCURVE",
"350 587 OFFCURVE",
"348 593 QCURVE",
"347 598 OFFCURVE",
"334 605 QCURVE",
"320 614 OFFCURVE",
"275 607 OFFCURVE",
"255 591 QCURVE",
"212 556 OFFCURVE",
"227 508 QCURVE",
"230 499 OFFCURVE",
"234 489 QCURVE"
);
}
);
width = 663;
},
{
layerId = "E9DB90EB-1A2C-4E35-923D-2CA62A497591";
paths = (
{
closed = 1;
nodes = (
"191 250 OFFCURVE",
"187 225 QCURVE",
"179 179 OFFCURVE",
"181 177 QCURVE",
"187 163 OFFCURVE",
"248 139 OFFCURVE",
"297 136 OFFCURVE",
"325 150 OFFCURVE",
"339 164 QCURVE",
"341 165 LINE",
"290 217 LINE",
"250 260 OFFCURVE",
"219 297 QCURVE"
);
},
{
closed = 1;
nodes = (
"598 116 LINE",
"620 94 OFFCURVE",
"620 35 OFFCURVE",
"578 -8 OFFCURVE",
"520 -8 OFFCURVE",
"499 13 QCURVE",
"444 66 LINE",
"437 59 LINE",
"326 -47 OFFCURVE",
"164 17 QCURVE",
"84 50 OFFCURVE",
"53 113 QCURVE",
"47 126 OFFCURVE",
"40 156 OFFCURVE",
"38 180 OFFCURVE",
"40 210 OFFCURVE",
"43 225 OFFCURVE",
"45 237 QCURVE",
"47 248 LINE",
"60 327 OFFCURVE",
"134 424 QCURVE",
"120 454 OFFCURVE",
"115 481 QCURVE",
"95 573 OFFCURVE",
"140 640 QCURVE",
"178 698 OFFCURVE",
"249 717 QCURVE",
"313 735 OFFCURVE",
"370 715 QCURVE",
"402 704 OFFCURVE",
"454 655 OFFCURVE",
"461 615 QCURVE",
"470 561 OFFCURVE",
"429 504 QCURVE",
"405 473 OFFCURVE",
"361 435 QCURVE",
"345 420 OFFCURVE",
"320 401 QCURVE",
"346 367 OFFCURVE",
"393 317 QCURVE",
"416 292 LINE",
"430 321 LINE",
"442 349 OFFCURVE",
"497 370 OFFCURVE",
"551 346 OFFCURVE",
"571 290 OFFCURVE",
"560 263 QCURVE",
"537 213 OFFCURVE",
"524 186 QCURVE"
);
},
{
closed = 1;
nodes = (
"298 581 OFFCURVE",
"287 578 QCURVE",
"266 573 OFFCURVE",
"257 560 QCURVE",
"250 548 OFFCURVE",
"251 529 QCURVE",
"269 544 LINE",
"293 566 OFFCURVE",
"308 581 QCURVE"
);
}
);
width = 663;
}
);
unicode = 0026;
},
{
glyphname = quotesingle;
lastChange = "2019-10-09 22:50:45 +0000";
layers = (
{
layerId = UUID0;
paths = (
{
closed = 1;
nodes = (
"162 615 OFFCURVE",
"169 461 QCURVE",
"170 440 OFFCURVE",
"142 410 OFFCURVE",
"100 408 OFFCURVE",
"70 436 OFFCURVE",
"69 457 QCURVE",
"62 609 OFFCURVE",
"55 659 QCURVE",
"53 680 OFFCURVE",
"78 713 OFFCURVE",
"119 718 OFFCURVE",
"152 693 OFFCURVE",
"155 673 QCURVE"
);
}
);
width = 224;
},
{
layerId = "E9DB90EB-1A2C-4E35-923D-2CA62A497591";
paths = (
{
closed = 1;
nodes = (
"53 514 OFFCURVE",
"53 657 QCURVE",
"53 684 OFFCURVE",
"92 723 OFFCURVE",
"146 723 OFFCURVE",
"185 684 OFFCURVE",
"185 657 QCURVE",
"185 518 OFFCURVE",
"190 440 QCURVE",
"192 413 OFFCURVE",
"173 392 QCURVE",
"155 372 OFFCURVE",
"101 368 OFFCURVE",
"60 405 OFFCURVE",
"58 432 QCURVE"
);
}
);
width = 224;
}
);
unicode = 0027;
},
{
glyphname = parenleft;
lastChange = "2019-10-09 22:50:45 +0000";
layers = (
{
layerId = UUID0;
paths = (
{
closed = 1;
nodes = (
"227 540 OFFCURVE",
"151 307 OFFCURVE",
"160 54 OFFCURVE",
"216 -47 QCURVE",
"222 -59 OFFCURVE",
"237 -81 OFFCURVE",
"260 -111 OFFCURVE",
"268 -124 QCURVE",
"279 -139 OFFCURVE",
"271 -178 OFFCURVE",
"236 -198 OFFCURVE",
"195 -191 OFFCURVE",
"184 -174 QCURVE",
"167 -152 LINE",
"145 -120 LINE",
"134 -103 OFFCURVE",
"126 -91 QCURVE",
"76 1 OFFCURVE",
"46 214 OFFCURVE",
"80 419 OFFCURVE",
"155 610 OFFCURVE",
"212 694 QCURVE",
"222 712 OFFCURVE",
"263 720 OFFCURVE",
"298 700 OFFCURVE",
"307 662 OFFCURVE",
"296 646 QCURVE"
);
}
);
width = 359;
},
{
layerId = "E9DB90EB-1A2C-4E35-923D-2CA62A497591";
paths = (
{
closed = 1;
nodes = (
"270 533 OFFCURVE",
"243 461 QCURVE",
"215 385 OFFCURVE",
"187 227 OFFCURVE",
"201 68 OFFCURVE",
"230 -1 QCURVE",
"238 -20 OFFCURVE",
"255 -49 QCURVE",
"288 -105 LINE",
"302 -131 OFFCURVE",
"286 -186 OFFCURVE",
"235 -214 OFFCURVE",
"180 -198 OFFCURVE",
"166 -173 QCURVE",
"156 -156 LINE",
"144 -136 LINE",
"138 -126 OFFCURVE",
"135 -119 QCURVE",
"113 -83 OFFCURVE",
"102 -55 QCURVE",
"64 34 OFFCURVE",
"46 233 OFFCURVE",
"81 424 OFFCURVE",
"113 510 QCURVE",
"145 596 OFFCURVE",
"190 677 QCURVE",
"204 702 OFFCURVE",
"260 718 OFFCURVE",
"310 690 OFFCURVE",
"326 634 OFFCURVE",
"312 609 QCURVE"
);
}
);
width = 359;
}
);
unicode = 0028;
},
{
glyphname = parenright;
lastChange = "2019-10-09 22:50:45 +0000";
layers = (
{
layerId = UUID0;
paths = (
{
closed = 1;
nodes = (
"326 470 OFFCURVE",
"318 259 QCURVE",
"309 58 OFFCURVE",
"145 -173 QCURVE",
"133 -189 OFFCURVE",
"93 -197 OFFCURVE",
"58 -176 OFFCURVE",
"50 -139 OFFCURVE",
"61 -123 QCURVE",
"210 88 OFFCURVE",
"218 263 QCURVE",
"225 445 OFFCURVE",
"84 649 QCURVE",
"73 665 OFFCURVE",
"82 702 OFFCURVE",
"117 722 OFFCURVE",
"157 714 OFFCURVE",
"168 698 QCURVE"
);
}
);
width = 368;
},
{
layerId = "E9DB90EB-1A2C-4E35-923D-2CA62A497591";
paths = (
{
closed = 1;
nodes = (
"262 547 OFFCURVE",
"314 346 OFFCURVE",
"311 248 QCURVE",
"307 153 OFFCURVE",
"246 -44 OFFCURVE",
"188 -164 QCURVE",
"175 -190 OFFCURVE",
"121 -209 OFFCURVE",
"69 -184 OFFCURVE",
"50 -130 OFFCURVE",
"62 -104 QCURVE",
"116 7 OFFCURVE",
"169 177 OFFCURVE",
"171 253 QCURVE",
"177 403 OFFCURVE",
"79 605 QCURVE",
"67 631 OFFCURVE",
"86 685 OFFCURVE",
"138 710 OFFCURVE",
"192 691 OFFCURVE",
"205 665 QCURVE"
);
}
);
width = 368;
}
);
unicode = 0029;
},
{
glyphname = asterisk;
lastChange = "2019-10-09 22:50:45 +0000";
layers = (
{
layerId = UUID0;
paths = (
{
closed = 1;
nodes = (
"174 600 OFFCURVE",
"180 597 QCURVE",
"188 593 LINE",
"188 597 OFFCURVE",
"189 671 QCURVE",
"189 691 OFFCURVE",
"219 720 OFFCURVE",
"260 720 OFFCURVE",
"289 690 OFFCURVE",
"289 669 QCURVE",
"289 652 OFFCURVE",
"288 622 OFFCURVE",
"288 615 QCURVE",
"288 603 LINE",
"337 620 LINE",
"357 626 OFFCURVE",
"394 607 OFFCURVE",
"407 568 OFFCURVE",
"388 531 OFFCURVE",
"369 524 QCURVE",
"310 505 OFFCURVE",
"309 505 QCURVE",
"401 421 LINE",
"416 407 OFFCURVE",
"416 365 OFFCURVE",
"388 335 OFFCURVE",
"346 335 OFFCURVE",
"331 349 QCURVE",
"236 437 LINE",
"173 368 LINE",
"159 353 OFFCURVE",
"118 351 OFFCURVE",
"87 379 OFFCURVE",
"85 420 OFFCURVE",
"99 436 QCURVE",
"155 498 LINE",
"146 503 OFFCURVE",
"141 505 QCURVE",
"140 505 OFFCURVE",
"85 522 QCURVE",
"65 528 OFFCURVE",
"46 565 OFFCURVE",
"58 605 OFFCURVE",
"95 624 OFFCURVE",
"115 618 QCURVE"
);
}
);
width = 467;
},
{
layerId = "E9DB90EB-1A2C-4E35-923D-2CA62A497591";
paths = (
{
closed = 1;
nodes = (
"222 373 LINE",
"204 350 OFFCURVE",
"146 345 OFFCURVE",
"101 381 OFFCURVE",
"98 410 QCURVE",
"96 439 OFFCURVE",
"114 461 QCURVE",
"135 487 LINE",
"97 501 LINE",
"70 510 OFFCURVE",
"46 563 OFFCURVE",
"65 617 OFFCURVE",
"118 641 OFFCURVE",
"145 631 QCURVE",
"172 622 LINE",
"171 653 LINE",
"171 682 OFFCURVE",
"211 723 OFFCURVE",
"269 724 OFFCURVE",
"310 684 OFFCURVE",
"311 655 QCURVE",
"311 639 LINE",
"325 644 LINE",
"353 652 OFFCURVE",
"404 626 OFFCURVE",
"421 570 OFFCURVE",
"395 519 OFFCURVE",
"367 510 QCURVE",
"402 480 LINE",
"423 460 OFFCURVE",
"426 403 OFFCURVE",
"387 360 OFFCURVE",
"330 357 OFFCURVE",
"308 376 QCURVE",
"260 419 LINE"
);
}
);
width = 467;
}
);
unicode = 002A;
},
{
glyphname = plus;
lastChange = "2019-10-09 22:50:45 +0000";
layers = (
{
layerId = UUID0;
paths = (
{
closed = 1;
nodes = (
"366 415 OFFCURVE",
"366 324 QCURVE",
"466 324 OFFCURVE",
"541 322 QCURVE",
"562 321 OFFCURVE",
"590 292 OFFCURVE",
"589 250 OFFCURVE",
"559 222 OFFCURVE",
"539 222 QCURVE",
"465 224 OFFCURVE",
"367 224 QCURVE",
"369 102 OFFCURVE",
"369 52 QCURVE",
"369 31 OFFCURVE",
"340 2 OFFCURVE",
"298 2 OFFCURVE",
"269 31 OFFCURVE",
"269 52 QCURVE",
"269 102 OFFCURVE",
"267 223 QCURVE",
"148 222 OFFCURVE",
"101 222 QCURVE",
"80 222 OFFCURVE",
"51 251 OFFCURVE",
"51 293 OFFCURVE",
"80 322 OFFCURVE",
"101 322 QCURVE",
"148 322 OFFCURVE",
"266 323 QCURVE",
"266 417 OFFCURVE",
"268 488 QCURVE",
"269 508 OFFCURVE",
"299 537 OFFCURVE",
"340 535 OFFCURVE",
"369 505 OFFCURVE",
"368 484 QCURVE"
);
}
);
width = 641;
},
{
layerId = "E9DB90EB-1A2C-4E35-923D-2CA62A497591";
paths = (
{
closed = 1;
nodes = (
"372 389 OFFCURVE",
"372 334 QCURVE",
"502 332 LINE",
"531 331 OFFCURVE",
"570 289 OFFCURVE",
"569 231 OFFCURVE",
"527 192 OFFCURVE",
"498 192 QCURVE",
"431 194 OFFCURVE",
"373 195 QCURVE",
"374 121 OFFCURVE",
"374 77 QCURVE",
"374 48 OFFCURVE",
"333 7 OFFCURVE",
"275 7 OFFCURVE",
"234 48 OFFCURVE",
"234 77 QCURVE",
"234 195 LINE",
"186 194 OFFCURVE",
"124 192 QCURVE",
"95 191 OFFCURVE",
"53 231 OFFCURVE",
"51 289 OFFCURVE",
"91 331 OFFCURVE",
"120 332 QCURVE",
"233 334 LINE",
"233 436 LINE",
"234 465 OFFCURVE",
"275 505 OFFCURVE",
"333 504 OFFCURVE",
"373 463 OFFCURVE",
"373 434 QCURVE"
);
}
);
width = 641;
}
);
unicode = 002B;
},
{
glyphname = comma;
lastChange = "2019-10-09 22:50:45 +0000";
layers = (
{
layerId = UUID0;
paths = (
{
closed = 1;
nodes = (
"214 -41 OFFCURVE",
"211 -77 QCURVE",
"206 -121 OFFCURVE",
"175 -176 QCURVE",
"165 -195 OFFCURVE",
"125 -206 OFFCURVE",
"88 -186 OFFCURVE",
"77 -146 OFFCURVE",
"87 -128 QCURVE",
"109 -90 OFFCURVE",
"111 -66 QCURVE",
"113 -45 OFFCURVE",
"104 6 QCURVE",
"100 26 OFFCURVE",
"123 60 OFFCURVE",
"164 68 OFFCURVE",
"198 45 OFFCURVE",
"202 24 QCURVE"
);
}
);
width = 278;
},
{
layerId = "E9DB90EB-1A2C-4E35-923D-2CA62A497591";
paths = (
{
closed = 1;
nodes = (
"263 -24 OFFCURVE",
"257 -42 QCURVE",
"251 -64 LINE",
"249 -69 OFFCURVE",
"244 -83 OFFCURVE",
"238 -95 OFFCURVE",
"232 -109 OFFCURVE",
"224 -125 QCURVE",
"208 -158 LINE",
"196 -183 OFFCURVE",
"144 -201 OFFCURVE",
"95 -178 OFFCURVE",
"77 -126 OFFCURVE",
"88 -102 QCURVE",
"106 -64 LINE",
"114 -47 OFFCURVE",
"118 -41 OFFCURVE",
"121 -32 QCURVE",
"126 -20 LINE",
"127 -18 OFFCURVE",
"133 -1 QCURVE",
"143 33 LINE",
"152 59 OFFCURVE",
"201 83 OFFCURVE",
"253 66 OFFCURVE",
"277 17 OFFCURVE",
"269 -9 QCURVE"
);
}
);
width = 278;
}
);
unicode = 002C;
},
{
glyphname = hyphen;
lastChange = "2019-10-09 22:50:45 +0000";
layers = (
{
layerId = UUID0;
paths = (
{
closed = 1;
nodes = (
"127 328 OFFCURVE",
"242 332 OFFCURVE",
"284 334 OFFCURVE",
"315 306 OFFCURVE",
"317 265 OFFCURVE",
"289 234 OFFCURVE",
"269 233 QCURVE",
"247 232 OFFCURVE",
"135 228 OFFCURVE",
"104 226 QCURVE",
"83 225 OFFCURVE",
"52 252 OFFCURVE",
"49 293 OFFCURVE",
"76 324 OFFCURVE",
"96 326 QCURVE"
);
}
);
width = 366;
},
{
layerId = "E9DB90EB-1A2C-4E35-923D-2CA62A497591";
paths = (
{
closed = 1;
nodes = (
"287 340 LINE",
"316 340 OFFCURVE",
"357 299 OFFCURVE",
"357 241 OFFCURVE",
"316 200 OFFCURVE",
"287 200 QCURVE",
"120 200 LINE",
"91 200 OFFCURVE",
"50 241 OFFCURVE",
"50 299 OFFCURVE",
"91 340 OFFCURVE",
"120 340 QCURVE"
);
}
);
width = 407;
}
);
unicode = 002D;
},
{
glyphname = period;
lastChange = "2019-10-09 22:50:45 +0000";
layers = (
{
layerId = UUID0;
paths = (
{
closed = 1;
nodes = (
"150 72 OFFCURVE",
"150 30 OFFCURVE",
"121 1 OFFCURVE",
"79 1 OFFCURVE",
"50 30 OFFCURVE",
"50 72 OFFCURVE",
"79 101 OFFCURVE",
"121 101 OFFCURVE",
"135 86 QCURVE"
);
}
);
width = 200;
},
{
layerId = "E9DB90EB-1A2C-4E35-923D-2CA62A497591";
paths = (
{
closed = 1;
nodes = (
"190 100 OFFCURVE",
"190 42 OFFCURVE",
"149 1 OFFCURVE",
"91 1 OFFCURVE",
"50 42 OFFCURVE",
"50 100 OFFCURVE",
"91 141 OFFCURVE",
"149 141 OFFCURVE",
"169 120 QCURVE"
);
}
);
width = 240;
}
);
unicode = 002E;
},
{
glyphname = slash;
lastChange = "2019-10-09 22:50:45 +0000";
layers = (
{
layerId = UUID0;
paths = (
{
closed = 1;
nodes = (
"222 250 OFFCURVE",
"150 36 QCURVE",
"144 17 OFFCURVE",
"107 -2 OFFCURVE",
"68 11 OFFCURVE",
"49 48 OFFCURVE",
"56 68 QCURVE",
"108 224 OFFCURVE",
"279 694 QCURVE",
"285 714 OFFCURVE",
"321 734 OFFCURVE",
"361 722 OFFCURVE",
"381 686 OFFCURVE",
"375 666 QCURVE"
);
}
);
width = 429;
},
{
layerId = "E9DB90EB-1A2C-4E35-923D-2CA62A497591";
paths = (
{
closed = 1;
nodes = (
"191 48 LINE",
"183 20 OFFCURVE",
"133 -8 OFFCURVE",
"77 8 OFFCURVE",
"49 58 OFFCURVE",
"57 86 QCURVE",
"269 672 LINE",
"276 700 OFFCURVE",
"325 731 OFFCURVE",
"381 717 OFFCURVE",
"412 668 OFFCURVE",
"405 640 QCURVE"
);
}
);
width = 429;
}
);
unicode = 002F;
},
{
glyphname = zero;
lastChange = "2019-10-09 22:50:45 +0000";
layers = (
{
layerId = UUID0;
paths = (
{
closed = 1;
nodes = (
"256 604 OFFCURVE",
"255 604 QCURVE",
"195 566 OFFCURVE",
"142 383 OFFCURVE",
"160 283 QCURVE",
"178 185 OFFCURVE",
"228 135 QCURVE",
"276 86 OFFCURVE",
"344 103 QCURVE",
"395 116 OFFCURVE",
"426 186 QCURVE",
"458 258 OFFCURVE",
"457 358 QCURVE",
"456 456 OFFCURVE",
"425 528 QCURVE",
"396 594 OFFCURVE",
"359 602 QCURVE",
"343 605 OFFCURVE",
"332 604 OFFCURVE",
"295 601 OFFCURVE",
"277 601 QCURVE",
"267 601 OFFCURVE",
"257 605 QCURVE"
);
},
{
closed = 1;
nodes = (
"328 704 OFFCURVE",
"373 700 OFFCURVE",
"381 700 QCURVE",
"467 680 OFFCURVE",
"516 568 QCURVE",
"556 476 OFFCURVE",
"557 358 QCURVE",
"558 236 OFFCURVE",
"517 145 QCURVE",
"466 31 OFFCURVE",
"368 7 QCURVE",
"245 -25 OFFCURVE",
"157 64 QCURVE",
"85 137 OFFCURVE",
"62 266 QCURVE",
"50 320 OFFCURVE",
"58 445 OFFCURVE",
"86 557 OFFCURVE",
"154 658 OFFCURVE",
"201 688 QCURVE",
"209 693 OFFCURVE",
"231 702 OFFCURVE",
"240 705 QCURVE",
"257 711 LINE",
"265 713 OFFCURVE",
"266 713 QCURVE",
"294 723 OFFCURVE",
"316 703 QCURVE"
);
}
);
width = 609;
},
{
layerId = "E9DB90EB-1A2C-4E35-923D-2CA62A497591";
paths = (
{
closed = 1;
nodes = (
"278 568 OFFCURVE",
"275 565 QCURVE",
"239 533 OFFCURVE",
"195 393 OFFCURVE",
"201 316 QCURVE",
"209 240 OFFCURVE",
"271 150 OFFCURVE",
"320 144 QCURVE",
"374 138 OFFCURVE",
"408 187 QCURVE",
"443 243 OFFCURVE",
"444 325 QCURVE",
"445 399 OFFCURVE",
"432 464 QCURVE",
"427 490 OFFCURVE",
"412 529 OFFCURVE",
"401 546 OFFCURVE",
"397 548 QCURVE",
"384 555 OFFCURVE",
"355 560 QCURVE",
"350 560 OFFCURVE",
"338 562 OFFCURVE",
"324 564 OFFCURVE",
"320 564 QCURVE",
"301 568 OFFCURVE",
"285 572 QCURVE"
);
},
{
closed = 1;
nodes = (
"369 708 OFFCURVE",
"376 707 QCURVE",
"431 697 OFFCURVE",
"467 678 QCURVE",
"544 633 OFFCURVE",
"572 495 QCURVE",
"589 414 OFFCURVE",
"588 323 QCURVE",
"586 196 OFFCURVE",
"525 103 QCURVE",
"489 48 OFFCURVE",
"432 19 QCURVE",
"376 -12 OFFCURVE",
"304 -3 QCURVE",
"245 5 OFFCURVE",
"153 64 OFFCURVE",
"97 152 OFFCURVE",
"64 250 OFFCURVE",
"59 302 QCURVE",
"50 408 OFFCURVE",
"82 513 QCURVE",
"114 617 OFFCURVE",
"183 679 QCURVE",
"203 696 OFFCURVE",
"237 711 QCURVE",
"239 711 OFFCURVE",
"263 721 OFFCURVE",
"270 725 QCURVE",
"292 736 OFFCURVE",
"336 727 OFFCURVE",
"353 710 QCURVE"
);
}
);
width = 639;
}
);
unicode = 0030;
},
{
glyphname = one;
lastChange = "2019-10-09 22:50:45 +0000";
layers = (
{
layerId = UUID0;
paths = (
{
closed = 1;
nodes = (
"142 578 OFFCURVE",
"161 590 QCURVE",
"182 602 OFFCURVE",
"205 635 QCURVE",
"205 636 LINE",
"205 637 OFFCURVE",
"206 640 OFFCURVE",
"207 645 OFFCURVE",
"210 653 OFFCURVE",
"211 658 QCURVE",
"231 717 OFFCURVE",
"282 714 QCURVE",
"310 712 OFFCURVE",
"326 688 QCURVE",
"333 678 OFFCURVE",
"337 663 QCURVE",
"341 647 OFFCURVE",
"342 621 QCURVE",
"343 610 OFFCURVE",
"343 537 QCURVE",
"343 499 OFFCURVE",
"344 333 OFFCURVE",
"344 240 OFFCURVE",
"342 108 OFFCURVE",
"340 52 QCURVE",
"339 32 OFFCURVE",
"309 3 OFFCURVE",
"268 5 OFFCURVE",
"239 35 OFFCURVE",
"240 56 QCURVE",
"243 147 OFFCURVE",
"243 526 QCURVE",
"229 513 OFFCURVE",
"212 504 QCURVE",
"178 483 OFFCURVE",
"116 472 QCURVE",
"95 468 OFFCURVE",
"61 492 OFFCURVE",
"54 533 OFFCURVE",
"78 567 OFFCURVE",
"98 570 QCURVE"
);
}
);
width = 394;
},
{
layerId = "E9DB90EB-1A2C-4E35-923D-2CA62A497591";
paths = (
{
closed = 1;
nodes = (
"163 427 LINE",
"139 411 OFFCURVE",
"82 422 OFFCURVE",
"50 470 OFFCURVE",
"61 527 OFFCURVE",
"85 543 QCURVE",
"116 563 LINE",
"133 574 OFFCURVE",
"143 581 OFFCURVE",
"161 596 OFFCURVE",
"167 604 QCURVE",
"182 625 LINE",
"188 631 OFFCURVE",
"188 649 QCURVE",
"195 675 OFFCURVE",
"207 691 QCURVE",
"236 729 OFFCURVE",
"283 726 QCURVE",
"320 723 OFFCURVE",
"339 691 QCURVE",
"343 683 OFFCURVE",
"346 674 QCURVE",
"347 669 OFFCURVE",
"349 655 OFFCURVE",
"350 646 QCURVE",
"351 631 OFFCURVE",
"351 604 QCURVE",
"352 565 OFFCURVE",
"353 491 QCURVE",
"355 131 OFFCURVE",
"353 64 QCURVE",
"352 35 OFFCURVE",
"310 -5 OFFCURVE",
"252 -3 OFFCURVE",
"212 39 OFFCURVE",
"213 68 QCURVE",
"216 164 OFFCURVE",
"213 460 QCURVE"
);
}
);
width = 405;
}
);
unicode = 0031;
},
{
glyphname = two;
lastChange = "2019-10-09 22:50:45 +0000";
layers = (
{
layerId = UUID0;
paths = (
{
closed = 1;
nodes = (
"82 498 OFFCURVE",
"83 506 OFFCURVE",
"83 517 OFFCURVE",
"84 520 QCURVE",
"86 545 OFFCURVE",
"93 562 QCURVE",
"121 635 OFFCURVE",
"253 715 OFFCURVE",
"324 713 QCURVE",
"402 710 OFFCURVE",
"508 605 OFFCURVE",
"506 513 QCURVE",
"504 449 OFFCURVE",
"436 371 QCURVE",
"398 328 OFFCURVE",
"308 250 QCURVE",
"215 170 OFFCURVE",
"191 146 QCURVE",
"170 124 OFFCURVE",
"161 109 QCURVE",
"160 108 OFFCURVE",
"160 106 QCURVE",
"162 104 OFFCURVE",
"166 103 QCURVE",
"173 103 LINE",
"187 103 OFFCURVE",
"213 104 QCURVE",
"225 104 OFFCURVE",
"257 105 OFFCURVE",
"276 106 OFFCURVE",
"279 106 QCURVE",
"390 108 OFFCURVE",
"541 98 QCURVE",
"562 97 OFFCURVE",
"589 65 OFFCURVE",
"587 24 OFFCURVE",
"555 -3 OFFCURVE",
"535 -2 QCURVE",
"387 8 OFFCURVE",
"281 6 QCURVE",
"278 6 OFFCURVE",
"259 5 OFFCURVE",
"228 4 OFFCURVE",
"216 4 QCURVE",
"190 3 OFFCURVE",
"175 3 QCURVE",
"165 2 OFFCURVE",
"160 3 QCURVE",
"153 3 LINE",
"145 3 OFFCURVE",
"136 6 QCURVE",
"111 16 OFFCURVE",
"64 57 OFFCURVE",
"59 89 QCURVE",
"53 123 OFFCURVE",
"76 161 QCURVE",
"90 185 OFFCURVE",
"120 216 QCURVE",
"144 240 OFFCURVE",
"242 325 QCURVE",
"325 397 OFFCURVE",
"361 437 QCURVE",
"405 488 OFFCURVE",
"406 515 QCURVE",
"407 564 OFFCURVE",
"360 611 OFFCURVE",
"321 613 QCURVE",
"279 614 OFFCURVE",
"202 567 OFFCURVE",
"185 526 QCURVE",
"184 522 OFFCURVE",
"183 512 QCURVE",
"181 481 OFFCURVE",
"181 480 QCURVE",
"178 460 OFFCURVE",
"145 435 OFFCURVE",
"104 440 OFFCURVE",
"79 473 OFFCURVE",
"81 494 QCURVE"
);
}
);
width = 636;
},
{
layerId = "E9DB90EB-1A2C-4E35-923D-2CA62A497591";
paths = (
{
closed = 1;
nodes = (
"77 517 OFFCURVE",
"78 526 QCURVE",
"82 547 OFFCURVE",
"82 548 QCURVE",
"88 585 OFFCURVE",
"104 610 QCURVE",
"136 666 OFFCURVE",
"250 729 OFFCURVE",
"311 729 QCURVE",
"379 728 OFFCURVE",
"487 647 OFFCURVE",
"504 572 QCURVE",
"519 504 OFFCURVE",
"491 443 QCURVE",
"469 399 OFFCURVE",
"273 183 QCURVE",
"242 154 LINE",
"234 146 OFFCURVE",
"228 137 QCURVE",
"252 135 OFFCURVE",
"285 137 QCURVE",
"344 139 OFFCURVE",
"374 139 QCURVE",
"375 139 OFFCURVE",
"523 136 QCURVE",
"552 135 OFFCURVE",
"592 93 OFFCURVE",
"591 34 OFFCURVE",
"549 -6 OFFCURVE",
"521 -6 QCURVE",
"504 -5 OFFCURVE",
"444 -4 OFFCURVE",
"395 -3 OFFCURVE",
"374 -3 QCURVE",
"346 -3 OFFCURVE",
"291 -5 QCURVE",
"209 -8 OFFCURVE",
"162 4 QCURVE",
"92 22 OFFCURVE",
"72 77 QCURVE",
"53 126 OFFCURVE",
"85 182 QCURVE",
"104 213 OFFCURVE",
"355 486 OFFCURVE",
"364 505 QCURVE",
"371 520 OFFCURVE",
"367 539 QCURVE",
"357 586 OFFCURVE",
"310 586 QCURVE",
"285 586 OFFCURVE",
"238 560 OFFCURVE",
"225 538 QCURVE",
"223 534 OFFCURVE",
"220 522 QCURVE",
"219 519 OFFCURVE",
"218 513 OFFCURVE",
"217 506 OFFCURVE",
"217 503 QCURVE",
"212 477 LINE",
"204 449 OFFCURVE",
"155 418 OFFCURVE",
"99 433 OFFCURVE",
"68 483 OFFCURVE",
"75 512 QCURVE"
);
}
);
width = 636;
}
);
unicode = 0032;
},
{
glyphname = three;
lastChange = "2019-10-09 22:50:45 +0000";
layers = (
{
layerId = UUID0;
paths = (
{
closed = 1;
nodes = (
"66 541 OFFCURVE",
"81 576 OFFCURVE",
"88 590 OFFCURVE",
"104 616 OFFCURVE",
"124 639 OFFCURVE",
"139 651 QCURVE",
"181 688 OFFCURVE",
"291 720 OFFCURVE",
"345 712 QCURVE",
"403 704 OFFCURVE",
"496 631 OFFCURVE",
"516 569 QCURVE",
"548 466 OFFCURVE",
"456 384 QCURVE",
"455 383 LINE",
"461 379 LINE",
"507 350 OFFCURVE",
"562 256 OFFCURVE",
"551 189 QCURVE",
"541 121 OFFCURVE",
"446 31 OFFCURVE",
"383 13 QCURVE",
"327 -6 OFFCURVE",
"261 1 QCURVE",
"196 6 OFFCURVE",
"149 38 QCURVE",
"103 68 OFFCURVE",
"82 108 QCURVE",
"78 116 OFFCURVE",
"55 180 QCURVE",
"48 199 OFFCURVE",
"65 238 OFFCURVE",
"104 252 OFFCURVE",
"142 235 OFFCURVE",
"149 214 QCURVE",
"169 158 OFFCURVE",
"170 157 QCURVE",
"179 140 OFFCURVE",
"203 124 QCURVE",
"230 107 OFFCURVE",
"312 98 OFFCURVE",
"354 111 QCURVE",
"396 124 OFFCURVE",
"448 173 OFFCURVE",
"453 205 QCURVE",
"461 259 OFFCURVE",
"409 292 QCURVE",
"389 304 OFFCURVE",
"363 312 QCURVE",
"355 315 OFFCURVE",
"347 317 QCURVE",
"342 318 LINE",
"340 318 OFFCURVE",
"339 319 QCURVE",
"337 319 OFFCURVE",
"335 320 QCURVE",
"332 321 OFFCURVE",
"329 323 QCURVE",
"324 325 OFFCURVE",
"319 330 QCURVE",
"304 343 OFFCURVE",
"302 364 QCURVE",
"300 387 OFFCURVE",
"316 406 QCURVE",
"321 412 OFFCURVE",
"328 417 QCURVE",
"348 430 LINE",
"376 449 OFFCURVE",
"390 462 QCURVE",
"432 499 OFFCURVE",
"420 536 QCURVE",
"400 601 OFFCURVE",
"331 610 QCURVE",
"298 615 OFFCURVE",
"229 595 OFFCURVE",
"203 573 QCURVE",
"195 565 OFFCURVE",
"184 556 OFFCURVE",
"175 540 OFFCURVE",
"171 532 OFFCURVE",
"159 502 OFFCURVE",
"154 493 QCURVE",
"146 474 OFFCURVE",
"107 459 OFFCURVE",
"69 477 OFFCURVE",
"55 517 OFFCURVE",
"64 536 QCURVE"
);
}
);
width = 610;
},
{
layerId = "E9DB90EB-1A2C-4E35-923D-2CA62A497591";
paths = (
{
closed = 1;
nodes = (
"68 620 OFFCURVE",
"72 626 QCURVE",
"82 642 LINE",
"101 670 OFFCURVE",
"123 685 QCURVE",
"180 723 OFFCURVE",
"307 731 OFFCURVE",
"409 687 OFFCURVE",
"446 647 QCURVE",
"508 580 OFFCURVE",
"502 500 QCURVE",
"499 443 OFFCURVE",
"459 400 QCURVE",
"544 339 OFFCURVE",
"551 234 QCURVE",
"556 160 OFFCURVE",
"529 114 QCURVE",
"500 63 OFFCURVE",
"392 6 OFFCURVE",
"272 -8 OFFCURVE",
"155 24 OFFCURVE",
"115 66 QCURVE",
"96 86 OFFCURVE",
"81 120 QCURVE",
"72 141 LINE",
"68 151 OFFCURVE",
"65 156 QCURVE",
"53 180 OFFCURVE",
"69 232 OFFCURVE",
"118 257 OFFCURVE",
"170 241 OFFCURVE",
"183 216 QCURVE",
"188 206 OFFCURVE",
"194 192 QCURVE",
"202 173 LINE",
"207 160 OFFCURVE",
"211 156 QCURVE",
"225 142 OFFCURVE",
"282 126 OFFCURVE",
"353 134 OFFCURVE",
"405 162 OFFCURVE",
"415 180 QCURVE",
"421 191 OFFCURVE",
"419 226 QCURVE",
"414 302 OFFCURVE",
"299 326 QCURVE",
"267 318 OFFCURVE",
"242 340 QCURVE",
"226 350 OFFCURVE",
"209 385 OFFCURVE",
"211 404 QCURVE",
"215 431 OFFCURVE",
"258 465 OFFCURVE",
"285 462 QCURVE",
"289 461 OFFCURVE",
"294 460 QCURVE",
"301 462 OFFCURVE",
"317 465 OFFCURVE",
"324 466 OFFCURVE",
"334 469 OFFCURVE",
"339 472 QCURVE",
"369 489 OFFCURVE",
"371 509 QCURVE",
"372 532 OFFCURVE",
"349 557 QCURVE",
"320 588 OFFCURVE",
"240 601 OFFCURVE",
"197 575 QCURVE",
"191 568 LINE",
"182 554 LINE",
"174 542 OFFCURVE",
"169 535 QCURVE",
"152 514 OFFCURVE",
"97 507 OFFCURVE",
"55 541 OFFCURVE",
"48 596 OFFCURVE",
"65 617 QCURVE"
);
}
);
width = 610;
}
);
unicode = 0033;
},
{
glyphname = four;
lastChange = "2019-10-09 22:50:45 +0000";
layers = (
{
layerId = UUID0;
paths = (
{
closed = 1;
nodes = (
"365 442 OFFCURVE",
"358 538 QCURVE",
"300 441 OFFCURVE",
"217 329 QCURVE",
"189 289 LINE",
"232 290 OFFCURVE",
"245 290 QCURVE",
"279 290 OFFCURVE",
"361 291 QCURVE"
);
},
{
closed = 1;
nodes = (
"467 533 OFFCURVE",
"461 291 QCURVE",
"517 291 OFFCURVE",
"561 290 QCURVE",
"582 290 OFFCURVE",
"610 260 OFFCURVE",
"610 218 OFFCURVE",
"580 190 OFFCURVE",
"559 190 QCURVE",
"514 191 OFFCURVE",
"459 191 QCURVE",
"456 120 OFFCURVE",
"456 43 QCURVE",
"456 23 OFFCURVE",
"426 -6 OFFCURVE",
"385 -6 OFFCURVE",
"356 24 OFFCURVE",
"356 45 QCURVE",
"356 124 OFFCURVE",
"358 191 QCURVE",
"279 190 OFFCURVE",
"245 190 QCURVE",
"230 190 OFFCURVE",
"162 188 OFFCURVE",
"148 188 QCURVE",
"118 189 OFFCURVE",
"100 195 QCURVE",
"55 210 OFFCURVE",
"52 253 QCURVE",
"50 290 OFFCURVE",
"83 323 QCURVE",
"88 328 OFFCURVE",
"97 336 OFFCURVE",
"101 339 OFFCURVE",
"104 343 OFFCURVE",
"106 345 QCURVE",
"137 387 LINE",
"257 552 OFFCURVE",
"331 692 QCURVE",
"338 706 OFFCURVE",
"366 720 OFFCURVE",
"381 719 QCURVE",
"383 719 LINE",
"404 723 OFFCURVE",
"438 699 OFFCURVE",
"441 679 QCURVE"
);
}
);
width = 661;
},
{
layerId = "E9DB90EB-1A2C-4E35-923D-2CA62A497591";
paths = (
{
closed = 1;
nodes = (
"316 373 OFFCURVE",
"315 423 QCURVE",
"241 321 LINE",
"272 318 OFFCURVE",
"313 317 QCURVE",
"316 317 LINE"
);
},
{
closed = 1;
nodes = (
"307 694 OFFCURVE",
"341 725 OFFCURVE",
"365 727 QCURVE",
"393 730 OFFCURVE",
"438 693 OFFCURVE",
"440 664 QCURVE",
"455 509 OFFCURVE",
"456 319 QCURVE",
"525 322 OFFCURVE",
"527 322 QCURVE",
"556 322 OFFCURVE",
"597 281 OFFCURVE",
"597 223 OFFCURVE",
"556 182 OFFCURVE",
"527 182 QCURVE",
"525 182 OFFCURVE",
"455 180 QCURVE",
"455 146 OFFCURVE",
"454 68 QCURVE",
"453 39 OFFCURVE",
"412 -1 OFFCURVE",
"354 0 OFFCURVE",
"314 41 OFFCURVE",
"314 70 QCURVE",
"315 147 OFFCURVE",
"315 178 QCURVE",
"311 178 LINE",
"225 179 OFFCURVE",
"174 189 QCURVE",
"138 195 OFFCURVE",
"114 207 QCURVE",
"65 231 OFFCURVE",
"58 277 QCURVE",
"50 331 OFFCURVE",
"98 376 QCURVE",
"112 388 LINE",
"117 392 OFFCURVE",
"120 394 OFFCURVE",
"123 397 OFFCURVE",
"125 398 QCURVE",
"232 539 OFFCURVE",
"297 663 QCURVE",
"300 667 OFFCURVE",
"302 671 QCURVE"
);
}
);
width = 661;
}
);
unicode = 0034;
},
{
glyphname = five;
lastChange = "2019-10-09 22:50:45 +0000";
layers = (
{
layerId = UUID0;
paths = (
{
closed = 1;
nodes = (
"216 713 OFFCURVE",
"448 713 QCURVE",
"469 713 OFFCURVE",
"498 684 OFFCURVE",
"498 642 OFFCURVE",
"469 613 OFFCURVE",
"448 613 QCURVE",
"242 613 OFFCURVE",
"181 612 QCURVE",
"179 518 OFFCURVE",
"170 441 QCURVE",
"179 446 LINE",
"202 457 OFFCURVE",
"210 459 QCURVE",
"277 479 OFFCURVE",
"394 443 OFFCURVE",
"477 365 OFFCURVE",
"518 248 OFFCURVE",
"510 186 QCURVE",
"502 127 OFFCURVE",
"417 36 OFFCURVE",
"359 15 QCURVE",
"322 1 OFFCURVE",
"244 -5 OFFCURVE",
"161 20 OFFCURVE",
"130 49 QCURVE",
"108 70 OFFCURVE",
"90 106 QCURVE",
"79 131 LINE",
"73 143 OFFCURVE",
"69 150 QCURVE",
"58 168 OFFCURVE",
"69 208 OFFCURVE",
"105 229 OFFCURVE",
"145 218 OFFCURVE",
"155 200 QCURVE",
"162 189 OFFCURVE",
"169 173 QCURVE",
"180 150 LINE",
"190 130 OFFCURVE",
"198 123 QCURVE",
"220 103 OFFCURVE",
"287 95 OFFCURVE",
"324 108 QCURVE",
"360 122 OFFCURVE",
"407 172 OFFCURVE",
"410 200 QCURVE",
"417 252 OFFCURVE",
"371 338 OFFCURVE",
"285 376 OFFCURVE",
"238 363 QCURVE",
"223 356 LINE",
"186 338 LINE",
"161 326 OFFCURVE",
"145 321 QCURVE",
"131 317 OFFCURVE",
"121 316 QCURVE",
"97 314 OFFCURVE",
"79 326 QCURVE",
"36 355 OFFCURVE",
"58 411 QCURVE",
"60 416 OFFCURVE",
"64 424 OFFCURVE",
"65 428 OFFCURVE",
"67 430 OFFCURVE",
"67 431 QCURVE",
"67 432 LINE",
"82 540 OFFCURVE",
"82 650 QCURVE",
"82 670 OFFCURVE",
"96 685 QCURVE",
"110 710 OFFCURVE",
"139 711 QCURVE"
);
}
);
width = 564;
},
{
layerId = "E9DB90EB-1A2C-4E35-923D-2CA62A497591";
paths = (
{
closed = 1;
nodes = (
"94 505 OFFCURVE",
"109 642 QCURVE",
"111 656 OFFCURVE",
"119 668 QCURVE",
"125 690 OFFCURVE",
"161 717 OFFCURVE",
"184 717 QCURVE",
"282 718 OFFCURVE",
"467 718 QCURVE",
"496 718 OFFCURVE",
"537 677 OFFCURVE",
"537 619 OFFCURVE",
"496 578 OFFCURVE",
"467 578 QCURVE",
"237 578 LINE",
"229 498 OFFCURVE",
"228 489 QCURVE",
"315 502 OFFCURVE",
"472 417 OFFCURVE",
"514 346 QCURVE",
"563 262 OFFCURVE",
"542 177 QCURVE",
"518 83 OFFCURVE",
"414 28 QCURVE",
"363 1 OFFCURVE",
"312 -1 QCURVE",
"235 -4 OFFCURVE",
"186 13 QCURVE",
"173 18 OFFCURVE",
"158 26 QCURVE",
"122 44 LINE",
"92 59 LINE",
"67 72 OFFCURVE",
"50 126 OFFCURVE",
"75 176 OFFCURVE",
"129 193 OFFCURVE",
"154 181 QCURVE",
"188 162 LINE",
"206 153 OFFCURVE",
"223 145 OFFCURVE",
"232 142 QCURVE",
"256 133 OFFCURVE",
"306 135 QCURVE",
"327 136 OFFCURVE",
"350 148 QCURVE",
"401 175 OFFCURVE",
"410 211 QCURVE",
"418 242 OFFCURVE",
"397 277 QCURVE",
"373 318 OFFCURVE",
"284 362 OFFCURVE",
"241 353 QCURVE",
"237 353 OFFCURVE",
"227 347 QCURVE",
"193 327 OFFCURVE",
"191 326 QCURVE",
"179 320 OFFCURVE",
"165 319 QCURVE",
"153 316 OFFCURVE",
"140 317 QCURVE",
"112 321 OFFCURVE",
"77 365 OFFCURVE",
"80 393 QCURVE"
);
}
);
width = 613;
}
);
unicode = 0035;
},
{
glyphname = six;
lastChange = "2019-10-09 22:50:45 +0000";
layers = (
{
layerId = UUID0;
paths = (
{
closed = 1;
nodes = (
"187 157 OFFCURVE",
"253 122 QCURVE",
"294 100 OFFCURVE",
"331 101 QCURVE",
"369 102 OFFCURVE",
"428 135 OFFCURVE",
"448 163 QCURVE",
"466 191 OFFCURVE",
"474 248 OFFCURVE",
"443 307 OFFCURVE",
"407 328 QCURVE",
"387 339 OFFCURVE",
"321 355 OFFCURVE",
"305 351 QCURVE",
"288 347 OFFCURVE",
"261 335 OFFCURVE",
"229 310 OFFCURVE",
"221 303 QCURVE",
"193 275 LINE",
"163 245 LINE"
);
},
{
closed = 1;
nodes = (
"356 637 OFFCURVE",
"283 606 QCURVE",
"214 575 OFFCURVE",
"176 475 QCURVE",
"158 428 OFFCURVE",
"153 377 QCURVE",
"216 434 OFFCURVE",
"281 450 QCURVE",
"320 459 OFFCURVE",
"424 436 OFFCURVE",
"457 415 QCURVE",
"521 378 OFFCURVE",
"576 266 OFFCURVE",
"563 154 OFFCURVE",
"530 106 QCURVE",
"497 58 OFFCURVE",
"397 1 OFFCURVE",
"271 -4 OFFCURVE",
"205 33 QCURVE",
"145 66 OFFCURVE",
"70 183 OFFCURVE",
"48 315 OFFCURVE",
"60 451 OFFCURVE",
"83 511 QCURVE",
"107 575 OFFCURVE",
"189 674 OFFCURVE",
"243 699 QCURVE",
"371 753 OFFCURVE",
"509 647 QCURVE",
"526 634 OFFCURVE",
"531 592 OFFCURVE",
"506 559 OFFCURVE",
"465 554 OFFCURVE",
"449 566 QCURVE"
);
}
);
width = 622;
},
{
layerId = "E9DB90EB-1A2C-4E35-923D-2CA62A497591";
paths = (
{
closed = 1;
nodes = (
"240 158 OFFCURVE",
"319 138 QCURVE",
"363 127 OFFCURVE",
"391 150 QCURVE",
"419 171 OFFCURVE",
"429 256 OFFCURVE",
"380 321 OFFCURVE",
"322 325 QCURVE",
"301 327 OFFCURVE",
"289 320 QCURVE",
"270 310 OFFCURVE",
"241 281 QCURVE",
"208 247 LINE"
);
},
{
closed = 1;
nodes = (
"402 552 LINE",
"390 560 OFFCURVE",
"385 564 QCURVE",
"371 573 LINE",
"362 578 OFFCURVE",
"357 579 OFFCURVE",
"341 585 OFFCURVE",
"334 582 OFFCURVE",
"324 583 QCURVE",
"283 578 OFFCURVE",
"214 498 OFFCURVE",
"200 433 QCURVE",
"211 441 OFFCURVE",
"223 448 QCURVE",
"272 474 OFFCURVE",
"395 464 OFFCURVE",
"491 412 OFFCURVE",
"545 334 OFFCURVE",
"568 243 OFFCURVE",
"562 196 QCURVE",
"557 150 OFFCURVE",
"515 68 OFFCURVE",
"444 7 OFFCURVE",
"347 -15 OFFCURVE",
"287 -2 QCURVE",
"221 15 OFFCURVE",
"123 96 OFFCURVE",
"71 204 OFFCURVE",
"48 322 OFFCURVE",
"52 381 QCURVE",
"55 439 OFFCURVE",
"90 551 OFFCURVE",
"150 651 OFFCURVE",
"200 685 QCURVE",
"249 719 OFFCURVE",
"310 726 QCURVE",
"339 729 OFFCURVE",
"362 726 QCURVE",
"387 724 OFFCURVE",
"433 702 OFFCURVE",
"455 689 OFFCURVE",
"500 656 OFFCURVE",
"502 655 QCURVE",
"526 639 OFFCURVE",
"537 580 OFFCURVE",
"505 531 OFFCURVE",
"448 519 OFFCURVE",
"424 536 QCURVE"
);
}
);
width = 622;
}
);
unicode = 0036;
},
{
glyphname = seven;
lastChange = "2019-10-09 22:50:45 +0000";
layers = (
{
layerId = UUID0;
paths = (
{
closed = 1;
nodes = (
"432 607 LINE"
);
},
{
closed = 1;
nodes = (
"147 716 OFFCURVE",
"282 716 QCURVE",
"348 716 OFFCURVE",
"395 714 QCURVE",
"422 713 OFFCURVE",
"436 711 QCURVE",
"446 710 OFFCURVE",
"453 709 QCURVE",
"470 705 OFFCURVE",
"483 692 QCURVE",
"511 662 OFFCURVE",
"502 617 QCURVE",
"498 592 OFFCURVE",
"481 554 QCURVE",
"476 545 OFFCURVE",
"468 535 QCURVE",
"462 523 OFFCURVE",
"457 516 QCURVE",
"445 502 LINE",
"440 494 LINE",
"423 471 OFFCURVE",
"392 424 OFFCURVE",
"375 396 QCURVE",
"347 348 LINE",
"337 328 OFFCURVE",
"320 294 QCURVE",
"294 244 LINE",
"268 188 LINE",
"244 136 LINE",
"218 77 LINE",
"198 32 OFFCURVE",
"194 23 QCURVE",
"185 3 OFFCURVE",
"147 -11 OFFCURVE",
"109 8 OFFCURVE",
"95 47 OFFCURVE",
"104 67 QCURVE",
"109 77 OFFCURVE",
"128 121 QCURVE",
"153 179 LINE",
"178 232 LINE",
"196 272 OFFCURVE",
"205 289 QCURVE",
"232 344 LINE",
"249 378 OFFCURVE",
"262 400 QCURVE",
"292 452 LINE",
"309 481 OFFCURVE",
"326 506 QCURVE",
"360 557 LINE",
"361 559 OFFCURVE",
"373 585 QCURVE",
"392 610 LINE",
"391 610 LINE",
"350 612 OFFCURVE",
"282 612 QCURVE",
"150 612 OFFCURVE",
"108 610 QCURVE",
"88 609 OFFCURVE",
"57 638 OFFCURVE",
"55 681 OFFCURVE",
"83 713 OFFCURVE",
"102 714 QCURVE"
);
}
);
width = 557;
},
{
layerId = "E9DB90EB-1A2C-4E35-923D-2CA62A497591";
paths = (
{
closed = 1;
nodes = (
"195 725 OFFCURVE",
"300 725 QCURVE",
"368 725 OFFCURVE",
"414 723 QCURVE",
"446 722 OFFCURVE",
"466 720 OFFCURVE",
"474 718 QCURVE",
"481 717 OFFCURVE",
"487 714 QCURVE",
"508 707 OFFCURVE",
"520 691 QCURVE",
"551 651 OFFCURVE",
"530 590 QCURVE",
"521 552 OFFCURVE",
"429 378 OFFCURVE",
"393 312 OFFCURVE",
"372 268 QCURVE",
"342 201 LINE",
"332 179 OFFCURVE",
"282 58 OFFCURVE",
"276 45 QCURVE",
"265 18 OFFCURVE",
"211 -4 OFFCURVE",
"158 19 OFFCURVE",
"136 73 OFFCURVE",
"148 99 QCURVE",
"178 172 LINE",
"203 232 OFFCURVE",
"214 256 QCURVE",
"247 328 LINE",
"269 375 OFFCURVE",
"348 541 OFFCURVE",
"352 546 QCURVE",
"364 573 OFFCURVE",
"371 585 QCURVE",
"299 585 LINE",
"159 585 OFFCURVE",
"121 584 QCURVE",
"92 584 OFFCURVE",
"51 624 OFFCURVE",
"50 682 OFFCURVE",
"90 723 OFFCURVE",
"119 724 QCURVE"
);
}
);
width = 601;
}
);
unicode = 0037;
},
{
glyphname = eight;
lastChange = "2019-10-09 22:50:45 +0000";
layers = (
{
layerId = UUID0;
paths = (
{
closed = 1;
nodes = (
"317 716 OFFCURVE",
"322 716 QCURVE",
"326 716 OFFCURVE",
"334 717 QCURVE",
"352 718 LINE",
"382 721 OFFCURVE",
"405 714 QCURVE",
"451 698 OFFCURVE",
"511 624 OFFCURVE",
"523 577 QCURVE",
"534 536 OFFCURVE",
"518 438 OFFCURVE",
"489 403 QCURVE",
"471 380 OFFCURVE",
"444 363 QCURVE",
"480 334 OFFCURVE",
"503 298 QCURVE",
"547 226 OFFCURVE",
"536 101 OFFCURVE",
"487 56 QCURVE",
"445 19 OFFCURVE",
"320 -10 OFFCURVE",
"257 0 QCURVE",
"189 10 OFFCURVE",
"89 87 OFFCURVE",
"71 143 QCURVE",
"52 202 OFFCURVE",
"95 320 OFFCURVE",
"154 364 QCURVE",
"162 370 OFFCURVE",
"172 376 QCURVE",
"160 380 OFFCURVE",
"151 384 QCURVE",
"89 414 OFFCURVE",
"65 459 QCURVE",
"28 527 OFFCURVE",
"87 617 QCURVE",
"157 724 OFFCURVE",
"311 715 QCURVE"
);
},
{
closed = 1;
nodes = (
"289 313 OFFCURVE",
"262 306 OFFCURVE",
"225 292 OFFCURVE",
"214 284 QCURVE",
"179 258 OFFCURVE",
"158 200 OFFCURVE",
"166 174 QCURVE",
"175 147 OFFCURVE",
"229 105 OFFCURVE",
"271 98 QCURVE",
"317 92 OFFCURVE",
"397 111 OFFCURVE",
"420 131 QCURVE",
"465 171 OFFCURVE",
"419 244 QCURVE",
"391 289 OFFCURVE",
"321 320 QCURVE"
);
},
{
closed = 1;
nodes = (
"332 614 OFFCURVE",
"257 617 OFFCURVE",
"190 593 OFFCURVE",
"171 563 QCURVE",
"144 522 OFFCURVE",
"153 505 QCURVE",
"161 490 OFFCURVE",
"194 475 QCURVE",
"212 466 OFFCURVE",
"288 440 QCURVE",
"313 432 OFFCURVE",
"330 425 QCURVE",
"391 440 OFFCURVE",
"411 465 QCURVE",
"438 499 OFFCURVE",
"425 553 QCURVE",
"418 584 OFFCURVE",
"399 602 QCURVE",
"393 602 OFFCURVE",
"387 603 QCURVE"
);
}
);
width = 594;
},
{
layerId = "E9DB90EB-1A2C-4E35-923D-2CA62A497591";
paths = (
{
closed = 1;
nodes = (
"343 428 OFFCURVE",
"354 433 QCURVE",
"384 448 OFFCURVE",
"404 494 OFFCURVE",
"396 520 QCURVE",
"388 548 OFFCURVE",
"341 584 OFFCURVE",
"308 584 QCURVE",
"262 584 OFFCURVE",
"205 535 OFFCURVE",
"199 501 QCURVE",
"193 472 OFFCURVE",
"220 426 OFFCURVE",
"255 416 QCURVE",
"277 421 LINE",
"306 427 OFFCURVE",
"328 426 QCURVE"
);
},
{
closed = 1;
nodes = (
"84 385 OFFCURVE",
"60 477 OFFCURVE",
"69 525 QCURVE",
"84 604 OFFCURVE",
"213 716 OFFCURVE",
"308 716 QCURVE",
"387 716 OFFCURVE",
"503 625 OFFCURVE",
"523 557 QCURVE",
"539 507 OFFCURVE",
"513 395 OFFCURVE",
"471 355 QCURVE",
"527 304 OFFCURVE",
"555 178 OFFCURVE",
"524 120 QCURVE",
"494 63 OFFCURVE",
"433 30 QCURVE",
"372 -4 OFFCURVE",
"299 -4 QCURVE",
"192 -4 OFFCURVE",
"61 99 OFFCURVE",
"54 182 QCURVE",
"50 228 OFFCURVE",
"83 316 OFFCURVE",
"116 350 QCURVE"
);
},
{
closed = 1;
nodes = (
"311 277 OFFCURVE",
"268 280 QCURVE",
"254 281 OFFCURVE",
"249 279 QCURVE",
"218 271 OFFCURVE",
"183 220 OFFCURVE",
"185 193 QCURVE",
"186 183 OFFCURVE",
"196 163 OFFCURVE",
"218 141 OFFCURVE",
"266 128 OFFCURVE",
"299 128 QCURVE",
"338 128 OFFCURVE",
"396 160 OFFCURVE",
"407 181 QCURVE",
"429 223 OFFCURVE",
"370 267 QCURVE",
"356 278 OFFCURVE",
"344 285 QCURVE",
"330 277 OFFCURVE",
"313 277 QCURVE"
);
}
);
width = 605;
}
);
unicode = 0038;
},
{
glyphname = nine;
lastChange = "2019-10-09 22:50:45 +0000";
layers = (
{
layerId = UUID0;
paths = (
{
closed = 1;
nodes = (
"378 592 LINE",
"362 602 LINE",
"351 607 OFFCURVE",
"327 609 QCURVE",
"281 613 OFFCURVE",
"246 604 QCURVE",
"211 594 OFFCURVE",
"172 555 OFFCURVE",
"152 509 OFFCURVE",
"151 483 QCURVE",
"150 428 OFFCURVE",
"221 356 OFFCURVE",
"282 365 QCURVE",
"319 370 OFFCURVE",
"376 420 OFFCURVE",
"391 460 QCURVE",
"401 485 OFFCURVE",
"410 571 QCURVE",
"409 572 OFFCURVE",
"407 573 QCURVE"
);
},
{
closed = 1;
nodes = (
"534 387 OFFCURVE",
"510 44 QCURVE",
"508 23 OFFCURVE",
"477 -3 OFFCURVE",
"435 0 OFFCURVE",
"409 31 OFFCURVE",
"410 52 QCURVE",
"420 217 OFFCURVE",
"424 329 QCURVE",
"370 276 OFFCURVE",
"296 265 QCURVE",
"238 258 OFFCURVE",
"142 291 OFFCURVE",
"82 357 OFFCURVE",
"50 441 OFFCURVE",
"51 486 QCURVE",
"52 533 OFFCURVE",
"90 617 OFFCURVE",
"159 682 OFFCURVE",
"269 715 OFFCURVE",
"335 709 QCURVE",
"379 705 OFFCURVE",
"407 691 QCURVE",
"417 686 OFFCURVE",
"433 676 QCURVE",
"449 665 LINE",
"457 669 OFFCURVE",
"467 670 QCURVE",
"488 671 OFFCURVE",
"519 644 OFFCURVE",
"520 623 QCURVE"
);
}
);
width = 580;
},
{
layerId = "E9DB90EB-1A2C-4E35-923D-2CA62A497591";
paths = (
{
closed = 1;
nodes = (
"391 480 OFFCURVE",
"391 564 QCURVE",
"318 602 OFFCURVE",
"264 588 QCURVE",
"213 575 OFFCURVE",
"173 473 OFFCURVE",
"198 432 QCURVE",
"227 386 OFFCURVE",
"306 385 QCURVE",
"314 385 OFFCURVE",
"330 390 QCURVE",
"375 403 OFFCURVE",
"377 403 QCURVE",
"383 405 OFFCURVE",
"389 405 QCURVE"
);
},
{
closed = 1;
nodes = (
"372 264 OFFCURVE",
"367 263 QCURVE",
"332 253 OFFCURVE",
"304 253 QCURVE",
"230 254 OFFCURVE",
"118 312 OFFCURVE",
"86 363 QCURVE",
"57 410 OFFCURVE",
"50 524 OFFCURVE",
"70 571 QCURVE",
"90 624 OFFCURVE",
"131 663 QCURVE",
"173 702 OFFCURVE",
"231 716 QCURVE",
"358 747 OFFCURVE",
"504 650 QCURVE",
"522 638 OFFCURVE",
"536 598 OFFCURVE",
"531 578 QCURVE",
"530 313 OFFCURVE",
"509 66 QCURVE",
"507 38 OFFCURVE",
"462 1 OFFCURVE",
"405 6 OFFCURVE",
"368 51 OFFCURVE",
"371 80 QCURVE",
"378 157 OFFCURVE",
"383 268 QCURVE"
);
}
);
width = 586;
}
);
unicode = 0039;
},
{
glyphname = colon;
lastChange = "2019-10-09 22:50:45 +0000";
layers = (
{
layerId = UUID0;
paths = (
{
closed = 1;
nodes = (
"153 496 OFFCURVE",
"153 454 OFFCURVE",
"124 425 OFFCURVE",
"82 425 OFFCURVE",
"53 454 OFFCURVE",
"53 496 OFFCURVE",
"82 525 OFFCURVE",
"124 525 OFFCURVE",
"138 510 QCURVE"
);
},
{
closed = 1;
nodes = (
"156 74 OFFCURVE",
"156 32 OFFCURVE",
"127 3 OFFCURVE",
"85 3 OFFCURVE",
"56 32 OFFCURVE",
"56 74 OFFCURVE",
"85 103 OFFCURVE",
"127 103 OFFCURVE",
"141 88 QCURVE"
);
}
);
width = 206;
},
{
layerId = "E9DB90EB-1A2C-4E35-923D-2CA62A497591";
paths = (
{
closed = 1;
nodes = (
"190 474 OFFCURVE",
"190 416 OFFCURVE",
"149 375 OFFCURVE",
"91 375 OFFCURVE",
"50 416 OFFCURVE",
"50 474 OFFCURVE",
"91 515 OFFCURVE",
"149 515 OFFCURVE",
"169 494 QCURVE"
);
},
{
closed = 1;
nodes = (
"193 102 OFFCURVE",
"193 44 OFFCURVE",
"152 3 OFFCURVE",
"94 3 OFFCURVE",
"53 44 OFFCURVE",
"53 102 OFFCURVE",
"94 143 OFFCURVE",
"152 143 OFFCURVE",
"172 122 QCURVE"
);
}
);
width = 243;
}
);
unicode = 003A;
},
{
glyphname = semicolon;
lastChange = "2019-10-09 22:50:45 +0000";
layers = (
{
layerId = UUID0;
paths = (
{
closed = 1;
nodes = (
"182 47 OFFCURVE",
"189 -2 QCURVE",
"191 -26 OFFCURVE",
"189 -41 QCURVE",
"186 -52 OFFCURVE",
"176 -76 QCURVE",
"163 -106 OFFCURVE",
"151 -134 QCURVE",
"144 -151 OFFCURVE",
"107 -167 OFFCURVE",
"68 -154 OFFCURVE",
"50 -121 OFFCURVE",
"57 -103 QCURVE",
"68 -75 OFFCURVE",
"83 -42 QCURVE",
"90 -27 OFFCURVE",
"90 -25 QCURVE",
"91 -23 OFFCURVE",
"89 -13 QCURVE",
"83 38 OFFCURVE",
"82 44 QCURVE",
"80 63 OFFCURVE",
"107 91 OFFCURVE",
"138 95 OFFCURVE",
"180 71 OFFCURVE",
"182 53 QCURVE"
);
},
{
closed = 1;
nodes = (
"182 259 OFFCURVE",
"182 217 OFFCURVE",
"153 188 OFFCURVE",
"111 188 OFFCURVE",
"82 217 OFFCURVE",
"82 259 OFFCURVE",
"111 288 OFFCURVE",
"153 288 OFFCURVE",
"167 273 QCURVE"
);
}
);
width = 245;
},
{
layerId = "E9DB90EB-1A2C-4E35-923D-2CA62A497591";
paths = (
{
closed = 1;
nodes = (
"193 -99 LINE",
"186 -127 OFFCURVE",
"137 -158 OFFCURVE",
"81 -144 OFFCURVE",
"50 -95 OFFCURVE",
"57 -67 QCURVE",
"84 48 LINE",
"91 76 OFFCURVE",
"140 107 OFFCURVE",
"196 93 OFFCURVE",
"227 44 OFFCURVE",
"220 16 QCURVE"
);
},
{
closed = 1;
nodes = (
"228 292 OFFCURVE",
"228 234 OFFCURVE",
"187 193 OFFCURVE",
"129 193 OFFCURVE",
"88 234 OFFCURVE",
"88 292 OFFCURVE",
"129 333 OFFCURVE",
"187 333 OFFCURVE",
"207 312 QCURVE"
);
}
);
width = 278;
}
);
unicode = 003B;
},
{
glyphname = less;
lastChange = "2019-10-09 22:50:45 +0000";
layers = (
{
layerId = UUID0;
paths = (
{
closed = 1;
nodes = (
"393 345 OFFCURVE",
"246 291 QCURVE",
"191 272 LINE",
"193 271 LINE",
"207 266 LINE",
"215 263 OFFCURVE",
"219 262 QCURVE",
"427 170 OFFCURVE",
"548 98 QCURVE",
"565 87 OFFCURVE",
"576 47 OFFCURVE",
"554 12 OFFCURVE",
"534 6 QCURVE",
"514 1 OFFCURVE",
"496 12 QCURVE",
"381 81 OFFCURVE",
"179 170 QCURVE",
"174 172 LINE",
"158 177 LINE",
"134 187 OFFCURVE",
"116 197 QCURVE",
"85 213 OFFCURVE",
"70 234 QCURVE",
"42 272 OFFCURVE",
"58 314 QCURVE",
"73 353 OFFCURVE",
"123 360 QCURVE",
"130 361 OFFCURVE",
"135 362 QCURVE",
"140 362 OFFCURVE",
"142 362 QCURVE",
"144 362 LINE",
"147 362 LINE",
"212 385 LINE",
"363 440 OFFCURVE",
"527 520 QCURVE",
"546 529 OFFCURVE",
"585 516 OFFCURVE",
"603 478 OFFCURVE",
"590 439 OFFCURVE",
"571 430 QCURVE"
);
}
);
width = 649;
},
{
layerId = "E9DB90EB-1A2C-4E35-923D-2CA62A497591";
paths = (
{
closed = 1;
nodes = (
"186 340 LINE",
"284 380 LINE",
"364 414 LINE",
"460 456 LINE",
"546 494 LINE",
"571 504 OFFCURVE",
"622 484 OFFCURVE",
"643 434 OFFCURVE",
"623 383 OFFCURVE",
"598 372 QCURVE",
"306 246 LINE",
"376 223 LINE",
"525 173 OFFCURVE",
"621 128 QCURVE",
"645 116 OFFCURVE",
"663 64 OFFCURVE",
"640 15 OFFCURVE",
"588 -3 OFFCURVE",
"563 8 QCURVE",
"475 51 OFFCURVE",
"334 98 QCURVE",
"257 124 LINE",
"166 154 LINE",
"126 167 OFFCURVE",
"91 180 QCURVE",
"65 189 OFFCURVE",
"42 239 OFFCURVE",
"51 264 QCURVE",
"63 299 OFFCURVE",
"99 307 QCURVE",
"100 307 LINE"
);
}
);
width = 649;
}
);
unicode = 003C;
},
{
glyphname = equal;
lastChange = "2019-10-09 22:50:45 +0000";
layers = (
{
layerId = UUID0;
paths = (
{
closed = 1;
nodes = (
"394 408 OFFCURVE",
"566 408 QCURVE",
"587 408 OFFCURVE",
"616 379 OFFCURVE",
"616 337 OFFCURVE",
"587 308 OFFCURVE",
"566 308 QCURVE",
"396 308 OFFCURVE",
"102 302 QCURVE",
"81 302 OFFCURVE",
"51 330 OFFCURVE",
"51 372 OFFCURVE",
"79 402 OFFCURVE",
"100 402 QCURVE"
);
},
{
closed = 1;
nodes = (
"191 193 OFFCURVE",
"332 193 QCURVE",
"511 193 OFFCURVE",
"565 191 QCURVE",
"585 190 OFFCURVE",
"614 160 OFFCURVE",
"612 119 OFFCURVE",
"582 90 OFFCURVE",
"561 91 QCURVE",
"510 93 OFFCURVE",
"332 93 QCURVE",
"188 93 OFFCURVE",
"98 99 QCURVE",
"78 101 OFFCURVE",
"51 132 OFFCURVE",
"54 173 OFFCURVE",
"85 200 OFFCURVE",
"106 199 QCURVE"
);
}
);
width = 666;
},
{
layerId = "E9DB90EB-1A2C-4E35-923D-2CA62A497591";
paths = (
{
closed = 1;
nodes = (
"306 426 OFFCURVE",
"510 428 QCURVE",
"538 428 OFFCURVE",
"580 387 OFFCURVE",
"580 330 OFFCURVE",
"539 288 OFFCURVE",
"510 288 QCURVE",
"309 287 OFFCURVE",
"123 282 QCURVE",
"94 282 OFFCURVE",
"52 321 OFFCURVE",
"51 379 OFFCURVE",
"90 421 OFFCURVE",
"119 422 QCURVE"
);
},
{
closed = 1;
nodes = (
"199 214 OFFCURVE",
"332 214 QCURVE",
"464 213 OFFCURVE",
"519 211 QCURVE",
"547 210 OFFCURVE",
"587 167 OFFCURVE",
"585 110 OFFCURVE",
"542 70 OFFCURVE",
"513 71 QCURVE",
"454 73 OFFCURVE",
"325 74 QCURVE",
"191 75 OFFCURVE",
"118 79 QCURVE",
"89 81 OFFCURVE",
"51 124 OFFCURVE",
"54 182 OFFCURVE",
"97 220 OFFCURVE",
"126 219 QCURVE"
);
}
);
width = 666;
}
);
unicode = 003D;
},
{
glyphname = greater;
lastChange = "2019-10-09 22:50:45 +0000";
layers = (
{
layerId = UUID0;
paths = (
{
closed = 1;
nodes = (
"256 468 OFFCURVE",
"511 364 QCURVE",
"524 359 OFFCURVE",
"564 339 OFFCURVE",
"572 336 QCURVE",
"573 335 OFFCURVE",
"574 335 QCURVE",
"577 335 LINE",
"579 335 OFFCURVE",
"590 334 OFFCURVE",
"598 332 QCURVE",
"619 328 OFFCURVE",
"632 320 QCURVE",
"662 301 OFFCURVE",
"662 266 QCURVE",
"662 230 OFFCURVE",
"624 206 QCURVE",
"608 196 OFFCURVE",
"582 186 QCURVE",
"574 184 OFFCURVE",
"518 167 QCURVE",
"446 145 OFFCURVE",
"326 97 QCURVE",
"189 42 OFFCURVE",
"128 21 QCURVE",
"108 14 OFFCURVE",
"71 32 OFFCURVE",
"58 72 OFFCURVE",
"76 109 OFFCURVE",
"96 115 QCURVE",
"132 127 OFFCURVE",
"289 190 QCURVE",
"414 240 OFFCURVE",
"490 263 QCURVE",
"492 263 LINE",
"482 268 OFFCURVE",
"473 272 QCURVE",
"224 373 OFFCURVE",
"88 409 QCURVE",
"68 414 OFFCURVE",
"47 450 OFFCURVE",
"58 490 OFFCURVE",
"94 511 OFFCURVE",
"114 505 QCURVE"
);
}
);
width = 711;
},
{
layerId = "E9DB90EB-1A2C-4E35-923D-2CA62A497591";
paths = (
{
closed = 1;
nodes = (
"190 157 OFFCURVE",
"323 210 QCURVE",
"408 244 LINE",
"101 362 LINE",
"75 371 OFFCURVE",
"54 422 OFFCURVE",
"73 473 OFFCURVE",
"124 494 OFFCURVE",
"149 484 QCURVE",
"608 309 LINE",
"634 299 OFFCURVE",
"656 249 OFFCURVE",
"647 224 QCURVE",
"639 204 OFFCURVE",
"621 192 QCURVE",
"611 181 OFFCURVE",
"597 176 QCURVE",
"560 163 OFFCURVE",
"525 149 QCURVE",
"443 116 LINE",
"372 87 LINE",
"227 31 OFFCURVE",
"135 6 QCURVE",
"108 -1 OFFCURVE",
"61 27 OFFCURVE",
"47 80 OFFCURVE",
"75 127 OFFCURVE",
"101 134 QCURVE"
);
}
);
width = 711;
}
);
unicode = 003E;
},
{
glyphname = question;
lastChange = "2019-10-09 22:50:45 +0000";
layers = (
{
layerId = UUID0;
paths = (
{
closed = 1;
nodes = (
"59 511 OFFCURVE",
"58 517 QCURVE",
"55 531 OFFCURVE",
"55 532 QCURVE",
"51 559 OFFCURVE",
"57 580 QCURVE",
"70 629 OFFCURVE",
"143 696 OFFCURVE",
"229 723 OFFCURVE",
"275 722 QCURVE",
"321 722 OFFCURVE",
"407 694 OFFCURVE",
"480 628 OFFCURVE",
"495 582 QCURVE",
"522 493 OFFCURVE",
"437 403 QCURVE",
"430 394 OFFCURVE",
"420 384 QCURVE",
"398 364 LINE",
"386 353 OFFCURVE",
"380 347 QCURVE",
"353 320 OFFCURVE",
"343 303 QCURVE",
"330 279 OFFCURVE",
"327 265 QCURVE",
"326 259 OFFCURVE",
"325 246 QCURVE",
"322 218 OFFCURVE",
"322 212 QCURVE",
"320 191 OFFCURVE",
"287 165 OFFCURVE",
"246 169 OFFCURVE",
"220 202 OFFCURVE",
"222 222 QCURVE",
"223 228 OFFCURVE",
"225 254 QCURVE",
"227 273 OFFCURVE",
"229 284 QCURVE",
"235 314 OFFCURVE",
"257 353 QCURVE",
"273 381 OFFCURVE",
"310 418 QCURVE",
"313 420 OFFCURVE",
"334 440 QCURVE",
"365 471 LINE",
"409 519 OFFCURVE",
"399 552 QCURVE",
"390 582 OFFCURVE",
"322 622 OFFCURVE",
"227 623 OFFCURVE",
"162 585 OFFCURVE",
"153 554 QCURVE",
"154 547 LINE",
"154 545 OFFCURVE",
"154 542 QCURVE",
"156 538 LINE",
"156 535 OFFCURVE",
"156 534 QCURVE",
"158 523 OFFCURVE",
"159 515 QCURVE",
"160 494 OFFCURVE",
"133 463 OFFCURVE",
"92 460 OFFCURVE",
"61 487 OFFCURVE",
"59 507 QCURVE"
);
},
{
closed = 1;
nodes = (
"327 76 OFFCURVE",
"327 34 OFFCURVE",
"298 5 OFFCURVE",
"256 5 OFFCURVE",
"227 34 OFFCURVE",
"227 76 OFFCURVE",
"256 105 OFFCURVE",
"298 105 OFFCURVE",
"312 90 QCURVE"
);
}
);
width = 551;
},
{
layerId = "E9DB90EB-1A2C-4E35-923D-2CA62A497591";
paths = (
{
closed = 1;
nodes = (
"55 529 OFFCURVE",
"56 536 QCURVE",
"56 556 LINE",
"58 593 OFFCURVE",
"73 620 QCURVE",
"101 671 OFFCURVE",
"157 696 QCURVE",
"212 722 OFFCURVE",
"271 724 QCURVE",
"331 726 OFFCURVE",
"445 680 OFFCURVE",
"476 628 QCURVE",
"514 563 OFFCURVE",
"495 498 QCURVE",
"482 453 OFFCURVE",
"438 407 QCURVE",
"405 376 LINE",
"384 356 OFFCURVE",
"377 349 QCURVE",
"353 326 OFFCURVE",
"347 313 QCURVE",
"346 309 OFFCURVE",
"344 297 QCURVE",
"340 258 OFFCURVE",
"340 256 QCURVE",
"335 227 OFFCURVE",
"288 193 OFFCURVE",
"231 203 OFFCURVE",
"197 250 OFFCURVE",
"202 278 QCURVE",
"203 284 OFFCURVE",
"204 294 OFFCURVE",
"205 307 OFFCURVE",
"206 311 QCURVE",
"209 344 OFFCURVE",
"219 367 QCURVE",
"235 406 OFFCURVE",
"279 449 QCURVE",
"286 456 OFFCURVE",
"327 493 OFFCURVE",
"337 504 QCURVE",
"358 525 OFFCURVE",
"361 537 QCURVE",
"363 544 OFFCURVE",
"349 568 OFFCURVE",
"307 585 OFFCURVE",
"275 584 QCURVE",
"245 584 OFFCURVE",
"204 565 OFFCURVE",
"196 554 QCURVE",
"196 548 LINE",
"195 546 OFFCURVE",
"195 543 QCURVE",
"195 537 LINE",
"195 532 LINE",
"195 517 OFFCURVE",
"193 506 QCURVE",
"189 478 OFFCURVE",
"143 443 OFFCURVE",
"86 451 OFFCURVE",
"51 497 OFFCURVE",
"55 526 QCURVE"
);
},
{
closed = 1;
nodes = (
"340 102 OFFCURVE",
"340 44 OFFCURVE",
"299 3 OFFCURVE",
"241 3 OFFCURVE",
"200 44 OFFCURVE",
"200 102 OFFCURVE",
"241 143 OFFCURVE",
"299 143 OFFCURVE",
"319 122 QCURVE"
);
}
);
width = 551;
}
);
unicode = 003F;
},
{
glyphname = at;
lastChange = "2019-10-09 22:50:45 +0000";
layers = (
{
layerId = UUID0;
paths = (
{
closed = 1;
nodes = (
"506 530 OFFCURVE",
"442 506 OFFCURVE",
"411 475 QCURVE",
"374 440 OFFCURVE",
"345 362 OFFCURVE",
"355 337 QCURVE",
"363 319 OFFCURVE",
"380 299 OFFCURVE",
"390 296 OFFCURVE",
"396 296 QCURVE",
"426 296 OFFCURVE",
"462 336 QCURVE",
"492 368 OFFCURVE",
"500 388 QCURVE",
"503 394 OFFCURVE",
"520 458 QCURVE",
"520 461 LINE",
"520 470 LINE",
"520 477 OFFCURVE",
"521 487 QCURVE",
"522 508 OFFCURVE",
"529 522 QCURVE",
"530 523 OFFCURVE",
"531 525 QCURVE"
);
},
{
closed = 1;
nodes = (
"536 268 LINE",
"471 197 OFFCURVE",
"398 196 QCURVE",
"353 195 OFFCURVE",
"283 249 OFFCURVE",
"263 299 QCURVE",
"238 361 OFFCURVE",
"289 497 OFFCURVE",
"341 547 QCURVE",
"366 571 OFFCURVE",
"424 607 OFFCURVE",
"490 629 OFFCURVE",
"563 624 OFFCURVE",
"596 605 QCURVE",
"614 595 OFFCURVE",
"631 574 QCURVE",
"640 562 LINE",
"644 557 OFFCURVE",
"647 554 QCURVE",
"661 539 OFFCURVE",
"659 497 OFFCURVE",
"644 483 QCURVE",
"638 478 OFFCURVE",
"630 474 QCURVE",
"629 466 LINE",
"623 425 OFFCURVE",
"621 407 QCURVE",
"617 370 OFFCURVE",
"617 347 QCURVE",
"616 347 OFFCURVE",
"618 328 QCURVE",
"643 292 OFFCURVE",
"695 315 QCURVE",
"722 327 OFFCURVE",
"761 375 OFFCURVE",
"766 401 QCURVE",
"783 508 OFFCURVE",
"665 657 OFFCURVE",
"451 711 OFFCURVE",
"247 644 OFFCURVE",
"195 558 QCURVE",
"163 505 OFFCURVE",
"147 396 OFFCURVE",
"172 301 OFFCURVE",
"201 258 QCURVE",
"247 192 OFFCURVE",
"323 151 QCURVE",
"398 110 OFFCURVE",
"486 106 QCURVE",
"524 104 OFFCURVE",
"568 114 QCURVE",
"611 123 OFFCURVE",
"636 132 QCURVE",
"721 166 LINE",
"740 174 OFFCURVE",
"779 158 OFFCURVE",
"794 120 OFFCURVE",
"778 81 OFFCURVE",
"759 74 QCURVE",
"753 71 OFFCURVE",
"742 67 QCURVE",
"690 46 OFFCURVE",
"630 24 OFFCURVE",
"528 4 OFFCURVE",
"482 6 QCURVE",
"371 11 OFFCURVE",
"178 116 OFFCURVE",
"119 201 QCURVE",
"79 259 OFFCURVE",
"45 390 OFFCURVE",
"67 539 OFFCURVE",
"109 610 QCURVE",
"138 658 OFFCURVE",
"223 733 OFFCURVE",
"319 776 OFFCURVE",
"426 797 OFFCURVE",
"532 793 OFFCURVE",
"582 781 QCURVE",
"647 765 OFFCURVE",
"758 698 OFFCURVE",
"841 600 OFFCURVE",
"877 463 OFFCURVE",
"864 385 QCURVE",
"856 332 OFFCURVE",
"784 245 OFFCURVE",
"735 224 QCURVE",
"702 209 OFFCURVE",
"633 204 OFFCURVE",
"562 235 OFFCURVE",
"537 269 QCURVE"
);
}
);
width = 922;
},
{
layerId = "E9DB90EB-1A2C-4E35-923D-2CA62A497591";
paths = (
{
closed = 1;
nodes = (
"497 454 OFFCURVE",
"496 455 QCURVE",
"478 461 OFFCURVE",
"413 432 OFFCURVE",
"384 396 QCURVE",
"363 371 OFFCURVE",
"347 326 OFFCURVE",
"351 298 OFFCURVE",
"359 290 QCURVE",
"375 274 OFFCURVE",
"397 283 QCURVE",
"429 297 OFFCURVE",
"455 334 QCURVE",
"476 364 OFFCURVE",
"483 399 QCURVE",
"484 406 OFFCURVE",
"486 423 OFFCURVE",
"487 424 QCURVE",
"489 439 OFFCURVE",
"495 450 QCURVE",
"497 452 OFFCURVE",
"498 454 QCURVE"
);
},
{
closed = 1;
nodes = (
"477 196 OFFCURVE",
"441 180 QCURVE",
"415 169 OFFCURVE",
"362 165 OFFCURVE",
"303 187 OFFCURVE",
"279 212 QCURVE",
"251 241 OFFCURVE",
"232 313 OFFCURVE",
"247 382 OFFCURVE",
"276 441 OFFCURVE",
"297 467 QCURVE",
"342 521 OFFCURVE",
"473 583 OFFCURVE",
"536 559 QCURVE",
"558 551 OFFCURVE",
"583 531 QCURVE",
"585 529 OFFCURVE",
"604 513 OFFCURVE",
"610 509 QCURVE",
"629 495 OFFCURVE",
"637 450 OFFCURVE",
"624 431 QCURVE",
"616 420 OFFCURVE",
"606 414 QCURVE",
"606 413 LINE",
"606 401 OFFCURVE",
"603 383 QCURVE",
"602 380 OFFCURVE",
"598 364 QCURVE",
"593 337 LINE",
"589 304 OFFCURVE",
"600 298 QCURVE",
"626 283 OFFCURVE",
"695 309 OFFCURVE",
"707 338 QCURVE",
"711 347 OFFCURVE",
"712 394 QCURVE",
"714 473 OFFCURVE",
"609 580 OFFCURVE",
"519 598 QCURVE",
"430 616 OFFCURVE",
"344 592 QCURVE",
"259 567 OFFCURVE",
"214 509 QCURVE",
"175 458 OFFCURVE",
"162 338 OFFCURVE",
"207 233 OFFCURVE",
"303 146 OFFCURVE",
"367 127 QCURVE",
"414 110 OFFCURVE",
"524 114 OFFCURVE",
"618 138 OFFCURVE",
"676 163 QCURVE",
"698 172 OFFCURVE",
"741 154 OFFCURVE",
"759 111 OFFCURVE",
"741 68 OFFCURVE",
"720 59 QCURVE",
"672 39 OFFCURVE",
"586 13 OFFCURVE",
"487 -3 OFFCURVE",
"385 4 OFFCURVE",
"335 19 QCURVE",
"268 40 OFFCURVE",
"153 125 OFFCURVE",
"78 240 OFFCURVE",
"45 370 OFFCURVE",
"60 442 QCURVE",
"76 513 OFFCURVE",
"126 577 QCURVE",
"194 665 OFFCURVE",
"426 731 OFFCURVE",
"541 707 QCURVE",
"598 696 OFFCURVE",
"698 646 OFFCURVE",
"780 569 OFFCURVE",
"826 457 OFFCURVE",
"824 390 QCURVE",
"824 378 LINE",
"824 365 OFFCURVE",
"823 352 OFFCURVE",
"820 328 OFFCURVE",
"815 306 OFFCURVE",
"811 296 QCURVE",
"791 248 OFFCURVE",
"701 184 OFFCURVE",
"597 175 OFFCURVE",
"546 200 QCURVE",
"525 212 OFFCURVE",
"511 228 QCURVE"
);
}
);
width = 922;
}
);
unicode = 0040;
},
{
glyphname = A;
lastChange = "2019-10-09 22:50:45 +0000";
layers = (
{
layerId = UUID0;
paths = (
{
closed = 1;
nodes = (
"340 533 LINE",
"251 314 LINE",
"335 315 OFFCURVE",
"431 318 QCURVE"
);
},
{
closed = 1;
nodes = (
"641 70 LINE",
"649 50 OFFCURVE",
"633 11 OFFCURVE",
"594 -5 OFFCURVE",
"555 11 OFFCURVE",
"547 30 QCURVE",
"472 219 LINE",
"468 217 OFFCURVE",
"463 217 QCURVE",
"328 212 OFFCURVE",
"214 212 QCURVE",
"169 80 OFFCURVE",
"149 30 QCURVE",
"141 10 OFFCURVE",
"102 -6 OFFCURVE",
"63 10 OFFCURVE",
"47 49 OFFCURVE",
"55 68 QCURVE",
"75 117 OFFCURVE",
"140 307 OFFCURVE",
"154 342 QCURVE",
"161 362 OFFCURVE",
"211 484 QCURVE",
"258 604 OFFCURVE",
"284 679 QCURVE",
"291 699 OFFCURVE",
"328 718 OFFCURVE",
"348 711 QCURVE",
"357 708 OFFCURVE",
"364 702 QCURVE",
"384 695 OFFCURVE",
"392 675 QCURVE"
);
}
);
width = 675;
},
{
layerId = "E9DB90EB-1A2C-4E35-923D-2CA62A497591";
paths = (
{
closed = 1;
nodes = (
"354 460 LINE",
"302 331 LINE",
"340 331 OFFCURVE",
"407 333 QCURVE"
);
},
{
closed = 1;
nodes = (
"495 491 LINE",
"582 276 LINE",
"651 96 LINE",
"662 69 OFFCURVE",
"639 16 OFFCURVE",
"584 -6 OFFCURVE",
"530 17 OFFCURVE",
"519 43 QCURVE",
"463 195 LINE",
"294 191 OFFCURVE",
"245 190 QCURVE",
"190 41 LINE",
"178 15 OFFCURVE",
"124 -8 OFFCURVE",
"70 15 OFFCURVE",
"59 41 QCURVE",
"47 68 OFFCURVE",
"58 94 QCURVE",
"282 671 LINE",
"290 690 OFFCURVE",
"324 714 OFFCURVE",
"345 715 QCURVE",
"367 719 OFFCURVE",
"410 696 OFFCURVE",
"421 675 QCURVE"
);
}
);
width = 695;
}
);
unicode = 0041;
},
{
glyphname = B;
lastChange = "2019-10-09 22:50:45 +0000";
layers = (
{
layerId = UUID0;
paths = (
{
closed = 1;
nodes = (
"150 310 LINE",
"150 291 OFFCURVE",
"152 141 OFFCURVE",
"152 100 QCURVE",
"209 98 OFFCURVE",
"308 95 OFFCURVE",
"409 113 OFFCURVE",
"445 134 QCURVE",
"490 159 OFFCURVE",
"506 251 OFFCURVE",
"472 279 QCURVE",
"448 299 OFFCURVE",
"362 304 QCURVE",
"330 299 OFFCURVE",
"291 299 QCURVE",
"261 300 OFFCURVE",
"202 304 QCURVE",
"188 305 OFFCURVE",
"178 305 QCURVE",
"170 306 OFFCURVE",
"162 309 QCURVE"
);
},
{
closed = 1;
nodes = (
"386 409 OFFCURVE",
"403 420 QCURVE",
"442 443 OFFCURVE",
"452 543 OFFCURVE",
"419 571 QCURVE",
"382 602 OFFCURVE",
"291 610 QCURVE",
"237 614 OFFCURVE",
"147 609 QCURVE",
"151 559 OFFCURVE",
"150 411 QCURVE",
"153 411 LINE",
"192 406 OFFCURVE",
"209 404 QCURVE",
"219 404 OFFCURVE",
"256 405 QCURVE",
"318 406 OFFCURVE",
"351 404 QCURVE",
"357 404 LINE"
);
},
{
closed = 1;
nodes = (
"236 715 OFFCURVE",
"300 709 QCURVE",
"422 699 OFFCURVE",
"483 647 QCURVE",
"523 613 OFFCURVE",
"554 515 OFFCURVE",
"534 415 OFFCURVE",
"503 376 QCURVE",
"522 367 OFFCURVE",
"536 355 QCURVE",
"577 321 OFFCURVE",
"607 228 OFFCURVE",
"586 143 OFFCURVE",
"532 68 OFFCURVE",
"495 46 QCURVE",
"465 30 OFFCURVE",
"391 8 OFFCURVE",
"328 -2 OFFCURVE",
"241 -4 OFFCURVE",
"191 -2 OFFCURVE",
"103 2 OFFCURVE",
"89 3 QCURVE",
"68 4 OFFCURVE",
"40 34 OFFCURVE",
"41 55 QCURVE",
"42 71 OFFCURVE",
"52 84 QCURVE",
"52 133 OFFCURVE",
"50 338 OFFCURVE",
"50 391 QCURVE",
"50 409 OFFCURVE",
"51 506 OFFCURVE",
"50 551 OFFCURVE",
"46 624 OFFCURVE",
"42 653 QCURVE",
"38 674 OFFCURVE",
"63 707 OFFCURVE",
"83 710 QCURVE",
"99 713 OFFCURVE",
"113 706 QCURVE",
"118 708 OFFCURVE",
"124 708 QCURVE"
);
}
);
width = 603;
},
{
layerId = "E9DB90EB-1A2C-4E35-923D-2CA62A497591";
paths = (
{
closed = 1;
nodes = (
"198 512 OFFCURVE",
"200 440 QCURVE",
"290 430 OFFCURVE",
"342 434 QCURVE",
"420 441 OFFCURVE",
"434 474 QCURVE",
"446 501 OFFCURVE",
"443 517 QCURVE",
"441 528 OFFCURVE",
"427 540 QCURVE",
"387 569 OFFCURVE",
"307 574 QCURVE",
"274 576 OFFCURVE",
"227 574 QCURVE",
"215 574 OFFCURVE",
"195 573 QCURVE"
);
},
{
closed = 1;
nodes = (
"199 146 OFFCURVE",
"199 137 QCURVE",
"218 136 OFFCURVE",
"229 135 QCURVE",
"287 133 OFFCURVE",
"326 134 QCURVE",
"426 138 OFFCURVE",
"477 175 QCURVE",
"500 191 OFFCURVE",
"507 211 OFFCURVE",
"500 237 QCURVE",
"491 275 OFFCURVE",
"410 284 QCURVE",
"373 289 OFFCURVE",
"312 287 QCURVE",
"227 286 OFFCURVE",
"214 286 QCURVE",
"200 288 LINE"
);
},
{
closed = 1;
nodes = (
"156 715 OFFCURVE",
"211 717 OFFCURVE",
"222 718 QCURVE",
"276 720 OFFCURVE",
"315 717 QCURVE",
"436 710 OFFCURVE",
"508 656 QCURVE",
"569 610 OFFCURVE",
"580 541 QCURVE",
"589 484 OFFCURVE",
"561 416 QCURVE",
"553 397 OFFCURVE",
"540 389 QCURVE",
"614 350 OFFCURVE",
"635 271 QCURVE",
"653 202 OFFCURVE",
"633 152 QCURVE",
"614 103 OFFCURVE",
"557 62 QCURVE",
"473 3 OFFCURVE",
"332 -3 QCURVE",
"286 -5 OFFCURVE",
"222 -2 QCURVE",
"212 -2 OFFCURVE",
"154 1 OFFCURVE",
"139 2 QCURVE",
"135 1 OFFCURVE",
"131 1 QCURVE",
"113 1 OFFCURVE",
"99 9 QCURVE",
"81 18 OFFCURVE",
"59 52 OFFCURVE",
"59 73 QCURVE",
"59 80 OFFCURVE",
"61 87 QCURVE",
"61 134 OFFCURVE",
"63 374 OFFCURVE",
"59 543 OFFCURVE",
"52 628 QCURVE",
"50 656 OFFCURVE",
"82 699 OFFCURVE",
"108 704 QCURVE",
"123 714 OFFCURVE",
"142 715 QCURVE"
);
}
);
width = 703;
}
);
unicode = 0042;
},
{
glyphname = C;
lastChange = "2019-10-09 22:50:45 +0000";
layers = (
{
layerId = UUID0;
paths = (
{
closed = 1;
nodes = (
"560 544 OFFCURVE",
"551 555 QCURVE",
"538 569 OFFCURVE",
"500 599 OFFCURVE",
"480 607 QCURVE",
"437 625 OFFCURVE",
"352 618 OFFCURVE",
"273 586 OFFCURVE",
"208 525 OFFCURVE",
"164 452 OFFCURVE",
"146 361 OFFCURVE",
"153 316 QCURVE",
"163 261 OFFCURVE",
"221 155 OFFCURVE",
"259 130 QCURVE",
"289 111 OFFCURVE",
"380 90 OFFCURVE",
"426 94 QCURVE",
"527 101 OFFCURVE",
"560 160 QCURVE",
"566 170 OFFCURVE",
"569 180 QCURVE",
"577 206 LINE",
"587 238 LINE",
"594 257 OFFCURVE",
"631 275 OFFCURVE",
"670 261 OFFCURVE",
"688 224 OFFCURVE",
"681 204 QCURVE",
"680 201 OFFCURVE",
"669 162 OFFCURVE",
"655 125 OFFCURVE",
"648 112 QCURVE",
"616 56 OFFCURVE",
"501 -1 OFFCURVE",
"433 -6 QCURVE",
"372 -10 OFFCURVE",
"311 3 QCURVE",
"249 17 OFFCURVE",
"205 46 QCURVE",
"145 85 OFFCURVE",
"67 228 OFFCURVE",
"55 300 QCURVE",
"45 359 OFFCURVE",
"69 483 OFFCURVE",
"129 586 OFFCURVE",
"218 673 OFFCURVE",
"328 718 OFFCURVE",
"452 727 OFFCURVE",
"516 701 QCURVE",
"542 691 OFFCURVE",
"585 663 OFFCURVE",
"627 619 OFFCURVE",
"636 609 QCURVE",
"666 572 LINE",
"679 556 OFFCURVE",
"674 515 OFFCURVE",
"642 489 OFFCURVE",
"601 494 OFFCURVE",
"588 510 QCURVE"
);
}
);
width = 737;
},
{
layerId = "E9DB90EB-1A2C-4E35-923D-2CA62A497591";
paths = (
{
closed = 1;
nodes = (
"540 496 OFFCURVE",
"514 528 OFFCURVE",
"504 539 OFFCURVE",
"487 554 OFFCURVE",
"472 562 OFFCURVE",
"460 567 QCURVE",
"413 586 OFFCURVE",
"349 568 QCURVE",
"260 543 OFFCURVE",
"178 386 OFFCURVE",
"201 294 QCURVE",
"220 219 OFFCURVE",
"268 178 QCURVE",
"291 158 OFFCURVE",
"368 134 OFFCURVE",
"409 135 QCURVE",
"493 138 OFFCURVE",
"525 187 QCURVE",
"528 192 OFFCURVE",
"532 206 QCURVE",
"543 248 OFFCURVE",
"544 250 QCURVE",
"553 275 OFFCURVE",
"606 301 OFFCURVE",
"660 283 OFFCURVE",
"686 233 OFFCURVE",
"677 206 QCURVE",
"675 200 OFFCURVE",
"672 189 OFFCURVE",
"670 182 QCURVE",
"668 171 LINE",
"658 137 OFFCURVE",
"644 114 QCURVE",
"607 57 OFFCURVE",
"482 1 OFFCURVE",
"413 -1 QCURVE",
"347 -3 OFFCURVE",
"221 35 OFFCURVE",
"176 74 QCURVE",
"94 144 OFFCURVE",
"64 261 QCURVE",
"45 330 OFFCURVE",
"65 476 OFFCURVE",
"126 592 OFFCURVE",
"237 679 OFFCURVE",
"309 699 QCURVE",
"420 731 OFFCURVE",
"512 694 QCURVE",
"535 685 OFFCURVE",
"573 663 OFFCURVE",
"590 648 QCURVE",
"614 625 LINE",
"623 617 OFFCURVE",
"638 599 QCURVE",
"657 574 LINE",
"676 552 OFFCURVE",
"671 496 OFFCURVE",
"627 459 OFFCURVE",
"569 464 OFFCURVE",
"550 485 QCURVE"
);
}
);
width = 737;
}
);
unicode = 0043;
},
{
glyphname = D;
lastChange = "2019-10-09 22:50:45 +0000";
layers = (
{
layerId = UUID0;
paths = (
{
closed = 1;
nodes = (
"206 99 LINE",
"265 99 OFFCURVE",
"298 102 QCURVE",
"395 109 OFFCURVE",
"447 150 QCURVE",
"491 185 OFFCURVE",
"544 302 OFFCURVE",
"546 368 QCURVE",
"549 434 OFFCURVE",
"526 490 QCURVE",
"502 547 OFFCURVE",
"456 580 QCURVE",
"419 607 OFFCURVE",
"368 619 QCURVE",
"316 631 OFFCURVE",
"212 628 OFFCURVE",
"152 623 QCURVE",
"151 594 OFFCURVE",
"154 518 QCURVE",
"158 409 OFFCURVE",
"157 365 QCURVE",
"157 335 OFFCURVE",
"155 228 OFFCURVE",
"153 138 OFFCURVE",
"153 99 QCURVE"
);
},
{
closed = 1;
nodes = (
"174 726 OFFCURVE",
"228 729 OFFCURVE",
"326 729 OFFCURVE",
"396 716 OFFCURVE",
"481 686 OFFCURVE",
"514 662 QCURVE",
"584 611 OFFCURVE",
"649 452 OFFCURVE",
"646 364 QCURVE",
"643 279 OFFCURVE",
"608 200 QCURVE",
"572 122 OFFCURVE",
"509 72 QCURVE",
"434 12 OFFCURVE",
"306 2 QCURVE",
"268 -1 OFFCURVE",
"206 -1 QCURVE",
"139 -1 OFFCURVE",
"115 -2 QCURVE",
"100 -3 OFFCURVE",
"87 5 QCURVE",
"71 10 OFFCURVE",
"52 37 OFFCURVE",
"52 54 QCURVE",
"52 86 OFFCURVE",
"57 367 QCURVE",
"58 413 OFFCURVE",
"54 514 QCURVE",
"50 613 OFFCURVE",
"53 668 QCURVE",
"54 689 OFFCURVE",
"85 717 OFFCURVE",
"105 716 QCURVE",
"109 716 LINE",
"118 721 OFFCURVE",
"128 722 QCURVE"
);
}
);
width = 693;
},
{
layerId = "E9DB90EB-1A2C-4E35-923D-2CA62A497591";
paths = (
{
closed = 1;
nodes = (
"242 138 OFFCURVE",
"271 139 QCURVE",
"345 142 OFFCURVE",
"381 159 QCURVE",
"441 188 OFFCURVE",
"505 324 OFFCURVE",
"487 491 OFFCURVE",
"439 535 QCURVE",
"400 570 OFFCURVE",
"281 588 OFFCURVE",
"192 581 QCURVE",
"191 486 OFFCURVE",
"191 384 OFFCURVE",
"193 184 OFFCURVE",
"193 138 QCURVE"
);
},
{
closed = 1;
nodes = (
"184 720 OFFCURVE",
"221 722 OFFCURVE",
"306 725 OFFCURVE",
"365 715 OFFCURVE",
"440 698 OFFCURVE",
"506 662 OFFCURVE",
"533 637 QCURVE",
"585 590 OFFCURVE",
"638 458 OFFCURVE",
"636 303 OFFCURVE",
"593 172 OFFCURVE",
"503 65 OFFCURVE",
"443 35 QCURVE",
"380 5 OFFCURVE",
"277 0 QCURVE",
"256 -1 OFFCURVE",
"148 0 OFFCURVE",
"134 0 QCURVE",
"127 0 OFFCURVE",
"121 1 QCURVE",
"93 2 OFFCURVE",
"53 43 OFFCURVE",
"53 71 QCURVE",
"54 116 OFFCURVE",
"50 601 OFFCURVE",
"54 647 QCURVE",
"55 674 OFFCURVE",
"98 714 OFFCURVE",
"127 713 QCURVE",
"136 716 OFFCURVE",
"145 716 QCURVE"
);
}
);
width = 693;
}
);
unicode = 0044;
},
{
glyphname = E;
lastChange = "2019-10-09 22:50:45 +0000";
layers = (
{
layerId = UUID0;
paths = (
{
closed = 1;
nodes = (
"204 714 OFFCURVE",
"479 716 OFFCURVE",
"529 716 QCURVE",
"550 716 OFFCURVE",
"579 687 OFFCURVE",
"579 645 OFFCURVE",
"550 616 OFFCURVE",
"529 616 QCURVE",
"476 616 OFFCURVE",
"225 614 OFFCURVE",
"157 613 QCURVE",
"154 599 OFFCURVE",
"157 474 OFFCURVE",
"157 450 QCURVE",
"157 409 LINE",
"206 412 OFFCURVE",
"317 412 OFFCURVE",
"458 410 OFFCURVE",
"492 410 QCURVE",
"513 410 OFFCURVE",
"542 381 OFFCURVE",
"542 339 OFFCURVE",
"513 310 OFFCURVE",
"492 310 QCURVE",
"457 310 OFFCURVE",
"316 312 OFFCURVE",
"206 312 OFFCURVE",
"156 309 QCURVE",
"156 167 OFFCURVE",
"155 106 QCURVE",
"399 102 OFFCURVE",
"532 104 QCURVE",
"553 104 OFFCURVE",
"583 76 OFFCURVE",
"583 34 OFFCURVE",
"555 4 OFFCURVE",
"534 4 QCURVE",
"399 2 OFFCURVE",
"109 7 QCURVE",
"89 7 OFFCURVE",
"60 37 OFFCURVE",
"60 57 QCURVE",
"54 69 OFFCURVE",
"54 82 QCURVE",
"56 150 OFFCURVE",
"56 406 OFFCURVE",
"57 452 QCURVE",
"57 469 OFFCURVE",
"55 554 OFFCURVE",
"57 627 OFFCURVE",
"62 659 QCURVE",
"64 673 OFFCURVE",
"84 695 OFFCURVE",
"98 699 QCURVE",
"111 711 OFFCURVE",
"130 712 QCURVE"
);
}
);
width = 637;
},
{
layerId = "E9DB90EB-1A2C-4E35-923D-2CA62A497591";
paths = (
{
closed = 1;
nodes = (
"207 717 OFFCURVE",
"455 716 OFFCURVE",
"528 717 QCURVE",
"557 717 OFFCURVE",
"598 677 OFFCURVE",
"598 620 OFFCURVE",
"559 579 OFFCURVE",
"530 579 QCURVE",
"474 579 OFFCURVE",
"252 580 OFFCURVE",
"196 579 QCURVE",
"193 518 OFFCURVE",
"192 435 QCURVE",
"240 436 OFFCURVE",
"488 436 QCURVE",
"517 436 OFFCURVE",
"558 396 OFFCURVE",
"558 339 OFFCURVE",
"517 298 OFFCURVE",
"488 298 QCURVE",
"239 298 OFFCURVE",
"193 297 QCURVE",
"195 185 OFFCURVE",
"194 139 QCURVE",
"397 137 OFFCURVE",
"533 137 QCURVE",
"562 137 OFFCURVE",
"602 97 OFFCURVE",
"602 39 OFFCURVE",
"562 -1 OFFCURVE",
"533 -1 QCURVE",
"385 -1 OFFCURVE",
"129 2 QCURVE",
"109 2 OFFCURVE",
"76 25 OFFCURVE",
"68 42 QCURVE",
"56 60 OFFCURVE",
"56 81 QCURVE",
"57 116 OFFCURVE",
"55 363 QCURVE",
"54 543 OFFCURVE",
"64 646 QCURVE",
"65 659 OFFCURVE",
"70 670 QCURVE",
"78 690 OFFCURVE",
"112 715 OFFCURVE",
"134 716 QCURVE"
);
}
);
width = 637;
}
);
unicode = 0045;
},
{
glyphname = F;
lastChange = "2019-10-09 22:50:45 +0000";
layers = (
{
layerId = UUID0;
paths = (
{
closed = 1;
nodes = (
"377 719 OFFCURVE",
"506 714 QCURVE",
"527 713 OFFCURVE",
"555 683 OFFCURVE",
"553 641 OFFCURVE",
"523 613 OFFCURVE",
"502 614 QCURVE",
"376 619 OFFCURVE",
"152 615 QCURVE",
"158 521 OFFCURVE",
"159 408 QCURVE",
"225 408 OFFCURVE",
"456 411 QCURVE",
"477 411 OFFCURVE",
"507 382 OFFCURVE",
"507 341 OFFCURVE",
"478 311 OFFCURVE",
"458 311 QCURVE",
"226 308 OFFCURVE",
"159 308 QCURVE",
"159 275 OFFCURVE",
"157 96 OFFCURVE",
"157 48 QCURVE",
"157 27 OFFCURVE",
"128 -2 OFFCURVE",
"86 -2 OFFCURVE",
"57 27 OFFCURVE",
"57 48 QCURVE",
"57 87 OFFCURVE",
"60 369 OFFCURVE",
"57 550 OFFCURVE",
"50 644 QCURVE",
"50 650 OFFCURVE",
"51 656 QCURVE",
"50 660 OFFCURVE",
"50 663 QCURVE",
"50 684 OFFCURVE",
"78 714 OFFCURVE",
"99 714 QCURVE"
);
}
);
width = 542;
},
{
layerId = "E9DB90EB-1A2C-4E35-923D-2CA62A497591";
paths = (
{
closed = 1;
nodes = (
"261 720 OFFCURVE",
"495 718 QCURVE",
"523 718 OFFCURVE",
"544 697 QCURVE",
"564 676 OFFCURVE",
"564 619 OFFCURVE",
"522 578 OFFCURVE",
"493 578 QCURVE",
"307 580 OFFCURVE",
"193 579 QCURVE",
"195 515 OFFCURVE",
"196 445 QCURVE",
"337 445 OFFCURVE",
"456 448 QCURVE",
"485 448 OFFCURVE",
"527 408 OFFCURVE",
"528 351 OFFCURVE",
"488 309 OFFCURVE",
"460 308 QCURVE",
"340 306 OFFCURVE",
"197 305 QCURVE",
"197 174 LINE",
"197 70 LINE",
"197 41 OFFCURVE",
"156 0 OFFCURVE",
"98 0 OFFCURVE",
"57 41 OFFCURVE",
"57 70 QCURVE",
"57 91 OFFCURVE",
"58 326 OFFCURVE",
"57 412 OFFCURVE",
"54 579 OFFCURVE",
"51 645 QCURVE",
"50 674 OFFCURVE",
"89 716 OFFCURVE",
"118 718 QCURVE",
"122 718 LINE",
"123 718 LINE"
);
}
);
width = 614;
}
);
unicode = 0046;
},
{
glyphname = G;
lastChange = "2019-10-09 22:50:45 +0000";
layers = (
{
layerId = UUID0;
paths = (
{
closed = 1;
nodes = (
"511 395 OFFCURVE",
"624 395 QCURVE",
"645 395 OFFCURVE",
"674 366 OFFCURVE",
"674 345 QCURVE",
"674 338 LINE",
"691 232 OFFCURVE",
"574 44 OFFCURVE",
"469 12 QCURVE",
"367 -19 OFFCURVE",
"135 85 OFFCURVE",
"81 175 QCURVE",
"42 241 OFFCURVE",
"23 386 OFFCURVE",
"57 494 OFFCURVE",
"130 606 OFFCURVE",
"180 646 QCURVE",
"234 687 OFFCURVE",
"359 722 OFFCURVE",
"490 705 OFFCURVE",
"623 615 OFFCURVE",
"677 536 QCURVE",
"689 519 OFFCURVE",
"681 479 OFFCURVE",
"647 455 OFFCURVE",
"607 463 OFFCURVE",
"595 480 QCURVE",
"553 541 OFFCURVE",
"456 609 OFFCURVE",
"363 620 OFFCURVE",
"321 608 QCURVE",
"280 595 OFFCURVE",
"242 566 QCURVE",
"190 525 OFFCURVE",
"160 468 QCURVE",
"130 419 OFFCURVE",
"130 289 OFFCURVE",
"167 227 QCURVE",
"205 163 OFFCURVE",
"374 88 OFFCURVE",
"441 108 QCURVE",
"502 126 OFFCURVE",
"578 232 OFFCURVE",
"577 295 QCURVE",
"490 294 OFFCURVE",
"390 289 QCURVE",
"370 288 OFFCURVE",
"339 316 OFFCURVE",
"337 357 OFFCURVE",
"365 388 OFFCURVE",
"386 389 QCURVE"
);
}
);
width = 734;
},
{
layerId = "E9DB90EB-1A2C-4E35-923D-2CA62A497591";
paths = (
{
closed = 1;
nodes = (
"526 392 OFFCURVE",
"628 392 QCURVE",
"657 392 OFFCURVE",
"678 371 QCURVE",
"700 350 OFFCURVE",
"699 319 QCURVE",
"699 296 LINE",
"700 272 OFFCURVE",
"697 225 OFFCURVE",
"693 207 QCURVE",
"681 162 OFFCURVE",
"642 115 QCURVE",
"594 57 OFFCURVE",
"468 -2 OFFCURVE",
"340 -1 OFFCURVE",
"216 43 OFFCURVE",
"114 133 OFFCURVE",
"84 192 QCURVE",
"46 265 OFFCURVE",
"44 424 OFFCURVE",
"73 490 QCURVE",
"101 557 OFFCURVE",
"153 609 QCURVE",
"206 663 OFFCURVE",
"271 691 QCURVE",
"337 720 OFFCURVE",
"497 714 OFFCURVE",
"571 670 QCURVE",
"591 660 OFFCURVE",
"622 635 OFFCURVE",
"650 605 OFFCURVE",
"664 588 OFFCURVE",
"692 550 OFFCURVE",
"696 545 QCURVE",
"713 522 OFFCURVE",
"705 465 OFFCURVE",
"659 431 OFFCURVE",
"603 439 OFFCURVE",
"585 462 QCURVE",
"565 488 LINE",
"549 510 LINE",
"545 516 OFFCURVE",
"528 534 OFFCURVE",
"513 545 OFFCURVE",
"502 552 QCURVE",
"432 588 OFFCURVE",
"302 565 OFFCURVE",
"252 513 QCURVE",
"200 461 OFFCURVE",
"174 324 OFFCURVE",
"206 256 QCURVE",
"239 191 OFFCURVE",
"362 129 OFFCURVE",
"492 152 OFFCURVE",
"535 204 QCURVE",
"555 227 OFFCURVE",
"558 241 QCURVE",
"560 248 OFFCURVE",
"561 254 QCURVE",
"532 255 OFFCURVE",
"451 251 QCURVE",
"422 250 OFFCURVE",
"380 288 OFFCURVE",
"378 346 OFFCURVE",
"416 388 OFFCURVE",
"445 389 QCURVE"
);
}
);
width = 762;
}
);
unicode = 0047;
},
{
glyphname = H;
lastChange = "2019-10-09 22:50:45 +0000";
layers = (
{
layerId = UUID0;
paths = (
{
closed = 1;
nodes = (
"601 543 OFFCURVE",
"600 461 QCURVE",
"600 362 OFFCURVE",
"605 115 OFFCURVE",
"605 50 QCURVE",
"605 29 OFFCURVE",
"576 0 OFFCURVE",
"534 0 OFFCURVE",
"505 29 OFFCURVE",
"505 50 QCURVE",
"505 85 OFFCURVE",
"502 318 QCURVE",
"394 319 OFFCURVE",
"157 311 QCURVE",
"161 142 OFFCURVE",
"159 49 QCURVE",
"159 28 OFFCURVE",
"129 0 OFFCURVE",
"87 0 OFFCURVE",
"59 30 OFFCURVE",
"59 51 QCURVE",
"61 143 OFFCURVE",
"51 550 OFFCURVE",
"55 668 QCURVE",
"56 688 OFFCURVE",
"86 717 OFFCURVE",
"127 715 OFFCURVE",
"156 685 OFFCURVE",
"155 664 QCURVE",
"152 557 OFFCURVE",
"155 411 QCURVE",
"391 419 OFFCURVE",
"501 418 QCURVE",
"500 554 OFFCURVE",
"506 666 QCURVE",
"507 687 OFFCURVE",
"538 714 OFFCURVE",
"580 712 OFFCURVE",
"607 681 OFFCURVE",
"606 660 QCURVE"
);
}
);
width = 660;
},
{
layerId = "E9DB90EB-1A2C-4E35-923D-2CA62A497591";
paths = (
{
closed = 1;
nodes = (
"642 582 OFFCURVE",
"642 69 QCURVE",
"642 40 OFFCURVE",
"601 -1 OFFCURVE",
"543 -1 OFFCURVE",
"502 40 OFFCURVE",
"502 69 QCURVE",
"502 320 LINE",
"398 321 OFFCURVE",
"193 314 QCURVE",
"195 150 OFFCURVE",
"195 69 QCURVE",
"195 41 OFFCURVE",
"153 0 OFFCURVE",
"96 0 OFFCURVE",
"55 42 OFFCURVE",
"55 71 QCURVE",
"56 148 OFFCURVE",
"50 555 OFFCURVE",
"52 650 QCURVE",
"53 679 OFFCURVE",
"95 718 OFFCURVE",
"153 717 OFFCURVE",
"192 675 OFFCURVE",
"192 646 QCURVE",
"190 570 OFFCURVE",
"191 454 QCURVE",
"396 460 OFFCURVE",
"502 460 QCURVE",
"502 570 OFFCURVE",
"503 649 QCURVE",
"504 678 OFFCURVE",
"545 718 OFFCURVE",
"603 717 OFFCURVE",
"643 676 OFFCURVE",
"643 647 QCURVE"
);
}
);
width = 693;
}
);
unicode = 0048;
},
{
glyphname = I;
lastChange = "2019-10-09 22:50:45 +0000";
layers = (
{
layerId = UUID0;
paths = (
{
closed = 1;
nodes = (
"155 715 OFFCURVE",
"228 714 QCURVE",
"248 714 OFFCURVE",
"277 684 OFFCURVE",
"277 643 OFFCURVE",
"247 614 OFFCURVE",
"226 614 QCURVE",
"218 614 LINE",
"220 409 OFFCURVE",
"220 100 QCURVE",
"240 100 LINE",
"261 100 OFFCURVE",
"290 71 OFFCURVE",
"290 29 OFFCURVE",
"261 0 OFFCURVE",
"240 0 QCURVE",
"163 0 OFFCURVE",
"102 -2 QCURVE",
"81 -3 OFFCURVE",
"51 26 OFFCURVE",
"49 67 OFFCURVE",
"78 97 OFFCURVE",
"98 98 QCURVE",
"120 99 LINE",
"120 410 OFFCURVE",
"118 616 QCURVE",
"102 616 LINE",
"81 616 OFFCURVE",
"53 646 OFFCURVE",
"53 688 OFFCURVE",
"83 716 OFFCURVE",
"104 716 QCURVE"
);
}
);
width = 339;
},
{
layerId = "E9DB90EB-1A2C-4E35-923D-2CA62A497591";
paths = (
{
closed = 1;
nodes = (
"235 714 LINE",
"264 714 OFFCURVE",
"304 672 OFFCURVE",
"304 643 QCURVE",
"304 618 OFFCURVE",
"271 580 OFFCURVE",
"246 575 QCURVE",
"249 312 OFFCURVE",
"248 139 QCURVE",
"273 135 OFFCURVE",
"306 97 OFFCURVE",
"307 72 QCURVE",
"307 43 OFFCURVE",
"268 1 OFFCURVE",
"239 0 QCURVE",
"122 -3 LINE",
"93 -3 OFFCURVE",
"51 36 OFFCURVE",
"50 65 QCURVE",
"50 91 OFFCURVE",
"83 132 OFFCURVE",
"108 136 QCURVE",
"109 310 OFFCURVE",
"107 577 QCURVE",
"83 582 OFFCURVE",
"51 620 OFFCURVE",
"51 646 QCURVE",
"51 675 OFFCURVE",
"93 715 OFFCURVE",
"122 715 QCURVE"
);
}
);
width = 357;
}
);
unicode = 0049;
},
{
glyphname = J;
lastChange = "2019-10-09 22:50:45 +0000";
layers = (
{
layerId = UUID0;
paths = (
{
closed = 1;
nodes = (
"466 717 OFFCURVE",
"530 715 QCURVE",
"550 714 OFFCURVE",
"579 684 OFFCURVE",
"577 643 OFFCURVE",
"547 614 OFFCURVE",
"526 615 QCURVE",
"463 617 LINE",
"488 265 OFFCURVE",
"434 125 QCURVE",
"413 73 OFFCURVE",
"319 9 OFFCURVE",
"264 2 QCURVE",
"206 -5 OFFCURVE",
"100 42 OFFCURVE",
"74 99 QCURVE",
"68 111 OFFCURVE",
"59 146 OFFCURVE",
"54 180 OFFCURVE",
"53 181 QCURVE",
"49 201 OFFCURVE",
"70 236 OFFCURVE",
"111 245 OFFCURVE",
"146 224 OFFCURVE",
"151 203 QCURVE",
"154 188 OFFCURVE",
"158 162 OFFCURVE",
"161 149 OFFCURVE",
"164 141 QCURVE",
"175 119 OFFCURVE",
"221 97 OFFCURVE",
"283 105 OFFCURVE",
"332 139 OFFCURVE",
"340 161 QCURVE",
"360 212 OFFCURVE",
"374 377 OFFCURVE",
"369 514 OFFCURVE",
"363 616 QCURVE",
"318 615 OFFCURVE",
"276 612 QCURVE",
"255 611 OFFCURVE",
"224 638 OFFCURVE",
"221 679 OFFCURVE",
"248 710 OFFCURVE",
"268 712 QCURVE",
"334 716 OFFCURVE",
"406 717 QCURVE",
"412 717 LINE"
);
}
);
width = 630;
},
{
layerId = "E9DB90EB-1A2C-4E35-923D-2CA62A497591";
paths = (
{
closed = 1;
nodes = (
"435 721 OFFCURVE",
"532 716 QCURVE",
"561 714 OFFCURVE",
"599 671 OFFCURVE",
"596 613 OFFCURVE",
"553 575 OFFCURVE",
"524 576 QCURVE",
"500 578 OFFCURVE",
"476 578 QCURVE",
"482 490 OFFCURVE",
"486 387 OFFCURVE",
"480 316 QCURVE",
"474 234 OFFCURVE",
"456 171 QCURVE",
"441 118 OFFCURVE",
"364 32 OFFCURVE",
"314 13 QCURVE",
"275 -1 OFFCURVE",
"200 -1 OFFCURVE",
"124 42 OFFCURVE",
"96 82 QCURVE",
"79 107 OFFCURVE",
"69 146 QCURVE",
"69 147 OFFCURVE",
"63 170 QCURVE",
"61 181 OFFCURVE",
"59 187 QCURVE",
"50 215 OFFCURVE",
"76 266 OFFCURVE",
"131 284 OFFCURVE",
"182 258 OFFCURVE",
"191 231 QCURVE",
"195 219 OFFCURVE",
"199 203 QCURVE",
"199 202 OFFCURVE",
"201 194 QCURVE",
"204 181 LINE",
"208 165 OFFCURVE",
"212 160 QCURVE",
"232 130 OFFCURVE",
"262 142 QCURVE",
"282 150 OFFCURVE",
"316 187 OFFCURVE",
"322 209 QCURVE",
"334 251 OFFCURVE",
"346 337 OFFCURVE",
"344 444 OFFCURVE",
"341 503 OFFCURVE",
"336 578 QCURVE",
"315 577 OFFCURVE",
"258 575 OFFCURVE",
"215 615 OFFCURVE",
"213 672 OFFCURVE",
"253 715 OFFCURVE",
"281 716 QCURVE"
);
}
);
width = 649;
}
);
unicode = 004A;
},
{
glyphname = K;
lastChange = "2019-10-09 22:50:45 +0000";
layers = (
{
layerId = UUID0;
paths = (
{
closed = 1;
nodes = (
"155 616 OFFCURVE",
"163 456 OFFCURVE",
"163 430 QCURVE",
"163 408 OFFCURVE",
"164 383 QCURVE",
"321 514 OFFCURVE",
"490 698 QCURVE",
"504 713 OFFCURVE",
"546 715 OFFCURVE",
"576 687 OFFCURVE",
"578 645 OFFCURVE",
"564 630 QCURVE",
"452 506 OFFCURVE",
"343 407 QCURVE",
"600 80 LINE",
"613 64 OFFCURVE",
"608 23 OFFCURVE",
"576 -3 OFFCURVE",
"535 2 OFFCURVE",
"522 18 QCURVE",
"268 341 LINE",
"164 255 LINE",
"165 138 OFFCURVE",
"169 52 QCURVE",
"170 31 OFFCURVE",
"143 0 OFFCURVE",
"101 -2 OFFCURVE",
"70 25 OFFCURVE",
"69 46 QCURVE",
"66 106 OFFCURVE",
"65 164 QCURVE",
"64 236 OFFCURVE",
"64 386 OFFCURVE",
"63 428 QCURVE",
"63 454 OFFCURVE",
"55 617 OFFCURVE",
"56 666 QCURVE",
"56 687 OFFCURVE",
"86 715 OFFCURVE",
"128 715 OFFCURVE",
"156 685 OFFCURVE",
"156 664 QCURVE"
);
}
);
width = 663;
},
{
layerId = "E9DB90EB-1A2C-4E35-923D-2CA62A497591";
paths = (
{
closed = 1;
nodes = (
"192 530 OFFCURVE",
"194 418 QCURVE",
"351 552 OFFCURVE",
"485 703 QCURVE",
"505 724 OFFCURVE",
"562 726 OFFCURVE",
"605 686 OFFCURVE",
"607 629 OFFCURVE",
"587 607 QCURVE",
"489 495 OFFCURVE",
"387 402 QCURVE",
"617 106 LINE",
"635 84 OFFCURVE",
"631 55 QCURVE",
"628 26 OFFCURVE",
"583 -10 OFFCURVE",
"525 -3 OFFCURVE",
"507 20 QCURVE",
"282 309 LINE",
"198 240 LINE",
"201 159 OFFCURVE",
"205 65 QCURVE",
"206 37 OFFCURVE",
"167 -6 OFFCURVE",
"110 -9 OFFCURVE",
"67 30 OFFCURVE",
"65 59 QCURVE",
"50 367 OFFCURVE",
"54 659 QCURVE",
"55 688 OFFCURVE",
"96 728 OFFCURVE",
"154 727 OFFCURVE",
"194 686 OFFCURVE",
"194 657 QCURVE"
);
}
);
width = 685;
}
);
unicode = 004B;
},
{
glyphname = L;
lastChange = "2019-10-09 22:50:45 +0000";
layers = (
{
layerId = UUID0;
paths = (
{
closed = 1;
nodes = (
"63 52 OFFCURVE",
"63 56 QCURVE",
"62 113 OFFCURVE",
"54 537 OFFCURVE",
"54 671 QCURVE",
"54 692 OFFCURVE",
"83 721 OFFCURVE",
"125 721 OFFCURVE",
"154 692 OFFCURVE",
"154 671 QCURVE",
"154 570 OFFCURVE",
"157 384 OFFCURVE",
"162 161 OFFCURVE",
"162 98 QCURVE",
"214 97 OFFCURVE",
"429 101 OFFCURVE",
"485 100 QCURVE",
"506 100 OFFCURVE",
"534 70 OFFCURVE",
"534 28 OFFCURVE",
"504 0 OFFCURVE",
"483 0 QCURVE",
"429 1 OFFCURVE",
"297 -2 QCURVE",
"167 -4 OFFCURVE",
"112 -1 QCURVE",
"93 0 OFFCURVE",
"65 27 OFFCURVE",
"64 47 QCURVE"
);
}
);
width = 586;
},
{
layerId = "E9DB90EB-1A2C-4E35-923D-2CA62A497591";
paths = (
{
closed = 1;
nodes = (
"58 46 OFFCURVE",
"57 75 QCURVE",
"56 177 OFFCURVE",
"53 364 QCURVE",
"50 645 LINE",
"50 674 OFFCURVE",
"90 715 OFFCURVE",
"148 716 OFFCURVE",
"189 676 OFFCURVE",
"190 647 QCURVE",
"193 385 LINE",
"196 137 LINE",
"245 137 OFFCURVE",
"432 139 OFFCURVE",
"476 139 QCURVE",
"505 139 OFFCURVE",
"546 98 OFFCURVE",
"546 40 OFFCURVE",
"505 -1 OFFCURVE",
"476 -1 QCURVE",
"443 -1 OFFCURVE",
"305 -2 QCURVE",
"166 -3 OFFCURVE",
"133 -2 QCURVE",
"99 -1 OFFCURVE",
"78 26 QCURVE"
);
}
);
width = 596;
}
);
unicode = 004C;
},
{
glyphname = M;
lastChange = "2019-10-09 22:50:45 +0000";
layers = (
{
layerId = UUID0;
paths = (
{
closed = 1;
nodes = (
"303 517 LINE",
"366 442 OFFCURVE",
"409 386 QCURVE",
"543 590 OFFCURVE",
"642 697 QCURVE",
"646 701 OFFCURVE",
"650 704 QCURVE",
"666 719 OFFCURVE",
"708 717 OFFCURVE",
"736 687 OFFCURVE",
"735 666 QCURVE",
"731 561 OFFCURVE",
"734 148 OFFCURVE",
"730 47 QCURVE",
"729 26 OFFCURVE",
"699 -2 OFFCURVE",
"657 0 OFFCURVE",
"629 30 OFFCURVE",
"630 51 QCURVE",
"634 81 OFFCURVE",
"632 499 OFFCURVE",
"632 529 QCURVE",
"555 429 OFFCURVE",
"454 273 QCURVE",
"443 255 OFFCURVE",
"402 247 OFFCURVE",
"385 258 QCURVE",
"384 259 OFFCURVE",
"383 259 QCURVE",
"374 265 OFFCURVE",
"368 273 QCURVE",
"326 332 OFFCURVE",
"226 452 QCURVE",
"161 530 LINE",
"164 455 OFFCURVE",
"164 358 QCURVE",
"164 310 OFFCURVE",
"161 104 OFFCURVE",
"161 51 QCURVE",
"161 30 OFFCURVE",
"132 1 OFFCURVE",
"90 1 OFFCURVE",
"61 30 OFFCURVE",
"61 51 QCURVE",
"61 104 OFFCURVE",
"64 310 OFFCURVE",
"64 359 QCURVE",
"64 546 OFFCURVE",
"52 660 QCURVE",
"50 681 OFFCURVE",
"76 713 OFFCURVE",
"97 715 QCURVE",
"107 716 OFFCURVE",
"116 713 QCURVE",
"139 712 OFFCURVE",
"154 694 QCURVE"
);
}
);
width = 789;
},
{
layerId = "E9DB90EB-1A2C-4E35-923D-2CA62A497591";
paths = (
{
closed = 1;
nodes = (
"759 548 OFFCURVE",
"765 157 OFFCURVE",
"763 67 QCURVE",
"762 38 OFFCURVE",
"720 -2 OFFCURVE",
"662 0 OFFCURVE",
"622 42 OFFCURVE",
"623 71 QCURVE",
"625 136 OFFCURVE",
"621 455 QCURVE",
"547 362 OFFCURVE",
"475 256 QCURVE",
"458 232 OFFCURVE",
"402 221 OFFCURVE",
"378 237 QCURVE",
"375 239 OFFCURVE",
"373 241 QCURVE",
"362 248 OFFCURVE",
"354 258 QCURVE",
"200 452 LINE",
"201 450 OFFCURVE",
"200 71 OFFCURVE",
"200 70 QCURVE",
"200 41 OFFCURVE",
"159 0 OFFCURVE",
"101 0 OFFCURVE",
"60 41 OFFCURVE",
"60 70 QCURVE",
"60 112 OFFCURVE",
"61 310 OFFCURVE",
"61 418 OFFCURVE",
"59 498 QCURVE",
"57 569 OFFCURVE",
"52 645 QCURVE",
"50 674 OFFCURVE",
"88 718 OFFCURVE",
"117 720 QCURVE",
"132 721 OFFCURVE",
"145 716 QCURVE",
"173 712 OFFCURVE",
"190 689 QCURVE",
"412 410 LINE",
"520 560 OFFCURVE",
"632 680 QCURVE",
"653 716 OFFCURVE",
"694 715 QCURVE",
"723 714 OFFCURVE",
"763 672 OFFCURVE",
"762 643 QCURVE"
);
}
);
width = 815;
}
);
unicode = 004D;
},
{
glyphname = N;
lastChange = "2019-10-09 22:50:45 +0000";
layers = (
{
layerId = UUID0;
paths = (
{
closed = 1;
nodes = (
"297 519 OFFCURVE",
"395 367 QCURVE",
"436 302 LINE",
"483 228 LINE",
"524 167 LINE",
"529 500 OFFCURVE",
"526 664 QCURVE",
"526 685 OFFCURVE",
"554 715 OFFCURVE",
"596 715 OFFCURVE",
"626 687 OFFCURVE",
"626 666 QCURVE",
"628 541 OFFCURVE",
"623 46 QCURVE",
"623 26 OFFCURVE",
"593 -3 OFFCURVE",
"573 -3 QCURVE",
"566 -3 OFFCURVE",
"560 -1 QCURVE",
"531 -6 OFFCURVE",
"512 16 QCURVE",
"485 49 OFFCURVE",
"426 132 OFFCURVE",
"407 162 QCURVE",
"357 241 LINE",
"311 313 LINE",
"243 418 OFFCURVE",
"155 534 QCURVE",
"154 450 OFFCURVE",
"163 126 OFFCURVE",
"163 49 QCURVE",
"163 28 OFFCURVE",
"134 -1 OFFCURVE",
"92 -1 OFFCURVE",
"63 28 OFFCURVE",
"63 49 QCURVE",
"63 109 OFFCURVE",
"53 532 OFFCURVE",
"57 646 QCURVE",
"58 661 OFFCURVE",
"67 674 QCURVE",
"70 692 OFFCURVE",
"85 704 QCURVE",
"101 717 OFFCURVE",
"142 712 OFFCURVE",
"155 696 QCURVE"
);
}
);
width = 681;
},
{
layerId = "E9DB90EB-1A2C-4E35-923D-2CA62A497591";
paths = (
{
closed = 1;
nodes = (
"203 670 OFFCURVE",
"279 579 OFFCURVE",
"298 556 QCURVE",
"354 498 OFFCURVE",
"464 342 QCURVE",
"512 273 LINE",
"515 505 OFFCURVE",
"513 650 QCURVE",
"513 679 OFFCURVE",
"553 720 OFFCURVE",
"611 721 OFFCURVE",
"652 681 OFFCURVE",
"653 652 QCURVE",
"654 516 OFFCURVE",
"650 73 QCURVE",
"649 45 OFFCURVE",
"611 6 OFFCURVE",
"583 4 QCURVE",
"544 -3 OFFCURVE",
"518 28 QCURVE",
"451 107 OFFCURVE",
"349 262 QCURVE",
"238 419 OFFCURVE",
"192 475 QCURVE",
"193 435 OFFCURVE",
"201 160 OFFCURVE",
"201 69 QCURVE",
"201 40 OFFCURVE",
"160 -1 OFFCURVE",
"102 -1 OFFCURVE",
"61 40 OFFCURVE",
"61 69 QCURVE",
"61 157 OFFCURVE",
"50 550 OFFCURVE",
"54 651 QCURVE",
"55 680 OFFCURVE",
"97 720 OFFCURVE",
"126 719 QCURVE",
"140 718 OFFCURVE",
"153 713 QCURVE",
"172 707 OFFCURVE",
"186 691 QCURVE"
);
}
);
width = 704;
}
);
unicode = 004E;
},
{
glyphname = O;
lastChange = "2019-10-09 22:50:45 +0000";
layers = (
{
layerId = UUID0;
paths = (
{
closed = 1;
nodes = (
"291 626 OFFCURVE",
"170 489 OFFCURVE",
"156 384 QCURVE",
"148 312 OFFCURVE",
"182 189 OFFCURVE",
"226 147 QCURVE",
"270 104 OFFCURVE",
"338 96 QCURVE",
"431 83 OFFCURVE",
"507 145 QCURVE",
"583 207 OFFCURVE",
"613 312 QCURVE",
"631 381 OFFCURVE",
"622 500 OFFCURVE",
"553 594 OFFCURVE",
"497 614 QCURVE",
"489 615 OFFCURVE",
"470 619 OFFCURVE",
"445 621 OFFCURVE",
"436 622 QCURVE",
"411 623 LINE",
"394 624 OFFCURVE",
"388 624 QCURVE",
"383 624 OFFCURVE",
"379 625 QCURVE"
);
},
{
closed = 1;
nodes = (
"490 718 OFFCURVE",
"528 705 QCURVE",
"596 681 OFFCURVE",
"688 587 OFFCURVE",
"724 470 OFFCURVE",
"724 345 OFFCURVE",
"689 224 OFFCURVE",
"621 115 OFFCURVE",
"525 31 OFFCURVE",
"395 -10 OFFCURVE",
"324 -1 QCURVE",
"272 6 OFFCURVE",
"186 47 OFFCURVE",
"126 107 OFFCURVE",
"81 183 OFFCURVE",
"62 266 OFFCURVE",
"53 354 OFFCURVE",
"60 395 QCURVE",
"66 447 OFFCURVE",
"101 545 OFFCURVE",
"161 632 OFFCURVE",
"239 695 OFFCURVE",
"346 727 OFFCURVE",
"406 721 QCURVE",
"408 721 OFFCURVE",
"409 720 QCURVE"
);
}
);
width = 777;
},
{
layerId = "E9DB90EB-1A2C-4E35-923D-2CA62A497591";
paths = (
{
closed = 1;
nodes = (
"377 587 OFFCURVE",
"361 588 OFFCURVE",
"357 588 QCURVE",
"345 588 OFFCURVE",
"342 587 QCURVE",
"272 566 OFFCURVE",
"190 427 OFFCURVE",
"192 331 QCURVE",
"194 246 OFFCURVE",
"281 137 OFFCURVE",
"357 135 QCURVE",
"422 132 OFFCURVE",
"534 225 OFFCURVE",
"562 301 QCURVE",
"590 386 OFFCURVE",
"560 524 OFFCURVE",
"507 560 QCURVE",
"494 569 OFFCURVE",
"478 578 OFFCURVE",
"454 583 OFFCURVE",
"441 584 OFFCURVE",
"396 586 OFFCURVE",
"381 587 QCURVE"
);
},
{
closed = 1;
nodes = (
"410 722 OFFCURVE",
"418 722 QCURVE",
"450 721 OFFCURVE",
"488 717 OFFCURVE",
"552 695 OFFCURVE",
"583 674 QCURVE",
"652 627 OFFCURVE",
"719 482 OFFCURVE",
"717 326 OFFCURVE",
"691 255 QCURVE",
"672 203 OFFCURVE",
"609 111 OFFCURVE",
"524 37 OFFCURVE",
"413 -5 OFFCURVE",
"353 -3 QCURVE",
"279 0 OFFCURVE",
"164 59 OFFCURVE",
"94 155 OFFCURVE",
"56 267 OFFCURVE",
"55 327 QCURVE",
"53 395 OFFCURVE",
"83 512 OFFCURVE",
"141 618 OFFCURVE",
"240 700 OFFCURVE",
"303 718 QCURVE",
"328 725 OFFCURVE",
"359 724 QCURVE",
"371 724 LINE",
"380 724 LINE",
"388 724 LINE",
"391 724 LINE",
"399 724 OFFCURVE",
"407 723 QCURVE"
);
}
);
width = 777;
}
);
unicode = 004F;
},
{
glyphname = P;
lastChange = "2019-10-09 22:50:45 +0000";
layers = (
{
layerId = UUID0;
paths = (
{
closed = 1;
nodes = (
"161 390 OFFCURVE",
"168 390 QCURVE",
"277 377 OFFCURVE",
"364 395 QCURVE",
"467 416 OFFCURVE",
"474 475 QCURVE",
"476 489 OFFCURVE",
"465 527 QCURVE",
"438 599 OFFCURVE",
"332 614 QCURVE",
"256 624 OFFCURVE",
"158 605 QCURVE",
"153 517 OFFCURVE",
"155 389 QCURVE"
);
},
{
closed = 1;
nodes = (
"251 726 OFFCURVE",
"345 713 QCURVE",
"510 690 OFFCURVE",
"559 563 QCURVE",
"578 502 OFFCURVE",
"569 425 OFFCURVE",
"532 364 OFFCURVE",
"475 326 OFFCURVE",
"417 303 OFFCURVE",
"384 297 QCURVE",
"282 276 OFFCURVE",
"157 290 QCURVE",
"162 98 OFFCURVE",
"162 47 QCURVE",
"162 26 OFFCURVE",
"133 -3 OFFCURVE",
"91 -3 OFFCURVE",
"62 26 OFFCURVE",
"62 47 QCURVE",
"62 57 OFFCURVE",
"55 342 QCURVE",
"51 539 OFFCURVE",
"61 662 QCURVE",
"63 683 OFFCURVE",
"94 709 OFFCURVE",
"115 708 QCURVE",
"125 707 OFFCURVE",
"134 702 QCURVE"
);
}
);
width = 626;
},
{
layerId = "E9DB90EB-1A2C-4E35-923D-2CA62A497591";
paths = (
{
closed = 1;
nodes = (
"192 421 LINE",
"239 416 LINE",
"265 414 OFFCURVE",
"303 412 OFFCURVE",
"321 413 QCURVE",
"358 414 OFFCURVE",
"424 441 OFFCURVE",
"440 460 QCURVE",
"448 469 OFFCURVE",
"454 484 OFFCURVE",
"445 526 OFFCURVE",
"429 546 QCURVE",
"397 585 OFFCURVE",
"322 589 QCURVE",
"272 592 OFFCURVE",
"192 580 QCURVE",
"191 513 OFFCURVE",
"191 421 QCURVE"
);
},
{
closed = 1;
nodes = (
"262 733 OFFCURVE",
"331 729 QCURVE",
"467 720 OFFCURVE",
"537 634 QCURVE",
"591 568 OFFCURVE",
"593 418 OFFCURVE",
"545 367 QCURVE",
"506 324 OFFCURVE",
"388 276 OFFCURVE",
"327 273 QCURVE",
"307 272 OFFCURVE",
"261 274 OFFCURVE",
"196 280 OFFCURVE",
"192 281 QCURVE",
"194 130 OFFCURVE",
"194 63 QCURVE",
"194 34 OFFCURVE",
"153 -7 OFFCURVE",
"95 -7 OFFCURVE",
"54 34 OFFCURVE",
"54 92 OFFCURVE",
"50 616 OFFCURVE",
"53 645 QCURVE",
"54 674 OFFCURVE",
"96 713 OFFCURVE",
"125 713 QCURVE",
"130 713 OFFCURVE",
"135 712 QCURVE",
"137 712 OFFCURVE",
"140 713 QCURVE"
);
}
);
width = 643;
}
);
unicode = 0050;
},
{
glyphname = Q;
lastChange = "2019-10-09 22:50:45 +0000";
layers = (
{
layerId = UUID0;
paths = (
{
closed = 1;
nodes = (
"259 588 OFFCURVE",
"237 567 QCURVE",
"171 503 OFFCURVE",
"135 323 OFFCURVE",
"206 160 OFFCURVE",
"286 122 QCURVE",
"377 79 OFFCURVE",
"452 100 QCURVE",
"431 120 OFFCURVE",
"409 143 QCURVE",
"394 156 OFFCURVE",
"394 198 OFFCURVE",
"423 226 OFFCURVE",
"464 226 OFFCURVE",
"478 212 QCURVE",
"516 175 OFFCURVE",
"552 147 QCURVE",
"569 157 OFFCURVE",
"581 169 QCURVE",
"610 198 OFFCURVE",
"633 279 OFFCURVE",
"634 338 QCURVE",
"635 407 OFFCURVE",
"592 528 OFFCURVE",
"553 568 QCURVE",
"469 653 OFFCURVE",
"341 607 QCURVE",
"322 600 OFFCURVE",
"304 608 QCURVE"
);
},
{
closed = 1;
nodes = (
"442 730 OFFCURVE",
"574 688 OFFCURVE",
"623 637 QCURVE",
"677 582 OFFCURVE",
"734 423 OFFCURVE",
"733 336 QCURVE",
"732 265 OFFCURVE",
"698 146 OFFCURVE",
"650 98 QCURVE",
"644 94 OFFCURVE",
"638 88 QCURVE",
"686 61 OFFCURVE",
"739 42 QCURVE",
"758 35 OFFCURVE",
"767 17 QCURVE",
"776 -1 OFFCURVE",
"762 -39 OFFCURVE",
"726 -57 OFFCURVE",
"707 -50 QCURVE",
"620 -21 OFFCURVE",
"543 31 QCURVE",
"522 21 OFFCURVE",
"497 12 QCURVE",
"378 -31 OFFCURVE",
"242 34 QCURVE",
"155 75 OFFCURVE",
"56 230 OFFCURVE",
"44 401 OFFCURVE",
"105 576 OFFCURVE",
"168 638 QCURVE",
"178 646 OFFCURVE",
"199 663 OFFCURVE",
"212 670 QCURVE",
"233 683 LINE",
"241 688 OFFCURVE",
"257 695 QCURVE",
"279 703 LINE",
"284 706 OFFCURVE",
"318 720 OFFCURVE",
"319 720 QCURVE",
"344 730 OFFCURVE",
"366 715 QCURVE"
);
}
);
width = 822;
},
{
layerId = "E9DB90EB-1A2C-4E35-923D-2CA62A497591";
paths = (
{
closed = 1;
nodes = (
"298 581 OFFCURVE",
"291 577 QCURVE",
"248 546 OFFCURVE",
"220 501 QCURVE",
"192 454 OFFCURVE",
"178 357 OFFCURVE",
"196 262 OFFCURVE",
"225 223 QCURVE",
"254 183 OFFCURVE",
"298 161 QCURVE",
"361 131 OFFCURVE",
"404 135 QCURVE",
"380 156 LINE",
"359 174 OFFCURVE",
"357 203 QCURVE",
"355 230 OFFCURVE",
"393 274 OFFCURVE",
"449 278 OFFCURVE",
"471 258 QCURVE",
"510 225 OFFCURVE",
"544 201 QCURVE",
"561 216 OFFCURVE",
"569 229 QCURVE",
"611 299 OFFCURVE",
"579 505 OFFCURVE",
"518 560 QCURVE",
"480 595 OFFCURVE",
"455 596 QCURVE",
"442 596 OFFCURVE",
"410 592 QCURVE",
"359 585 OFFCURVE",
"329 582 QCURVE",
"317 582 OFFCURVE",
"305 585 QCURVE"
);
},
{
closed = 1;
nodes = (
"391 728 LINE",
"435 734 OFFCURVE",
"459 733 QCURVE",
"501 732 OFFCURVE",
"572 698 OFFCURVE",
"611 662 QCURVE",
"674 604 OFFCURVE",
"741 426 OFFCURVE",
"731 232 OFFCURVE",
"687 158 QCURVE",
"679 145 OFFCURVE",
"668 132 QCURVE",
"703 117 LINE",
"728 106 OFFCURVE",
"751 54 OFFCURVE",
"728 2 OFFCURVE",
"676 -21 OFFCURVE",
"649 -9 QCURVE",
"590 15 OFFCURVE",
"548 37 QCURVE",
"519 23 OFFCURVE",
"492 14 QCURVE",
"417 -8 OFFCURVE",
"305 5 OFFCURVE",
"237 37 QCURVE",
"172 70 OFFCURVE",
"82 173 OFFCURVE",
"44 292 OFFCURVE",
"44 423 OFFCURVE",
"83 543 OFFCURVE",
"159 651 OFFCURVE",
"211 689 QCURVE",
"225 699 OFFCURVE",
"266 719 OFFCURVE",
"306 734 OFFCURVE",
"307 735 QCURVE",
"347 754 OFFCURVE",
"380 726 QCURVE"
);
}
);
width = 822;
}
);
unicode = 0051;
},
{
glyphname = R;
lastChange = "2019-10-09 22:50:45 +0000";
layers = (
{
layerId = UUID0;
paths = (
{
closed = 1;
nodes = (
"387 405 OFFCURVE",
"443 426 QCURVE",
"524 455 OFFCURVE",
"526 508 QCURVE",
"529 584 OFFCURVE",
"381 609 QCURVE",
"279 626 OFFCURVE",
"153 613 QCURVE",
"153 529 OFFCURVE",
"155 395 QCURVE",
"167 397 LINE",
"174 398 OFFCURVE",
"184 398 QCURVE",
"200 399 OFFCURVE",
"226 399 QCURVE",
"276 400 OFFCURVE",
"290 399 QCURVE",
"300 399 LINE"
);
},
{
closed = 1;
nodes = (
"161 716 OFFCURVE",
"303 719 OFFCURVE",
"397 707 QCURVE",
"431 702 OFFCURVE",
"490 685 OFFCURVE",
"555 652 OFFCURVE",
"600 609 OFFCURVE",
"628 544 OFFCURVE",
"626 504 QCURVE",
"622 395 OFFCURVE",
"500 341 QCURVE",
"526 321 OFFCURVE",
"545 293 QCURVE",
"559 272 OFFCURVE",
"585 210 OFFCURVE",
"600 161 OFFCURVE",
"623 85 OFFCURVE",
"630 62 QCURVE",
"636 43 OFFCURVE",
"616 6 OFFCURVE",
"577 -6 OFFCURVE",
"540 14 OFFCURVE",
"534 34 QCURVE",
"514 106 LINE",
"496 156 LINE",
"491 176 OFFCURVE",
"473 221 OFFCURVE",
"463 236 QCURVE",
"444 263 OFFCURVE",
"373 294 OFFCURVE",
"300 298 QCURVE",
"290 298 OFFCURVE",
"280 297 QCURVE",
"270 297 OFFCURVE",
"211 291 OFFCURVE",
"198 290 QCURVE",
"170 287 OFFCURVE",
"156 289 QCURVE",
"158 143 OFFCURVE",
"158 51 QCURVE",
"158 30 OFFCURVE",
"129 1 OFFCURVE",
"87 1 OFFCURVE",
"58 30 OFFCURVE",
"58 51 QCURVE",
"58 149 OFFCURVE",
"53 542 OFFCURVE",
"53 640 QCURVE",
"53 657 OFFCURVE",
"64 671 QCURVE",
"67 685 OFFCURVE",
"89 705 OFFCURVE",
"104 707 QCURVE"
);
}
);
width = 685;
},
{
layerId = "E9DB90EB-1A2C-4E35-923D-2CA62A497591";
paths = (
{
closed = 1;
nodes = (
"325 302 OFFCURVE",
"287 301 OFFCURVE",
"286 301 QCURVE",
"247 300 OFFCURVE",
"226 299 QCURVE",
"201 299 LINE",
"196 299 LINE",
"197 163 OFFCURVE",
"197 69 QCURVE",
"197 40 OFFCURVE",
"156 -1 OFFCURVE",
"98 -1 OFFCURVE",
"57 40 OFFCURVE",
"57 69 QCURVE",
"57 182 OFFCURVE",
"53 556 OFFCURVE",
"53 649 QCURVE",
"53 678 OFFCURVE",
"94 719 OFFCURVE",
"123 719 QCURVE",
"128 719 LINE",
"271 737 OFFCURVE",
"394 718 QCURVE",
"489 704 OFFCURVE",
"544 665 QCURVE",
"627 607 OFFCURVE",
"622 509 QCURVE",
"616 413 OFFCURVE",
"522 357 QCURVE",
"558 315 OFFCURVE",
"602 198 OFFCURVE",
"625 87 QCURVE",
"632 59 OFFCURVE",
"602 9 OFFCURVE",
"546 -5 OFFCURVE",
"496 25 OFFCURVE",
"489 53 QCURVE",
"466 156 OFFCURVE",
"449 208 QCURVE",
"431 253 OFFCURVE",
"408 274 QCURVE",
"383 297 OFFCURVE",
"336 303 QCURVE"
);
},
{
closed = 1;
nodes = (
"347 444 OFFCURVE",
"353 445 QCURVE",
"412 455 OFFCURVE",
"448 475 QCURVE",
"481 494 OFFCURVE",
"482 517 QCURVE",
"484 537 OFFCURVE",
"465 550 QCURVE",
"435 571 OFFCURVE",
"372 580 QCURVE",
"296 592 OFFCURVE",
"193 585 QCURVE",
"193 524 OFFCURVE",
"194 439 QCURVE",
"197 439 LINE",
"280 449 OFFCURVE",
"339 443 QCURVE"
);
}
);
width = 685;
}
);
unicode = 0052;
},
{
glyphname = S;
lastChange = "2019-10-09 22:50:45 +0000";
layers = (
{
layerId = UUID0;
paths = (
{
closed = 1;
nodes = (
"487 510 OFFCURVE",
"487 520 QCURVE",
"487 525 LINE",
"487 532 LINE",
"487 536 LINE",
"467 574 OFFCURVE",
"352 625 OFFCURVE",
"283 624 QCURVE",
"219 624 OFFCURVE",
"183 596 QCURVE",
"150 572 OFFCURVE",
"155 528 QCURVE",
"158 492 OFFCURVE",
"217 462 QCURVE",
"252 444 OFFCURVE",
"382 400 QCURVE",
"504 359 OFFCURVE",
"552 323 QCURVE",
"640 255 OFFCURVE",
"603 151 QCURVE",
"588 109 OFFCURVE",
"507 44 OFFCURVE",
"415 9 OFFCURVE",
"365 2 QCURVE",
"329 -5 OFFCURVE",
"249 0 OFFCURVE",
"177 17 OFFCURVE",
"113 61 OFFCURVE",
"96 93 QCURVE",
"87 110 OFFCURVE",
"73 151 OFFCURVE",
"63 198 OFFCURVE",
"61 203 QCURVE",
"55 222 OFFCURVE",
"75 256 OFFCURVE",
"115 267 OFFCURVE",
"152 249 OFFCURVE",
"158 230 QCURVE",
"163 212 OFFCURVE",
"172 174 OFFCURVE",
"179 149 OFFCURVE",
"185 138 QCURVE",
"199 113 OFFCURVE",
"287 88 OFFCURVE",
"411 105 OFFCURVE",
"498 153 OFFCURVE",
"508 181 QCURVE",
"515 206 OFFCURVE",
"506 235 OFFCURVE",
"488 250 QCURVE",
"453 276 OFFCURVE",
"349 311 QCURVE",
"345 312 OFFCURVE",
"314 321 QCURVE",
"274 335 LINE",
"263 339 OFFCURVE",
"218 356 OFFCURVE",
"184 370 OFFCURVE",
"169 377 QCURVE",
"62 433 OFFCURVE",
"54 518 QCURVE",
"45 617 OFFCURVE",
"121 672 QCURVE",
"184 718 OFFCURVE",
"281 720 QCURVE",
"372 722 OFFCURVE",
"543 648 OFFCURVE",
"578 577 QCURVE",
"587 560 OFFCURVE",
"588 536 QCURVE",
"588 522 LINE",
"588 517 OFFCURVE",
"589 514 QCURVE",
"591 494 OFFCURVE",
"566 463 OFFCURVE",
"523 459 OFFCURVE",
"491 483 OFFCURVE",
"488 503 QCURVE"
);
}
);
width = 666;
},
{
layerId = "E9DB90EB-1A2C-4E35-923D-2CA62A497591";
paths = (
{
closed = 1;
nodes = (
"445 478 OFFCURVE",
"435 516 QCURVE",
"432 526 OFFCURVE",
"431 529 QCURVE",
"415 552 OFFCURVE",
"338 587 OFFCURVE",
"293 588 QCURVE",
"212 588 OFFCURVE",
"204 532 QCURVE",
"202 517 OFFCURVE",
"210 498 OFFCURVE",
"223 488 QCURVE",
"250 467 OFFCURVE",
"333 439 QCURVE",
"447 401 OFFCURVE",
"485 380 QCURVE",
"583 326 OFFCURVE",
"598 235 QCURVE",
"606 185 OFFCURVE",
"574 100 OFFCURVE",
"510 44 OFFCURVE",
"475 27 QCURVE",
"439 9 OFFCURVE",
"401 0 QCURVE",
"363 -9 OFFCURVE",
"323 -9 QCURVE",
"283 -10 OFFCURVE",
"201 6 OFFCURVE",
"128 52 OFFCURVE",
"105 89 QCURVE",
"89 116 OFFCURVE",
"80 157 QCURVE",
"80 158 OFFCURVE",
"75 183 QCURVE",
"73 195 OFFCURVE",
"71 202 QCURVE",
"63 230 OFFCURVE",
"91 280 OFFCURVE",
"147 296 OFFCURVE",
"197 268 OFFCURVE",
"205 240 QCURVE",
"209 227 OFFCURVE",
"212 210 QCURVE",
"212 209 OFFCURVE",
"216 191 OFFCURVE",
"217 186 QCURVE",
"220 168 OFFCURVE",
"225 161 QCURVE",
"236 143 OFFCURVE",
"310 125 OFFCURVE",
"369 136 QCURVE",
"421 148 OFFCURVE",
"463 192 OFFCURVE",
"460 213 QCURVE",
"456 236 OFFCURVE",
"418 257 QCURVE",
"389 273 OFFCURVE",
"289 307 QCURVE",
"182 343 OFFCURVE",
"138 377 QCURVE",
"50 445 OFFCURVE",
"66 552 QCURVE",
"73 599 OFFCURVE",
"119 670 OFFCURVE",
"186 709 OFFCURVE",
"257 727 OFFCURVE",
"294 727 QCURVE",
"368 727 OFFCURVE",
"510 663 OFFCURVE",
"547 605 QCURVE",
"562 584 OFFCURVE",
"570 551 QCURVE",
"571 549 OFFCURVE",
"576 527 OFFCURVE",
"578 520 QCURVE",
"587 493 OFFCURVE",
"561 441 OFFCURVE",
"507 423 OFFCURVE",
"455 449 OFFCURVE",
"446 476 QCURVE"
);
}
);
width = 656;
}
);
unicode = 0053;
},
{
glyphname = T;
lastChange = "2019-10-09 22:50:45 +0000";
layers = (
{
layerId = UUID0;
paths = (
{
closed = 1;
nodes = (
"186 716 OFFCURVE",
"492 714 OFFCURVE",
"578 715 QCURVE",
"599 715 OFFCURVE",
"629 687 OFFCURVE",
"629 645 OFFCURVE",
"601 615 OFFCURVE",
"580 615 QCURVE",
"509 614 OFFCURVE",
"388 614 QCURVE",
"381 518 OFFCURVE",
"382 336 QCURVE",
"384 87 OFFCURVE",
"383 50 QCURVE",
"383 29 OFFCURVE",
"353 1 OFFCURVE",
"311 1 OFFCURVE",
"283 31 OFFCURVE",
"283 52 QCURVE",
"284 87 OFFCURVE",
"282 335 QCURVE",
"281 516 OFFCURVE",
"288 615 QCURVE",
"179 616 OFFCURVE",
"104 613 QCURVE",
"83 612 OFFCURVE",
"53 641 OFFCURVE",
"51 682 OFFCURVE",
"80 712 OFFCURVE",
"100 713 QCURVE"
);
}
);
width = 672;
},
{
layerId = "E9DB90EB-1A2C-4E35-923D-2CA62A497591";
paths = (
{
closed = 1;
nodes = (
"182 720 OFFCURVE",
"479 719 OFFCURVE",
"542 721 QCURVE",
"571 721 OFFCURVE",
"613 681 OFFCURVE",
"614 624 OFFCURVE",
"574 582 OFFCURVE",
"546 581 QCURVE",
"483 580 OFFCURVE",
"396 580 QCURVE",
"391 493 OFFCURVE",
"392 355 QCURVE",
"394 100 OFFCURVE",
"393 69 QCURVE",
"392 40 OFFCURVE",
"351 0 OFFCURVE",
"293 1 OFFCURVE",
"253 42 OFFCURVE",
"253 71 QCURVE",
"254 102 OFFCURVE",
"252 354 QCURVE",
"251 489 OFFCURVE",
"256 580 QCURVE",
"176 580 OFFCURVE",
"121 579 QCURVE",
"92 579 OFFCURVE",
"51 619 OFFCURVE",
"50 677 OFFCURVE",
"90 718 OFFCURVE",
"119 719 QCURVE"
);
}
);
width = 664;
}
);
unicode = 0054;
},
{
glyphname = U;
lastChange = "2019-10-09 22:50:45 +0000";
layers = (
{
layerId = UUID0;
paths = (
{
closed = 1;
nodes = (
"639 644 OFFCURVE",
"644 540 QCURVE",
"649 454 OFFCURVE",
"648 399 QCURVE",
"644 232 OFFCURVE",
"575 127 QCURVE",
"537 70 OFFCURVE",
"410 4 OFFCURVE",
"276 -4 OFFCURVE",
"144 55 OFFCURVE",
"102 117 QCURVE",
"73 160 OFFCURVE",
"63 245 QCURVE",
"57 308 OFFCURVE",
"60 394 QCURVE",
"62 450 OFFCURVE",
"75 640 OFFCURVE",
"76 668 QCURVE",
"76 689 OFFCURVE",
"106 717 OFFCURVE",
"148 717 OFFCURVE",
"176 687 OFFCURVE",
"176 666 QCURVE",
"175 639 OFFCURVE",
"162 447 OFFCURVE",
"160 391 QCURVE",
"157 311 OFFCURVE",
"163 256 QCURVE",
"169 195 OFFCURVE",
"184 173 QCURVE",
"219 123 OFFCURVE",
"339 90 OFFCURVE",
"458 132 OFFCURVE",
"491 183 QCURVE",
"545 263 OFFCURVE",
"548 402 QCURVE",
"549 452 OFFCURVE",
"545 534 QCURVE",
"539 640 OFFCURVE",
"538 666 QCURVE",
"538 687 OFFCURVE",
"566 717 OFFCURVE",
"608 717 OFFCURVE",
"638 689 OFFCURVE",
"638 668 QCURVE"
);
}
);
width = 707;
},
{
layerId = "E9DB90EB-1A2C-4E35-923D-2CA62A497591";
paths = (
{
closed = 1;
nodes = (
"647 629 OFFCURVE",
"653 531 QCURVE",
"658 450 OFFCURVE",
"656 398 QCURVE",
"652 228 OFFCURVE",
"583 127 QCURVE",
"544 70 OFFCURVE",
"414 3 OFFCURVE",
"277 -5 OFFCURVE",
"141 55 OFFCURVE",
"98 117 QCURVE",
"66 162 OFFCURVE",
"57 247 QCURVE",
"50 307 OFFCURVE",
"53 395 QCURVE",
"55 443 OFFCURVE",
"62 541 QCURVE",
"68 623 OFFCURVE",
"68 648 QCURVE",
"69 677 OFFCURVE",
"110 717 OFFCURVE",
"168 716 OFFCURVE",
"208 675 OFFCURVE",
"207 617 OFFCURVE",
"201 531 QCURVE",
"194 427 OFFCURVE",
"193 391 QCURVE",
"190 312 OFFCURVE",
"201 213 OFFCURVE",
"212 197 QCURVE",
"240 157 OFFCURVE",
"340 131 OFFCURVE",
"389 147 QCURVE",
"439 164 OFFCURVE",
"467 205 QCURVE",
"514 273 OFFCURVE",
"517 402 QCURVE",
"518 448 OFFCURVE",
"514 523 QCURVE",
"508 623 OFFCURVE",
"507 645 QCURVE",
"507 674 OFFCURVE",
"546 716 OFFCURVE",
"604 717 OFFCURVE",
"646 678 OFFCURVE",
"647 649 QCURVE"
);
}
);
width = 708;
}
);
unicode = 0055;
},
{
glyphname = V;
lastChange = "2019-10-09 22:50:45 +0000";
layers = (
{
layerId = UUID0;
paths = (
{
closed = 1;
nodes = (
"212 238 LINE",
"128 452 LINE",
"59 651 LINE",
"52 670 OFFCURVE",
"69 708 OFFCURVE",
"107 723 OFFCURVE",
"145 706 OFFCURVE",
"153 687 QCURVE",
"238 446 LINE",
"303 274 OFFCURVE",
"343 179 QCURVE",
"417 371 LINE",
"492 572 OFFCURVE",
"542 687 QCURVE",
"551 706 OFFCURVE",
"589 721 OFFCURVE",
"627 704 OFFCURVE",
"642 666 OFFCURVE",
"634 647 QCURVE",
"586 538 OFFCURVE",
"511 336 QCURVE",
"427 117 OFFCURVE",
"390 29 QCURVE",
"382 10 OFFCURVE",
"344 -6 OFFCURVE",
"325 2 QCURVE",
"297 13 OFFCURVE",
"250 138 QCURVE"
);
}
);
width = 680;
},
{
layerId = "E9DB90EB-1A2C-4E35-923D-2CA62A497591";
paths = (
{
closed = 1;
nodes = (
"243 126 OFFCURVE",
"212 211 QCURVE",
"134 426 LINE",
"82 569 OFFCURVE",
"61 625 QCURVE",
"52 652 OFFCURVE",
"76 705 OFFCURVE",
"130 724 OFFCURVE",
"183 700 OFFCURVE",
"193 673 QCURVE",
"270 462 LINE",
"317 327 OFFCURVE",
"345 254 QCURVE",
"441 524 OFFCURVE",
"508 678 QCURVE",
"519 704 OFFCURVE",
"573 726 OFFCURVE",
"626 703 OFFCURVE",
"648 649 OFFCURVE",
"636 622 QCURVE",
"590 520 OFFCURVE",
"556 428 QCURVE",
"480 218 LINE",
"438 99 OFFCURVE",
"416 42 QCURVE",
"407 17 OFFCURVE",
"384 5 QCURVE",
"379 1 OFFCURVE",
"374 -1 QCURVE",
"347 -13 OFFCURVE",
"293 9 OFFCURVE",
"282 35 QCURVE"
);
}
);
width = 690;
}
);
unicode = 0056;
},
{
glyphname = W;
lastChange = "2019-10-09 22:50:45 +0000";
layers = (
{
layerId = UUID0;
paths = (
{
closed = 1;
nodes = (
"627 32 OFFCURVE",
"623 42 QCURVE",
"536 288 OFFCURVE",
"467 504 QCURVE",
"428 390 LINE",
"384 265 LINE",
"348 156 LINE",
"326 89 OFFCURVE",
"310 35 QCURVE",
"304 15 OFFCURVE",
"268 -5 OFFCURVE",
"248 1 QCURVE",
"219 9 OFFCURVE",
"213 39 QCURVE",
"210 45 OFFCURVE",
"208 52 QCURVE",
"145 339 OFFCURVE",
"54 656 QCURVE",
"48 676 OFFCURVE",
"68 712 OFFCURVE",
"108 724 OFFCURVE",
"144 704 OFFCURVE",
"150 684 QCURVE",
"216 453 OFFCURVE",
"268 235 QCURVE",
"342 446 LINE",
"393 593 OFFCURVE",
"418 672 QCURVE",
"419 688 OFFCURVE",
"438 713 OFFCURVE",
"454 718 QCURVE",
"461 720 OFFCURVE",
"477 720 OFFCURVE",
"485 718 QCURVE",
"501 713 OFFCURVE",
"520 687 OFFCURVE",
"520 671 QCURVE",
"586 452 OFFCURVE",
"672 208 QCURVE",
"817 688 LINE",
"823 708 OFFCURVE",
"860 728 OFFCURVE",
"899 716 OFFCURVE",
"919 679 OFFCURVE",
"913 660 QCURVE",
"725 35 LINE",
"719 16 OFFCURVE",
"682 -4 OFFCURVE",
"662 2 QCURVE",
"644 8 OFFCURVE",
"634 24 QCURVE"
);
}
);
width = 970;
},
{
layerId = "E9DB90EB-1A2C-4E35-923D-2CA62A497591";
paths = (
{
closed = 1;
nodes = (
"661 405 LINE",
"703 274 LINE",
"711 299 OFFCURVE",
"784 587 OFFCURVE",
"812 671 QCURVE",
"820 698 OFFCURVE",
"871 726 OFFCURVE",
"926 710 OFFCURVE",
"954 659 OFFCURVE",
"946 631 QCURVE",
"918 548 OFFCURVE",
"860 316 OFFCURVE",
"851 285 QCURVE",
"815 166 LINE",
"782 53 LINE",
"776 32 OFFCURVE",
"742 4 OFFCURVE",
"721 2 QCURVE",
"695 -5 OFFCURVE",
"647 19 OFFCURVE",
"638 44 QCURVE",
"583 188 OFFCURVE",
"527 363 QCURVE",
"518 393 OFFCURVE",
"501 440 QCURVE",
"350 44 LINE",
"341 21 OFFCURVE",
"299 -4 OFFCURVE",
"275 -1 QCURVE",
"249 -5 OFFCURVE",
"204 27 OFFCURVE",
"199 53 QCURVE",
"179 144 OFFCURVE",
"133 331 QCURVE",
"89 505 OFFCURVE",
"56 636 QCURVE",
"50 664 OFFCURVE",
"82 712 OFFCURVE",
"138 724 OFFCURVE",
"186 692 OFFCURVE",
"192 664 QCURVE",
"222 552 OFFCURVE",
"289 281 QCURVE",
"366 483 OFFCURVE",
"444 674 QCURVE",
"452 694 OFFCURVE",
"488 717 OFFCURVE",
"509 717 QCURVE",
"533 717 OFFCURVE",
"573 688 OFFCURVE",
"591 606 QCURVE"
);
}
);
width = 1004;
}
);
unicode = 0057;
},
{
glyphname = X;
lastChange = "2019-10-09 22:50:45 +0000";
layers = (
{
layerId = UUID0;
paths = (
{
closed = 1;
nodes = (
"457 125 OFFCURVE",
"385 222 QCURVE",
"375 235 OFFCURVE",
"341 275 QCURVE",
"335 282 LINE",
"144 22 LINE",
"132 5 OFFCURVE",
"91 -2 OFFCURVE",
"57 22 OFFCURVE",
"50 63 OFFCURVE",
"62 80 QCURVE",
"272 366 LINE",
"203 467 OFFCURVE",
"98 639 QCURVE",
"88 657 OFFCURVE",
"97 697 OFFCURVE",
"133 718 OFFCURVE",
"173 709 OFFCURVE",
"184 691 QCURVE",
"289 520 OFFCURVE",
"335 451 QCURVE",
"512 693 LINE",
"524 709 OFFCURVE",
"565 716 OFFCURVE",
"598 691 OFFCURVE",
"605 650 OFFCURVE",
"592 633 QCURVE",
"396 365 LINE",
"416 341 LINE",
"450 302 OFFCURVE",
"465 282 QCURVE",
"542 177 OFFCURVE",
"602 74 QCURVE",
"613 56 OFFCURVE",
"602 16 OFFCURVE",
"566 -5 OFFCURVE",
"526 6 OFFCURVE",
"516 24 QCURVE"
);
}
);
width = 663;
},
{
layerId = "E9DB90EB-1A2C-4E35-923D-2CA62A497591";
paths = (
{
closed = 1;
nodes = (
"178 28 LINE",
"161 5 OFFCURVE",
"104 -3 OFFCURVE",
"58 31 OFFCURVE",
"50 86 OFFCURVE",
"67 110 QCURVE",
"245 356 LINE",
"125 520 OFFCURVE",
"66 616 QCURVE",
"50 638 OFFCURVE",
"60 690 OFFCURVE",
"104 721 OFFCURVE",
"158 711 OFFCURVE",
"173 688 QCURVE",
"229 608 OFFCURVE",
"326 464 QCURVE",
"478 687 LINE",
"496 710 OFFCURVE",
"553 718 OFFCURVE",
"598 683 OFFCURVE",
"606 628 OFFCURVE",
"589 605 QCURVE",
"413 352 LINE",
"522 212 OFFCURVE",
"599 99 QCURVE",
"614 76 OFFCURVE",
"603 25 OFFCURVE",
"558 -5 OFFCURVE",
"505 6 OFFCURVE",
"490 29 QCURVE",
"420 121 OFFCURVE",
"332 243 QCURVE"
);
}
);
width = 663;
}
);
unicode = 0058;
},
{
glyphname = Y;
lastChange = "2019-10-09 22:50:45 +0000";
layers = (
{
layerId = UUID0;
paths = (
{
closed = 1;
nodes = (
"388 241 OFFCURVE",
"389 176 QCURVE",
"390 82 OFFCURVE",
"394 55 QCURVE",
"396 34 OFFCURVE",
"369 2 OFFCURVE",
"328 -2 OFFCURVE",
"296 25 OFFCURVE",
"294 45 QCURVE",
"290 74 OFFCURVE",
"289 175 QCURVE",
"288 239 OFFCURVE",
"287 261 QCURVE",
"215 379 LINE",
"127 524 LINE",
"90 586 OFFCURVE",
"59 644 QCURVE",
"49 662 OFFCURVE",
"61 702 OFFCURVE",
"97 722 OFFCURVE",
"137 710 OFFCURVE",
"147 692 QCURVE",
"192 608 OFFCURVE",
"334 375 QCURVE",
"353 406 OFFCURVE",
"429 514 OFFCURVE",
"443 537 QCURVE",
"450 548 OFFCURVE",
"489 616 QCURVE",
"518 667 OFFCURVE",
"539 698 QCURVE",
"550 715 OFFCURVE",
"591 723 OFFCURVE",
"625 700 OFFCURVE",
"633 659 OFFCURVE",
"621 642 QCURVE",
"608 622 OFFCURVE",
"576 566 QCURVE",
"529 485 LINE",
"511 457 OFFCURVE",
"411 314 OFFCURVE",
"389 268 QCURVE",
"388 265 OFFCURVE",
"387 263 QCURVE"
);
}
);
width = 680;
},
{
layerId = "E9DB90EB-1A2C-4E35-923D-2CA62A497591";
paths = (
{
closed = 1;
nodes = (
"413 262 OFFCURVE",
"413 106 OFFCURVE",
"414 70 QCURVE",
"415 41 OFFCURVE",
"375 -1 OFFCURVE",
"317 -3 OFFCURVE",
"275 37 OFFCURVE",
"274 66 QCURVE",
"274 91 OFFCURVE",
"273 178 OFFCURVE",
"273 203 QCURVE",
"273 260 LINE",
"173 426 LINE",
"99 547 OFFCURVE",
"63 615 QCURVE",
"49 640 OFFCURVE",
"65 695 OFFCURVE",
"116 723 OFFCURVE",
"171 707 OFFCURVE",
"185 681 QCURVE",
"218 622 OFFCURVE",
"335 428 QCURVE",
"389 512 LINE",
"503 684 LINE",
"518 708 OFFCURVE",
"574 722 OFFCURVE",
"623 691 OFFCURVE",
"637 635 OFFCURVE",
"621 610 QCURVE",
"615 600 OFFCURVE",
"505 434 QCURVE",
"446 345 OFFCURVE",
"412 285 QCURVE"
);
}
);
width = 680;
}
);
unicode = 0059;
},
{
glyphname = Z;
lastChange = "2019-10-09 22:50:45 +0000";
layers = (
{
layerId = UUID0;
paths = (
{
closed = 1;
nodes = (
"177 725 OFFCURVE",
"316 725 QCURVE",
"336 725 LINE",
"381 725 LINE",
"431 725 LINE",
"503 725 LINE",
"526 725 LINE",
"534 725 LINE",
"535 725 LINE",
"537 725 LINE",
"540 725 LINE",
"542 725 OFFCURVE",
"544 724 QCURVE",
"548 723 OFFCURVE",
"551 722 QCURVE",
"563 719 OFFCURVE",
"573 708 QCURVE",
"599 678 OFFCURVE",
"585 633 QCURVE",
"578 612 OFFCURVE",
"561 586 QCURVE",
"551 569 OFFCURVE",
"535 550 QCURVE",
"527 540 LINE",
"522 534 OFFCURVE",
"521 533 QCURVE",
"451 445 LINE",
"387 368 LINE",
"311 278 LINE",
"243 199 LINE",
"182 124 LINE",
"169 107 OFFCURVE",
"162 97 QCURVE",
"169 97 OFFCURVE",
"197 100 OFFCURVE",
"206 100 QCURVE",
"395 109 OFFCURVE",
"607 96 QCURVE",
"628 95 OFFCURVE",
"655 64 OFFCURVE",
"653 22 OFFCURVE",
"622 -5 OFFCURVE",
"601 -4 QCURVE",
"394 9 OFFCURVE",
"210 0 QCURVE",
"202 -1 LINE",
"194 -2 OFFCURVE",
"177 -3 OFFCURVE",
"152 -4 OFFCURVE",
"143 -3 QCURVE",
"68 4 OFFCURVE",
"49 65 QCURVE",
"43 86 OFFCURVE",
"54 111 QCURVE",
"58 121 OFFCURVE",
"67 135 QCURVE",
"80 155 OFFCURVE",
"103 184 QCURVE",
"131 221 OFFCURVE",
"167 263 QCURVE",
"235 342 LINE",
"309 430 LINE",
"373 507 LINE",
"443 595 LINE",
"448 602 LINE",
"457 613 LINE",
"467 625 LINE",
"431 625 LINE",
"381 625 LINE",
"336 625 LINE",
"316 625 LINE",
"188 625 OFFCURVE",
"120 612 QCURVE",
"99 608 OFFCURVE",
"65 631 OFFCURVE",
"57 672 OFFCURVE",
"80 706 OFFCURVE",
"100 710 QCURVE"
);
}
);
width = 707;
},
{
layerId = "E9DB90EB-1A2C-4E35-923D-2CA62A497591";
paths = (
{
closed = 1;
nodes = (
"199 713 OFFCURVE",
"340 711 OFFCURVE",
"523 715 OFFCURVE",
"568 715 QCURVE",
"595 715 OFFCURVE",
"634 675 OFFCURVE",
"634 647 QCURVE",
"634 621 OFFCURVE",
"619 602 QCURVE",
"617 599 OFFCURVE",
"616 596 QCURVE",
"584 527 OFFCURVE",
"507 426 OFFCURVE",
"273 162 QCURVE",
"253 137 LINE",
"286 137 OFFCURVE",
"334 135 QCURVE",
"525 139 OFFCURVE",
"564 139 QCURVE",
"591 139 OFFCURVE",
"630 99 OFFCURVE",
"630 44 OFFCURVE",
"591 4 OFFCURVE",
"564 4 QCURVE",
"527 4 OFFCURVE",
"337 0 QCURVE",
"201 0 OFFCURVE",
"114 4 QCURVE",
"86 5 OFFCURVE",
"50 47 OFFCURVE",
"51 75 QCURVE",
"52 103 OFFCURVE",
"73 123 QCURVE",
"102 155 OFFCURVE",
"167 243 QCURVE",
"412 521 OFFCURVE",
"443 577 QCURVE",
"226 573 OFFCURVE",
"125 580 QCURVE",
"97 582 OFFCURVE",
"61 624 OFFCURVE",
"65 682 OFFCURVE",
"106 719 OFFCURVE",
"133 717 QCURVE"
);
}
);
width = 684;
}
);
unicode = 005A;
},
{
glyphname = bracketleft;
lastChange = "2019-10-09 22:50:45 +0000";
layers = (
{
layerId = UUID0;
paths = (
{
closed = 1;
nodes = (
"218 609 LINE",
"175 609 LINE",
"170 609 LINE",
"167 599 OFFCURVE",
"163 581 QCURVE",
"159 555 OFFCURVE",
"162 501 QCURVE",
"167 409 OFFCURVE",
"167 405 QCURVE",
"167 127 LINE",
"167 -48 OFFCURVE",
"166 -69 QCURVE",
"166 -74 OFFCURVE",
"164 -80 QCURVE",
"208 -87 LINE",
"222 -89 LINE",
"229 -90 OFFCURVE",
"235 -91 QCURVE",
"247 -93 LINE",
"253 -94 OFFCURVE",
"263 -95 OFFCURVE",
"273 -97 OFFCURVE",
"280 -97 OFFCURVE",
"285 -98 OFFCURVE",
"286 -98 QCURVE",
"288 -99 LINE",
"309 -101 OFFCURVE",
"333 -135 OFFCURVE",
"328 -176 OFFCURVE",
"294 -200 OFFCURVE",
"274 -197 QCURVE",
"272 -197 LINE",
"271 -197 OFFCURVE",
"266 -196 OFFCURVE",
"258 -195 OFFCURVE",
"249 -194 OFFCURVE",
"238 -193 OFFCURVE",
"232 -192 QCURVE",
"220 -190 LINE",
"206 -188 LINE",
"200 -187 OFFCURVE",
"193 -186 QCURVE",
"156 -180 OFFCURVE",
"132 -175 QCURVE",
"116 -172 OFFCURVE",
"107 -169 QCURVE",
"86 -162 OFFCURVE",
"75 -151 QCURVE",
"48 -123 OFFCURVE",
"61 -79 QCURVE",
"66 -63 LINE",
"68 -35 OFFCURVE",
"68 27 OFFCURVE",
"67 109 OFFCURVE",
"67 127 QCURVE",
"67 405 LINE",
"67 406 OFFCURVE",
"62 495 QCURVE",
"58 562 OFFCURVE",
"65 599 QCURVE",
"77 667 OFFCURVE",
"112 692 QCURVE",
"137 709 OFFCURVE",
"175 709 QCURVE",
"183 709 OFFCURVE",
"197 708 OFFCURVE",
"200 708 OFFCURVE",
"206 709 QCURVE",
"215 710 OFFCURVE",
"235 712 OFFCURVE",
"248 714 QCURVE",
"266 717 LINE",
"287 719 OFFCURVE",
"320 694 OFFCURVE",
"325 653 OFFCURVE",
"300 620 OFFCURVE",
"280 617 QCURVE"
);
}
);
width = 385;
},
{
layerId = "E9DB90EB-1A2C-4E35-923D-2CA62A497591";
paths = (
{
closed = 1;
nodes = (
"266 584 OFFCURVE",
"233 582 OFFCURVE",
"218 581 OFFCURVE",
"210 579 QCURVE",
"202 576 OFFCURVE",
"196 567 QCURVE",
"196 563 LINE",
"196 514 LINE",
"196 461 OFFCURVE",
"197 346 QCURVE",
"197 300 OFFCURVE",
"199 182 OFFCURVE",
"200 108 OFFCURVE",
"200 98 QCURVE",
"200 6 LINE",
"200 -10 OFFCURVE",
"194 -40 QCURVE",
"203 -43 OFFCURVE",
"217 -46 QCURVE",
"233 -49 OFFCURVE",
"257 -52 QCURVE",
"262 -53 OFFCURVE",
"279 -54 OFFCURVE",
"290 -55 OFFCURVE",
"294 -56 QCURVE",
"322 -60 OFFCURVE",
"357 -106 OFFCURVE",
"349 -163 OFFCURVE",
"303 -198 OFFCURVE",
"274 -194 QCURVE",
"270 -193 OFFCURVE",
"247 -191 OFFCURVE",
"242 -191 QCURVE",
"211 -187 OFFCURVE",
"188 -183 QCURVE",
"96 -164 OFFCURVE",
"66 -106 QCURVE",
"48 -72 OFFCURVE",
"55 -25 QCURVE",
"56 -17 OFFCURVE",
"59 -4 OFFCURVE",
"60 0 OFFCURVE",
"60 2 QCURVE",
"60 8 LINE",
"60 98 LINE",
"60 108 OFFCURVE",
"59 181 OFFCURVE",
"58 299 OFFCURVE",
"57 344 QCURVE",
"56 460 OFFCURVE",
"56 514 QCURVE",
"56 548 OFFCURVE",
"57 566 QCURVE",
"57 577 OFFCURVE",
"58 584 QCURVE",
"58 593 LINE",
"59 604 OFFCURVE",
"64 615 QCURVE",
"99 692 OFFCURVE",
"171 713 QCURVE",
"185 717 OFFCURVE",
"224 722 OFFCURVE",
"265 725 OFFCURVE",
"268 725 QCURVE",
"297 729 OFFCURVE",
"343 693 OFFCURVE",
"350 636 OFFCURVE",
"314 590 OFFCURVE",
"286 587 QCURVE"
);
}
);
width = 385;
}
);
unicode = 005B;
},
{
glyphname = backslash;
lastChange = "2019-10-09 22:50:45 +0000";
layers = (
{
layerId = UUID0;
paths = (
{
closed = 1;
nodes = (
"186 591 OFFCURVE",
"241 468 QCURVE",
"299 327 OFFCURVE",
"325 263 QCURVE",
"340 226 OFFCURVE",
"368 155 QCURVE",
"392 92 OFFCURVE",
"403 63 QCURVE",
"410 44 OFFCURVE",
"393 6 OFFCURVE",
"354 -8 OFFCURVE",
"316 9 OFFCURVE",
"309 29 QCURVE",
"300 52 OFFCURVE",
"252 188 OFFCURVE",
"233 225 QCURVE",
"207 289 OFFCURVE",
"85 574 OFFCURVE",
"54 651 QCURVE",
"47 670 OFFCURVE",
"63 708 OFFCURVE",
"102 723 OFFCURVE",
"140 707 OFFCURVE",
"148 687 QCURVE"
);
}
);
width = 456;
},
{
layerId = "E9DB90EB-1A2C-4E35-923D-2CA62A497591";
paths = (
{
closed = 1;
nodes = (
"296 400 OFFCURVE",
"403 91 QCURVE",
"412 64 OFFCURVE",
"387 12 OFFCURVE",
"333 -7 OFFCURVE",
"281 18 OFFCURVE",
"271 45 QCURVE",
"165 350 OFFCURVE",
"59 620 QCURVE",
"47 646 OFFCURVE",
"69 700 OFFCURVE",
"122 723 OFFCURVE",
"176 701 OFFCURVE",
"187 674 QCURVE"
);
}
);
width = 456;
}
);
unicode = 005C;
},
{
glyphname = bracketright;
lastChange = "2019-10-09 22:50:45 +0000";
layers = (
{
layerId = UUID0;
paths = (
{
closed = 1;
nodes = (
"147 -91 OFFCURVE",
"148 -91 QCURVE",
"160 -90 OFFCURVE",
"183 -91 QCURVE",
"186 -83 OFFCURVE",
"191 -63 QCURVE",
"191 -61 LINE",
"191 -50 LINE",
"191 -37 OFFCURVE",
"190 -15 QCURVE",
"189 -1 OFFCURVE",
"187 43 OFFCURVE",
"187 47 QCURVE",
"184 149 OFFCURVE",
"184 410 QCURVE",
"184 416 OFFCURVE",
"186 507 OFFCURVE",
"186 538 QCURVE",
"186 583 OFFCURVE",
"185 610 QCURVE",
"185 614 LINE",
"179 615 OFFCURVE",
"171 616 QCURVE",
"168 616 OFFCURVE",
"113 617 QCURVE",
"92 617 OFFCURVE",
"64 647 OFFCURVE",
"64 689 OFFCURVE",
"94 717 OFFCURVE",
"115 717 QCURVE",
"173 716 OFFCURVE",
"178 716 QCURVE",
"204 714 OFFCURVE",
"221 709 QCURVE",
"254 700 OFFCURVE",
"270 680 QCURVE",
"278 670 OFFCURVE",
"281 656 QCURVE",
"283 650 OFFCURVE",
"283 642 QCURVE",
"285 631 OFFCURVE",
"285 613 QCURVE",
"286 585 OFFCURVE",
"286 537 QCURVE",
"286 506 OFFCURVE",
"284 416 OFFCURVE",
"284 410 QCURVE",
"284 151 OFFCURVE",
"287 49 QCURVE",
"287 46 OFFCURVE",
"289 4 OFFCURVE",
"290 -10 QCURVE",
"291 -34 OFFCURVE",
"291 -49 QCURVE",
"291 -73 OFFCURVE",
"289 -84 QCURVE",
"273 -149 OFFCURVE",
"242 -174 QCURVE",
"219 -193 OFFCURVE",
"183 -192 QCURVE",
"175 -191 OFFCURVE",
"164 -191 OFFCURVE",
"164 -190 OFFCURVE",
"160 -191 QCURVE",
"143 -193 LINE",
"135 -194 OFFCURVE",
"113 -198 OFFCURVE",
"107 -198 QCURVE",
"87 -201 OFFCURVE",
"54 -177 OFFCURVE",
"48 -136 OFFCURVE",
"72 -103 OFFCURVE",
"93 -100 QCURVE"
);
}
);
width = 348;
},
{
layerId = "E9DB90EB-1A2C-4E35-923D-2CA62A497591";
paths = (
{
closed = 1;
nodes = (
"127 -46 OFFCURVE",
"156 -46 QCURVE",
"158 -30 OFFCURVE",
"160 -8 QCURVE",
"164 54 OFFCURVE",
"164 162 QCURVE",
"164 238 OFFCURVE",
"159 460 OFFCURVE",
"159 461 QCURVE",
"159 473 OFFCURVE",
"158 523 OFFCURVE",
"158 536 QCURVE",
"158 551 OFFCURVE",
"163 578 QCURVE",
"136 578 OFFCURVE",
"121 580 QCURVE",
"93 585 OFFCURVE",
"59 632 OFFCURVE",
"69 689 OFFCURVE",
"116 723 OFFCURVE",
"145 718 QCURVE",
"151 717 OFFCURVE",
"154 717 OFFCURVE",
"173 718 OFFCURVE",
"186 718 QCURVE",
"249 717 OFFCURVE",
"314 639 OFFCURVE",
"305 577 QCURVE",
"301 559 LINE",
"300 551 OFFCURVE",
"299 545 OFFCURVE",
"298 540 OFFCURVE",
"298 536 QCURVE",
"298 524 OFFCURVE",
"299 474 OFFCURVE",
"299 461 QCURVE",
"301 350 LINE",
"304 238 OFFCURVE",
"304 162 QCURVE",
"304 50 OFFCURVE",
"299 -18 QCURVE",
"296 -61 OFFCURVE",
"291 -87 QCURVE",
"287 -104 OFFCURVE",
"283 -117 QCURVE",
"274 -142 OFFCURVE",
"257 -157 QCURVE",
"224 -185 OFFCURVE",
"170 -186 QCURVE",
"149 -186 LINE",
"140 -186 OFFCURVE",
"138 -185 OFFCURVE",
"131 -186 QCURVE",
"102 -190 OFFCURVE",
"56 -156 OFFCURVE",
"48 -98 OFFCURVE",
"82 -52 OFFCURVE",
"111 -48 QCURVE"
);
}
);
width = 348;
}
);
unicode = 005D;
},
{
glyphname = asciicircum;
lastChange = "2019-10-09 22:50:45 +0000";
layers = (
{
layerId = UUID0;
paths = (
{
closed = 1;
nodes = (
"125 492 LINE",
"170 578 OFFCURVE",
"191 621 QCURVE",
"191 622 OFFCURVE",
"192 624 OFFCURVE",
"192 627 OFFCURVE",
"194 637 OFFCURVE",
"196 644 QCURVE",
"206 690 OFFCURVE",
"240 706 QCURVE",
"277 722 OFFCURVE",
"311 691 QCURVE",
"324 679 OFFCURVE",
"339 655 QCURVE",
"359 622 OFFCURVE",
"387 558 QCURVE",
"417 486 LINE",
"449 406 LINE",
"465 366 OFFCURVE",
"470 352 QCURVE",
"478 333 OFFCURVE",
"462 294 OFFCURVE",
"424 279 OFFCURVE",
"385 295 OFFCURVE",
"378 314 QCURVE",
"357 368 LINE",
"325 447 LINE",
"310 486 OFFCURVE",
"296 518 QCURVE",
"275 564 LINE",
"213 444 LINE",
"147 316 LINE",
"138 298 OFFCURVE",
"99 284 OFFCURVE",
"62 302 OFFCURVE",
"48 341 OFFCURVE",
"57 360 QCURVE"
);
}
);
width = 527;
},
{
layerId = "E9DB90EB-1A2C-4E35-923D-2CA62A497591";
paths = (
{
closed = 1;
nodes = (
"128 528 OFFCURVE",
"212 675 QCURVE",
"215 680 OFFCURVE",
"219 685 QCURVE",
"228 709 OFFCURVE",
"250 720 QCURVE",
"274 733 OFFCURVE",
"326 717 OFFCURVE",
"339 693 QCURVE",
"398 582 OFFCURVE",
"501 365 QCURVE",
"512 341 OFFCURVE",
"494 289 OFFCURVE",
"445 266 OFFCURVE",
"393 284 OFFCURVE",
"381 309 QCURVE",
"279 522 LINE",
"226 422 OFFCURVE",
"180 313 QCURVE",
"169 288 OFFCURVE",
"118 268 OFFCURVE",
"68 289 OFFCURVE",
"48 340 OFFCURVE",
"58 365 QCURVE"
);
}
);
width = 527;
}
);
unicode = 005E;
},
{
glyphname = underscore;
lastChange = "2019-10-09 22:50:45 +0000";
layers = (
{
layerId = UUID0;
paths = (
{
closed = 1;
nodes = (
"94 -53 OFFCURVE",
"281 -53 OFFCURVE",
"509 -56 OFFCURVE",
"571 -56 QCURVE",
"592 -56 OFFCURVE",
"621 -85 OFFCURVE",
"621 -127 OFFCURVE",
"592 -156 OFFCURVE",
"571 -156 QCURVE",
"509 -156 OFFCURVE",
"262 -153 OFFCURVE",
"138 -153 OFFCURVE",
"15 -156 QCURVE",
"-6 -157 OFFCURVE",
"-36 -129 OFFCURVE",
"-38 -87 OFFCURVE",
"-10 -57 OFFCURVE",
"11 -56 QCURVE"
);
}
);
width = 587;
},
{
layerId = "E9DB90EB-1A2C-4E35-923D-2CA62A497591";
paths = (
{
closed = 1;
nodes = (
"520 -36 LINE",
"549 -36 OFFCURVE",
"590 -77 OFFCURVE",
"590 -135 OFFCURVE",
"549 -176 OFFCURVE",
"520 -176 QCURVE",
"32 -176 LINE",
"3 -176 OFFCURVE",
"-38 -135 OFFCURVE",
"-38 -77 OFFCURVE",
"3 -36 OFFCURVE",
"32 -36 QCURVE"
);
}
);
width = 587;
}
);
unicode = 005F;
},
{
glyphname = grave;
lastChange = "2019-10-09 22:50:45 +0000";
layers = (
{
layerId = UUID0;
paths = (
{
closed = 1;
nodes = (
"160 758 LINE",
"175 744 LINE",
"177 741 OFFCURVE",
"192 726 OFFCURVE",
"195 722 OFFCURVE",
"206 707 QCURVE",
"231 678 LINE",
"245 663 OFFCURVE",
"239 623 OFFCURVE",
"208 597 OFFCURVE",
"168 600 OFFCURVE",
"155 614 QCURVE",
"131 642 LINE",
"120 656 OFFCURVE",
"117 660 OFFCURVE",
"104 674 OFFCURVE",
"102 675 QCURVE",
"89 690 LINE",
"76 702 OFFCURVE",
"63 714 QCURVE",
"50 728 OFFCURVE",
"51 768 OFFCURVE",
"80 797 OFFCURVE",
"121 797 OFFCURVE",
"135 785 QCURVE"
);
}
);
width = 294;
},
{
layerId = "E9DB90EB-1A2C-4E35-923D-2CA62A497591";
paths = (
{
closed = 1;
nodes = (
"251 666 LINE",
"270 644 OFFCURVE",
"267 587 OFFCURVE",
"223 549 OFFCURVE",
"195 550 QCURVE",
"166 552 OFFCURVE",
"147 574 QCURVE",
"69 660 LINE",
"50 682 OFFCURVE",
"53 739 OFFCURVE",
"97 777 OFFCURVE",
"125 776 QCURVE",
"154 774 OFFCURVE",
"173 752 QCURVE"
);
}
);
width = 294;
}
);
unicode = 0060;
},
{
glyphname = a;
lastChange = "2019-10-09 22:50:45 +0000";
layers = (
{
layerId = UUID0;
paths = (
{
closed = 1;
nodes = (
"424 315 OFFCURVE",
"407 397 QCURVE",
"404 401 OFFCURVE",
"397 408 OFFCURVE",
"394 412 OFFCURVE",
"389 415 OFFCURVE",
"386 417 QCURVE",
"338 443 OFFCURVE",
"232 394 OFFCURVE",
"192 327 QCURVE",
"152 259 OFFCURVE",
"153 158 OFFCURVE",
"191 125 QCURVE",
"214 106 OFFCURVE",
"282 96 OFFCURVE",
"317 106 QCURVE",
"332 110 OFFCURVE",
"357 124 OFFCURVE",
"370 134 OFFCURVE",
"407 167 OFFCURVE",
"419 176 QCURVE",
"421 178 OFFCURVE",
"424 180 QCURVE"
);
},
{
closed = 1;
nodes = (
"517 363 OFFCURVE",
"525 231 OFFCURVE",
"522 115 OFFCURVE",
"525 50 QCURVE",
"526 30 OFFCURVE",
"498 0 OFFCURVE",
"456 -2 OFFCURVE",
"426 26 OFFCURVE",
"425 46 QCURVE",
"425 50 LINE",
"387 22 OFFCURVE",
"345 10 QCURVE",
"309 0 OFFCURVE",
"235 -2 OFFCURVE",
"157 23 OFFCURVE",
"127 49 QCURVE",
"75 92 OFFCURVE",
"45 220 OFFCURVE",
"73 322 OFFCURVE",
"130 419 OFFCURVE",
"197 486 OFFCURVE",
"285 532 OFFCURVE",
"381 531 OFFCURVE",
"434 505 QCURVE",
"442 501 OFFCURVE",
"461 485 OFFCURVE",
"468 479 QCURVE",
"481 466 LINE",
"487 460 OFFCURVE",
"487 459 QCURVE",
"503 445 OFFCURVE",
"504 423 QCURVE"
);
}
);
width = 578;
},
{
layerId = "E9DB90EB-1A2C-4E35-923D-2CA62A497591";
paths = (
{
closed = 1;
nodes = (
"393 306 OFFCURVE",
"388 364 QCURVE",
"378 371 LINE",
"364 382 LINE",
"355 388 LINE",
"314 400 OFFCURVE",
"231 346 OFFCURVE",
"207 286 QCURVE",
"184 228 OFFCURVE",
"204 157 OFFCURVE",
"239 145 QCURVE",
"283 129 OFFCURVE",
"329 163 QCURVE",
"337 168 OFFCURVE",
"343 174 QCURVE",
"359 192 LINE",
"382 216 LINE",
"388 222 OFFCURVE",
"396 226 QCURVE"
);
},
{
closed = 1;
nodes = (
"524 406 OFFCURVE",
"530 336 OFFCURVE",
"534 246 OFFCURVE",
"535 221 QCURVE",
"538 143 LINE",
"540 90 OFFCURVE",
"541 74 QCURVE",
"542 45 OFFCURVE",
"502 2 OFFCURVE",
"474 1 QCURVE",
"451 0 OFFCURVE",
"414 25 OFFCURVE",
"406 46 QCURVE",
"302 -26 OFFCURVE",
"193 13 QCURVE",
"136 33 OFFCURVE",
"101 72 QCURVE",
"67 112 OFFCURVE",
"50 206 OFFCURVE",
"60 303 OFFCURVE",
"97 387 OFFCURVE",
"155 461 OFFCURVE",
"238 519 OFFCURVE",
"336 536 OFFCURVE",
"393 522 QCURVE",
"416 516 OFFCURVE",
"438 501 QCURVE",
"443 501 LINE",
"472 505 OFFCURVE",
"517 469 OFFCURVE",
"520 440 QCURVE"
);
}
);
width = 592;
}
);
unicode = 0061;
},
{
glyphname = b;
lastChange = "2019-10-09 22:50:45 +0000";
layers = (
{
layerId = UUID0;
paths = (
{
closed = 1;
nodes = (
"160 158 LINE",
"194 109 OFFCURVE",
"258 98 QCURVE",
"343 85 OFFCURVE",
"382 139 QCURVE",
"420 193 OFFCURVE",
"408 281 QCURVE",
"396 355 OFFCURVE",
"345 403 QCURVE",
"295 449 OFFCURVE",
"227 423 QCURVE",
"220 420 OFFCURVE",
"209 413 OFFCURVE",
"203 406 QCURVE",
"191 396 LINE",
"187 391 OFFCURVE",
"167 368 OFFCURVE",
"161 362 QCURVE",
"162 258 OFFCURVE",
"159 159 QCURVE"
);
},
{
closed = 1;
nodes = (
"146 17 OFFCURVE",
"119 -1 OFFCURVE",
"103 0 QCURVE",
"82 1 OFFCURVE",
"54 32 OFFCURVE",
"55 52 QCURVE",
"57 97 OFFCURVE",
"58 124 QCURVE",
"59 159 OFFCURVE",
"61 240 OFFCURVE",
"62 296 OFFCURVE",
"61 375 OFFCURVE",
"61 418 OFFCURVE",
"60 527 OFFCURVE",
"59 556 OFFCURVE",
"57 655 OFFCURVE",
"57 665 QCURVE",
"57 686 OFFCURVE",
"85 716 OFFCURVE",
"127 716 OFFCURVE",
"157 688 OFFCURVE",
"157 667 QCURVE",
"160 533 OFFCURVE",
"160 499 QCURVE",
"175 509 OFFCURVE",
"191 515 QCURVE",
"259 540 OFFCURVE",
"369 517 OFFCURVE",
"413 476 QCURVE",
"451 440 OFFCURVE",
"500 336 OFFCURVE",
"507 294 QCURVE",
"524 167 OFFCURVE",
"463 81 QCURVE",
"428 31 OFFCURVE",
"371 10 QCURVE",
"315 -12 OFFCURVE",
"242 0 QCURVE",
"193 8 OFFCURVE",
"152 32 QCURVE"
);
}
);
width = 563;
},
{
layerId = "E9DB90EB-1A2C-4E35-923D-2CA62A497591";
paths = (
{
closed = 1;
nodes = (
"204 206 OFFCURVE",
"215 191 QCURVE",
"232 169 LINE",
"244 154 OFFCURVE",
"251 151 QCURVE",
"277 137 OFFCURVE",
"321 141 QCURVE",
"374 147 OFFCURVE",
"394 188 QCURVE",
"415 233 OFFCURVE",
"399 286 QCURVE",
"383 350 OFFCURVE",
"342 381 QCURVE",
"305 408 OFFCURVE",
"259 390 QCURVE",
"252 387 OFFCURVE",
"220 365 QCURVE",
"202 350 OFFCURVE",
"196 334 QCURVE",
"195 333 LINE",
"195 265 OFFCURVE",
"194 217 QCURVE"
);
},
{
closed = 1;
nodes = (
"151 0 OFFCURVE",
"119 1 QCURVE",
"90 2 OFFCURVE",
"50 45 OFFCURVE",
"51 73 QCURVE",
"57 250 OFFCURVE",
"52 648 QCURVE",
"52 677 OFFCURVE",
"92 718 OFFCURVE",
"150 719 OFFCURVE",
"191 679 OFFCURVE",
"192 650 QCURVE",
"192 634 OFFCURVE",
"193 536 OFFCURVE",
"193 514 QCURVE",
"207 520 LINE",
"271 543 OFFCURVE",
"326 535 QCURVE",
"380 527 OFFCURVE",
"426 492 QCURVE",
"506 432 OFFCURVE",
"534 321 QCURVE",
"563 218 OFFCURVE",
"520 128 QCURVE",
"495 76 OFFCURVE",
"401 10 OFFCURVE",
"335 3 QCURVE",
"250 -7 OFFCURVE",
"185 27 QCURVE",
"173 35 LINE"
);
}
);
width = 613;
}
);
unicode = 0062;
},
{
glyphname = c;
lastChange = "2019-10-09 22:50:45 +0000";
layers = (
{
layerId = UUID0;
paths = (
{
closed = 1;
nodes = (
"501 173 LINE",
"501 159 LINE",
"502 134 OFFCURVE",
"494 115 QCURVE",
"471 57 OFFCURVE",
"366 -1 OFFCURVE",
"304 -2 QCURVE",
"247 -3 OFFCURVE",
"138 39 OFFCURVE",
"103 79 QCURVE",
"67 121 OFFCURVE",
"44 238 OFFCURVE",
"65 344 OFFCURVE",
"90 393 QCURVE",
"110 430 OFFCURVE",
"166 489 OFFCURVE",
"241 530 OFFCURVE",
"326 533 OFFCURVE",
"375 513 QCURVE",
"401 501 OFFCURVE",
"428 475 QCURVE",
"446 457 LINE",
"460 443 LINE",
"476 430 OFFCURVE",
"480 388 OFFCURVE",
"453 357 OFFCURVE",
"411 353 OFFCURVE",
"396 367 QCURVE",
"387 374 OFFCURVE",
"375 386 QCURVE",
"358 403 LINE",
"344 417 OFFCURVE",
"335 421 QCURVE",
"290 441 OFFCURVE",
"208 400 OFFCURVE",
"179 346 QCURVE",
"149 290 OFFCURVE",
"150 178 OFFCURVE",
"179 145 QCURVE",
"197 124 OFFCURVE",
"265 98 OFFCURVE",
"303 98 QCURVE",
"380 100 OFFCURVE",
"402 153 QCURVE",
"401 158 LINE",
"401 162 LINE",
"401 166 LINE",
"401 169 LINE",
"401 187 LINE",
"402 208 OFFCURVE",
"433 235 OFFCURVE",
"475 233 OFFCURVE",
"502 202 OFFCURVE",
"501 181 QCURVE"
);
}
);
width = 551;
},
{
layerId = "E9DB90EB-1A2C-4E35-923D-2CA62A497591";
paths = (
{
closed = 1;
nodes = (
"523 156 OFFCURVE",
"517 143 OFFCURVE",
"511 127 OFFCURVE",
"508 122 QCURVE",
"492 84 OFFCURVE",
"470 62 QCURVE",
"436 27 OFFCURVE",
"389 13 QCURVE",
"343 -3 OFFCURVE",
"255 5 OFFCURVE",
"214 21 QCURVE",
"150 47 OFFCURVE",
"60 156 OFFCURVE",
"54 227 QCURVE",
"50 286 OFFCURVE",
"97 409 OFFCURVE",
"140 453 QCURVE",
"171 485 OFFCURVE",
"248 524 OFFCURVE",
"346 534 OFFCURVE",
"396 512 QCURVE",
"423 501 OFFCURVE",
"453 476 QCURVE",
"455 474 OFFCURVE",
"466 464 QCURVE",
"484 449 LINE",
"507 431 OFFCURVE",
"514 376 OFFCURVE",
"478 331 OFFCURVE",
"421 324 OFFCURVE",
"398 342 QCURVE",
"396 343 OFFCURVE",
"360 374 QCURVE",
"348 384 OFFCURVE",
"342 387 QCURVE",
"288 409 OFFCURVE",
"242 360 QCURVE",
"218 335 OFFCURVE",
"191 267 OFFCURVE",
"194 237 QCURVE",
"196 209 OFFCURVE",
"236 159 OFFCURVE",
"269 146 QCURVE",
"304 133 OFFCURVE",
"353 140 OFFCURVE",
"368 155 QCURVE",
"373 160 OFFCURVE",
"380 176 QCURVE",
"401 222 OFFCURVE",
"402 224 QCURVE",
"415 249 OFFCURVE",
"470 266 OFFCURVE",
"522 241 OFFCURVE",
"539 187 OFFCURVE",
"526 162 QCURVE"
);
}
);
width = 589;
}
);
unicode = 0063;
},
{
glyphname = d;
lastChange = "2019-10-09 22:50:45 +0000";
layers = (
{
layerId = UUID0;
paths = (
{
closed = 1;
nodes = (
"368 414 OFFCURVE",
"368 415 QCURVE",
"357 422 OFFCURVE",
"322 428 QCURVE",
"242 442 OFFCURVE",
"197 390 QCURVE",
"152 341 OFFCURVE",
"152 271 QCURVE",
"151 188 OFFCURVE",
"237 87 OFFCURVE",
"310 101 QCURVE",
"329 105 OFFCURVE",
"371 125 OFFCURVE",
"388 138 OFFCURVE",
"397 148 OFFCURVE",
"409 161 OFFCURVE",
"414 175 QCURVE",
"414 302 OFFCURVE",
"412 377 QCURVE",
"411 377 OFFCURVE",
"410 378 QCURVE"
);
},
{
closed = 1;
nodes = (
"515 211 OFFCURVE",
"515 50 QCURVE",
"515 29 OFFCURVE",
"486 0 OFFCURVE",
"465 0 QCURVE",
"449 0 OFFCURVE",
"423 18 OFFCURVE",
"418 43 QCURVE",
"375 12 OFFCURVE",
"328 3 QCURVE",
"263 -9 OFFCURVE",
"155 29 OFFCURVE",
"118 73 QCURVE",
"51 151 OFFCURVE",
"52 271 QCURVE",
"53 379 OFFCURVE",
"122 457 QCURVE",
"205 550 OFFCURVE",
"340 526 QCURVE",
"386 518 OFFCURVE",
"410 505 QCURVE",
"408 665 LINE",
"408 686 OFFCURVE",
"437 716 OFFCURVE",
"478 716 OFFCURVE",
"508 687 OFFCURVE",
"508 667 QCURVE"
);
}
);
width = 570;
},
{
layerId = "E9DB90EB-1A2C-4E35-923D-2CA62A497591";
paths = (
{
closed = 1;
nodes = (
"400 294 OFFCURVE",
"400 351 QCURVE",
"399 351 OFFCURVE",
"364 376 QCURVE",
"352 384 OFFCURVE",
"347 385 QCURVE",
"285 405 OFFCURVE",
"244 377 QCURVE",
"206 350 OFFCURVE",
"193 294 QCURVE",
"180 235 OFFCURVE",
"228 149 OFFCURVE",
"279 140 QCURVE",
"310 134 OFFCURVE",
"342 148 OFFCURVE",
"365 176 QCURVE",
"371 183 OFFCURVE",
"377 196 OFFCURVE",
"389 225 OFFCURVE",
"398 242 QCURVE",
"399 245 OFFCURVE",
"401 247 QCURVE"
);
},
{
closed = 1;
nodes = (
"541 158 OFFCURVE",
"541 74 QCURVE",
"541 45 OFFCURVE",
"500 4 OFFCURVE",
"471 4 QCURVE",
"441 4 OFFCURVE",
"420 36 QCURVE",
"401 21 OFFCURVE",
"380 12 QCURVE",
"326 -10 OFFCURVE",
"255 2 QCURVE",
"204 11 OFFCURVE",
"125 60 OFFCURVE",
"79 126 OFFCURVE",
"50 206 OFFCURVE",
"51 286 OFFCURVE",
"57 324 QCURVE",
"81 433 OFFCURVE",
"165 491 QCURVE",
"262 558 OFFCURVE",
"389 519 QCURVE",
"393 517 OFFCURVE",
"398 515 QCURVE",
"397 632 OFFCURVE",
"396 647 QCURVE",
"396 676 OFFCURVE",
"436 717 OFFCURVE",
"494 718 OFFCURVE",
"535 678 OFFCURVE",
"536 649 QCURVE"
);
}
);
width = 591;
}
);
unicode = 0064;
},
{
glyphname = e;
lastChange = "2019-10-09 22:50:45 +0000";
layers = (
{
layerId = UUID0;
paths = (
{
closed = 1;
nodes = (
"443 323 OFFCURVE",
"427 346 QCURVE",
"381 412 OFFCURVE",
"312 421 QCURVE",
"250 430 OFFCURVE",
"155 362 OFFCURVE",
"137 308 QCURVE",
"195 310 OFFCURVE",
"448 308 QCURVE"
);
},
{
closed = 1;
nodes = (
"144 165 OFFCURVE",
"226 105 OFFCURVE",
"298 99 QCURVE",
"346 95 OFFCURVE",
"363 99 QCURVE",
"392 106 OFFCURVE",
"422 117 OFFCURVE",
"441 127 QCURVE",
"460 134 OFFCURVE",
"497 115 OFFCURVE",
"511 77 OFFCURVE",
"493 41 OFFCURVE",
"475 32 QCURVE",
"459 23 OFFCURVE",
"422 7 OFFCURVE",
"355 -4 OFFCURVE",
"290 1 QCURVE",
"217 7 OFFCURVE",
"107 59 OFFCURVE",
"52 130 OFFCURVE",
"27 195 OFFCURVE",
"22 258 OFFCURVE",
"29 308 QCURVE",
"37 349 OFFCURVE",
"83 431 OFFCURVE",
"159 494 OFFCURVE",
"266 527 OFFCURVE",
"326 519 QCURVE",
"383 511 OFFCURVE",
"477 448 OFFCURVE",
"509 401 QCURVE",
"520 387 OFFCURVE",
"535 359 OFFCURVE",
"545 330 OFFCURVE",
"549 315 OFFCURVE",
"556 281 OFFCURVE",
"557 274 QCURVE",
"561 255 OFFCURVE",
"541 223 OFFCURVE",
"523 217 QCURVE",
"511 210 OFFCURVE",
"497 210 QCURVE",
"316 211 LINE",
"136 213 OFFCURVE",
"136 210 QCURVE",
"133 210 LINE"
);
}
);
width = 570;
},
{
layerId = "E9DB90EB-1A2C-4E35-923D-2CA62A497591";
paths = (
{
closed = 1;
nodes = (
"428 335 OFFCURVE",
"403 384 OFFCURVE",
"361 405 QCURVE",
"312 428 OFFCURVE",
"254 401 QCURVE",
"199 375 OFFCURVE",
"193 314 QCURVE",
"228 313 OFFCURVE",
"304 311 OFFCURVE",
"414 312 OFFCURVE",
"429 319 QCURVE"
);
},
{
closed = 1;
nodes = (
"525 83 OFFCURVE",
"506 60 QCURVE",
"486 41 OFFCURVE",
"444 15 OFFCURVE",
"398 5 QCURVE",
"328 -4 OFFCURVE",
"223 11 OFFCURVE",
"140 61 OFFCURVE",
"77 146 OFFCURVE",
"58 227 QCURVE",
"50 274 OFFCURVE",
"60 314 QCURVE",
"104 526 OFFCURVE",
"312 530 QCURVE",
"503 529 OFFCURVE",
"551 323 QCURVE",
"562 280 OFFCURVE",
"544 253 QCURVE",
"522 219 OFFCURVE",
"467 215 QCURVE",
"441 212 OFFCURVE",
"338 209 OFFCURVE",
"194 219 QCURVE",
"204 127 OFFCURVE",
"310 112 QCURVE",
"372 108 OFFCURVE",
"396 131 QCURVE",
"434 170 OFFCURVE",
"486 173 OFFCURVE",
"521 148 OFFCURVE",
"535 115 OFFCURVE",
"529 98 QCURVE"
);
}
);
width = 612;
}
);
unicode = 0065;
},
{
glyphname = f;
lastChange = "2019-10-09 22:50:45 +0000";
layers = (
{
layerId = UUID0;
paths = (
{
closed = 1;
nodes = (
"106 427 OFFCURVE",
"102 427 QCURVE",
"81 426 OFFCURVE",
"50 454 OFFCURVE",
"48 495 OFFCURVE",
"76 526 OFFCURVE",
"96 527 QCURVE",
"105 527 OFFCURVE",
"114 528 QCURVE",
"120 603 OFFCURVE",
"138 639 QCURVE",
"164 688 OFFCURVE",
"197 703 QCURVE",
"205 707 OFFCURVE",
"229 713 OFFCURVE",
"258 718 OFFCURVE",
"259 719 QCURVE",
"279 723 OFFCURVE",
"314 701 OFFCURVE",
"323 661 OFFCURVE",
"301 626 OFFCURVE",
"281 621 QCURVE",
"269 619 OFFCURVE",
"252 615 OFFCURVE",
"246 615 OFFCURVE",
"242 614 OFFCURVE",
"240 613 QCURVE",
"219 597 OFFCURVE",
"214 530 QCURVE",
"257 530 LINE",
"278 530 OFFCURVE",
"307 501 OFFCURVE",
"307 459 OFFCURVE",
"278 430 OFFCURVE",
"257 430 QCURVE",
"234 430 LINE",
"210 430 LINE",
"210 402 OFFCURVE",
"211 349 QCURVE",
"215 143 OFFCURVE",
"227 56 QCURVE",
"230 36 OFFCURVE",
"206 2 OFFCURVE",
"165 -3 OFFCURVE",
"131 21 OFFCURVE",
"129 42 QCURVE",
"115 134 OFFCURVE",
"111 348 QCURVE",
"110 399 OFFCURVE",
"110 428 QCURVE"
);
}
);
width = 369;
},
{
layerId = "E9DB90EB-1A2C-4E35-923D-2CA62A497591";
paths = (
{
closed = 1;
nodes = (
"322 565 OFFCURVE",
"284 571 QCURVE",
"262 575 OFFCURVE",
"252 575 QCURVE",
"243 575 OFFCURVE",
"241 572 QCURVE",
"240 566 OFFCURVE",
"240 559 QCURVE",
"239 551 OFFCURVE",
"241 521 QCURVE",
"241 519 LINE",
"291 518 LINE",
"320 517 OFFCURVE",
"360 475 OFFCURVE",
"358 417 OFFCURVE",
"316 377 OFFCURVE",
"287 378 QCURVE",
"250 379 LINE",
"255 221 OFFCURVE",
"246 65 QCURVE",
"244 37 OFFCURVE",
"200 -2 OFFCURVE",
"143 2 OFFCURVE",
"104 46 OFFCURVE",
"106 75 QCURVE",
"115 227 OFFCURVE",
"111 384 QCURVE",
"85 388 OFFCURVE",
"50 428 OFFCURVE",
"51 455 QCURVE",
"52 478 OFFCURVE",
"80 514 OFFCURVE",
"101 520 QCURVE",
"100 552 OFFCURVE",
"101 565 QCURVE",
"102 606 OFFCURVE",
"115 631 QCURVE",
"156 714 OFFCURVE",
"251 715 QCURVE",
"274 715 OFFCURVE",
"309 709 QCURVE",
"342 703 OFFCURVE",
"347 702 QCURVE",
"376 699 OFFCURVE",
"412 654 OFFCURVE",
"406 597 OFFCURVE",
"361 561 OFFCURVE",
"333 564 QCURVE"
);
}
);
width = 462;
}
);
unicode = 0066;
},
{
glyphname = g;
lastChange = "2019-10-09 22:50:45 +0000";
layers = (
{
layerId = UUID0;
paths = (
{
closed = 1;
nodes = (
"552 369 OFFCURVE",
"554 193 QCURVE",
"555 93 OFFCURVE",
"548 26 QCURVE",
"540 -64 OFFCURVE",
"515 -99 QCURVE",
"485 -141 OFFCURVE",
"384 -190 OFFCURVE",
"329 -195 QCURVE",
"271 -200 OFFCURVE",
"164 -164 OFFCURVE",
"129 -119 QCURVE",
"116 -102 OFFCURVE",
"99 -52 OFFCURVE",
"119 -15 OFFCURVE",
"158 -3 OFFCURVE",
"195 -23 OFFCURVE",
"201 -42 QCURVE",
"203 -50 OFFCURVE",
"209 -77 OFFCURVE",
"222 -85 QCURVE",
"248 -105 OFFCURVE",
"320 -96 QCURVE",
"357 -92 OFFCURVE",
"418 -62 OFFCURVE",
"433 -41 QCURVE",
"442 -28 OFFCURVE",
"449 33 QCURVE",
"405 6 OFFCURVE",
"335 4 QCURVE",
"268 2 OFFCURVE",
"162 53 OFFCURVE",
"101 134 OFFCURVE",
"86 183 QCURVE",
"72 231 OFFCURVE",
"76 302 QCURVE",
"84 413 OFFCURVE",
"163 479 QCURVE",
"253 554 OFFCURVE",
"386 527 QCURVE",
"420 520 OFFCURVE",
"440 501 QCURVE",
"450 531 OFFCURVE",
"482 535 QCURVE",
"503 537 OFFCURVE",
"535 511 OFFCURVE",
"538 491 QCURVE"
);
},
{
closed = 1;
nodes = (
"390 403 OFFCURVE",
"362 409 QCURVE",
"285 425 OFFCURVE",
"240 387 QCURVE",
"200 354 OFFCURVE",
"195 293 QCURVE",
"190 211 OFFCURVE",
"226 165 QCURVE",
"262 122 OFFCURVE",
"333 124 QCURVE",
"378 125 OFFCURVE",
"389 130 QCURVE",
"438 140 OFFCURVE",
"453 222 QCURVE",
"452 279 OFFCURVE",
"450 331 QCURVE",
"444 364 OFFCURVE",
"396 398 QCURVE"
);
}
);
width = 656;
},
{
layerId = "E9DB90EB-1A2C-4E35-923D-2CA62A497591";
paths = (
{
closed = 1;
nodes = (
"368 380 LINE",
"329 396 OFFCURVE",
"319 397 QCURVE",
"252 404 OFFCURVE",
"220 358 QCURVE",
"187 312 OFFCURVE",
"195 240 QCURVE",
"203 172 OFFCURVE",
"240 143 QCURVE",
"275 116 OFFCURVE",
"333 147 QCURVE",
"337 149 OFFCURVE",
"340 151 QCURVE",
"347 156 LINE",
"350 158 OFFCURVE",
"357 165 OFFCURVE",
"362 169 OFFCURVE",
"371 179 OFFCURVE",
"375 183 OFFCURVE",
"385 196 OFFCURVE",
"389 200 OFFCURVE",
"401 215 OFFCURVE",
"403 218 QCURVE",
"404 305 OFFCURVE",
"402 365 QCURVE"
);
},
{
closed = 1;
nodes = (
"537 357 OFFCURVE",
"537 97 OFFCURVE",
"536 39 OFFCURVE",
"532 17 QCURVE",
"509 -77 OFFCURVE",
"443 -146 QCURVE",
"416 -173 OFFCURVE",
"357 -204 OFFCURVE",
"280 -211 OFFCURVE",
"230 -200 QCURVE",
"175 -180 OFFCURVE",
"125 -132 QCURVE",
"98 -112 OFFCURVE",
"89 -46 OFFCURVE",
"134 4 OFFCURVE",
"197 -8 OFFCURVE",
"210 -27 QCURVE",
"230 -54 OFFCURVE",
"259 -74 OFFCURVE",
"264 -76 QCURVE",
"313 -90 OFFCURVE",
"348 -54 QCURVE",
"384 -17 OFFCURVE",
"400 33 QCURVE",
"395 31 LINE",
"329 -4 OFFCURVE",
"209 1 OFFCURVE",
"160 38 QCURVE",
"118 70 OFFCURVE",
"70 170 OFFCURVE",
"64 225 QCURVE",
"50 347 OFFCURVE",
"112 435 QCURVE",
"148 485 OFFCURVE",
"260 536 OFFCURVE",
"331 529 QCURVE",
"360 526 OFFCURVE",
"413 504 QCURVE",
"431 526 OFFCURVE",
"460 529 QCURVE",
"487 530 OFFCURVE",
"528 494 OFFCURVE",
"530 466 QCURVE"
);
}
);
width = 587;
}
);
unicode = 0067;
},
{
glyphname = h;
lastChange = "2019-10-09 22:50:45 +0000";
layers = (
{
layerId = UUID0;
paths = (
{
closed = 1;
nodes = (
"150 637 OFFCURVE",
"150 487 QCURVE",
"214 537 OFFCURVE",
"285 530 QCURVE",
"431 516 OFFCURVE",
"447 307 QCURVE",
"450 249 OFFCURVE",
"447 163 OFFCURVE",
"439 59 OFFCURVE",
"439 48 QCURVE",
"438 27 OFFCURVE",
"408 -1 OFFCURVE",
"367 0 OFFCURVE",
"339 30 OFFCURVE",
"339 50 QCURVE",
"339 51 OFFCURVE",
"345 144 QCURVE",
"351 246 OFFCURVE",
"347 299 QCURVE",
"338 424 OFFCURVE",
"275 430 QCURVE",
"246 433 OFFCURVE",
"195 396 OFFCURVE",
"158 354 QCURVE",
"156 351 OFFCURVE",
"154 349 QCURVE",
"161 129 OFFCURVE",
"161 49 QCURVE",
"161 28 OFFCURVE",
"132 -1 OFFCURVE",
"90 -1 OFFCURVE",
"61 28 OFFCURVE",
"61 49 QCURVE",
"61 95 OFFCURVE",
"53 360 QCURVE",
"47 551 OFFCURVE",
"51 668 QCURVE",
"52 688 OFFCURVE",
"82 717 OFFCURVE",
"123 715 OFFCURVE",
"152 685 OFFCURVE",
"151 664 QCURVE"
);
}
);
width = 498;
},
{
layerId = "E9DB90EB-1A2C-4E35-923D-2CA62A497591";
paths = (
{
closed = 1;
nodes = (
"198 158 OFFCURVE",
"198 65 QCURVE",
"198 36 OFFCURVE",
"157 -5 OFFCURVE",
"99 -5 OFFCURVE",
"58 36 OFFCURVE",
"58 65 QCURVE",
"58 158 OFFCURVE",
"50 532 OFFCURVE",
"50 649 QCURVE",
"50 678 OFFCURVE",
"91 719 OFFCURVE",
"149 719 OFFCURVE",
"190 678 OFFCURVE",
"190 649 QCURVE",
"190 564 OFFCURVE",
"191 504 QCURVE",
"195 506 LINE",
"273 541 OFFCURVE",
"348 526 QCURVE",
"393 517 OFFCURVE",
"464 459 OFFCURVE",
"480 410 QCURVE",
"488 384 OFFCURVE",
"490 330 QCURVE",
"492 291 OFFCURVE",
"491 228 QCURVE",
"490 195 OFFCURVE",
"485 61 QCURVE",
"484 34 OFFCURVE",
"443 -3 OFFCURVE",
"389 -1 OFFCURVE",
"352 40 OFFCURVE",
"353 67 QCURVE",
"359 228 OFFCURVE",
"359 230 QCURVE",
"360 290 OFFCURVE",
"359 325 QCURVE",
"357 360 OFFCURVE",
"354 368 QCURVE",
"347 391 OFFCURVE",
"322 396 QCURVE",
"288 403 OFFCURVE",
"249 386 QCURVE",
"236 380 OFFCURVE",
"194 351 QCURVE"
);
}
);
width = 542;
}
);
unicode = 0068;
},
{
glyphname = i;
lastChange = "2019-10-09 22:50:45 +0000";
layers = (
{
layerId = UUID0;
paths = (
{
closed = 1;
nodes = (
"163 433 OFFCURVE",
"158 125 OFFCURVE",
"160 50 QCURVE",
"160 29 OFFCURVE",
"132 -1 OFFCURVE",
"90 -1 OFFCURVE",
"60 27 OFFCURVE",
"60 48 QCURVE",
"58 123 OFFCURVE",
"63 433 OFFCURVE",
"63 481 QCURVE",
"63 502 OFFCURVE",
"92 531 OFFCURVE",
"134 531 OFFCURVE",
"163 502 OFFCURVE",
"163 481 QCURVE"
);
},
{
closed = 1;
nodes = (
"160 686 OFFCURVE",
"160 644 OFFCURVE",
"131 615 OFFCURVE",
"89 615 OFFCURVE",
"60 644 OFFCURVE",
"60 686 OFFCURVE",
"89 715 OFFCURVE",
"131 715 OFFCURVE",
"145 700 QCURVE"
);
}
);
width = 211;
},
{
layerId = "E9DB90EB-1A2C-4E35-923D-2CA62A497591";
paths = (
{
closed = 1;
nodes = (
"190 272 OFFCURVE",
"193 70 QCURVE",
"193 41 OFFCURVE",
"153 0 OFFCURVE",
"95 -1 OFFCURVE",
"54 39 OFFCURVE",
"53 68 QCURVE",
"50 280 OFFCURVE",
"56 465 QCURVE",
"57 494 OFFCURVE",
"100 533 OFFCURVE",
"158 531 OFFCURVE",
"197 488 OFFCURVE",
"196 459 QCURVE"
);
},
{
closed = 1;
nodes = (
"191 679 OFFCURVE",
"191 621 OFFCURVE",
"150 580 OFFCURVE",
"92 580 OFFCURVE",
"51 621 OFFCURVE",
"51 679 OFFCURVE",
"92 720 OFFCURVE",
"150 720 OFFCURVE",
"170 699 QCURVE"
);
}
);
width = 247;
}
);
unicode = 0069;
},
{
glyphname = j;
lastChange = "2019-10-09 22:50:45 +0000";
layers = (
{
layerId = UUID0;
paths = (
{
closed = 1;
nodes = (
"219 251 OFFCURVE",
"220 178 QCURVE",
"221 69 OFFCURVE",
"214 -3 QCURVE",
"210 -46 OFFCURVE",
"203 -73 QCURVE",
"194 -114 OFFCURVE",
"174 -133 QCURVE",
"158 -149 OFFCURVE",
"130 -162 QCURVE",
"129 -163 OFFCURVE",
"106 -174 OFFCURVE",
"99 -178 QCURVE",
"81 -189 OFFCURVE",
"41 -178 OFFCURVE",
"20 -142 OFFCURVE",
"31 -102 OFFCURVE",
"49 -92 QCURVE",
"50 -91 OFFCURVE",
"85 -73 QCURVE",
"97 -67 OFFCURVE",
"102 -63 QCURVE",
"104 -58 OFFCURVE",
"106 -49 QCURVE",
"112 -29 OFFCURVE",
"115 7 QCURVE",
"121 71 OFFCURVE",
"120 177 QCURVE",
"119 248 OFFCURVE",
"108 482 QCURVE",
"107 502 OFFCURVE",
"135 533 OFFCURVE",
"176 535 OFFCURVE",
"207 507 OFFCURVE",
"208 486 QCURVE"
);
},
{
closed = 1;
nodes = (
"201 686 OFFCURVE",
"201 644 OFFCURVE",
"172 615 OFFCURVE",
"130 615 OFFCURVE",
"101 644 OFFCURVE",
"101 686 OFFCURVE",
"130 715 OFFCURVE",
"172 715 OFFCURVE",
"186 700 QCURVE"
);
}
);
width = 270;
},
{
layerId = "E9DB90EB-1A2C-4E35-923D-2CA62A497591";
paths = (
{
closed = 1;
nodes = (
"308 458 OFFCURVE",
"313 337 OFFCURVE",
"318 193 OFFCURVE",
"318 138 QCURVE",
"318 17 OFFCURVE",
"312 -40 QCURVE",
"308 -84 OFFCURVE",
"300 -112 QCURVE",
"286 -161 OFFCURVE",
"255 -182 QCURVE",
"222 -204 OFFCURVE",
"172 -204 QCURVE",
"160 -204 OFFCURVE",
"131 -203 OFFCURVE",
"131 -204 QCURVE",
"102 -208 OFFCURVE",
"57 -172 OFFCURVE",
"50 -114 OFFCURVE",
"86 -69 OFFCURVE",
"115 -66 QCURVE",
"132 -64 OFFCURVE",
"168 -65 QCURVE",
"171 -49 OFFCURVE",
"173 -26 QCURVE",
"179 34 OFFCURVE",
"179 137 QCURVE",
"178 192 OFFCURVE",
"174 334 OFFCURVE",
"169 453 OFFCURVE",
"168 460 QCURVE",
"167 488 OFFCURVE",
"207 531 OFFCURVE",
"264 533 OFFCURVE",
"307 493 OFFCURVE",
"308 464 QCURVE"
);
},
{
closed = 1;
nodes = (
"296 680 OFFCURVE",
"296 622 OFFCURVE",
"255 581 OFFCURVE",
"197 581 OFFCURVE",
"156 622 OFFCURVE",
"156 680 OFFCURVE",
"197 721 OFFCURVE",
"255 721 OFFCURVE",
"275 700 QCURVE"
);
}
);
width = 368;
}
);
unicode = 006A;
},
{
glyphname = k;
lastChange = "2019-10-09 22:50:45 +0000";
layers = (
{
layerId = UUID0;
paths = (
{
closed = 1;
nodes = (
"163 209 LINE",
"161 207 OFFCURVE",
"159 206 QCURVE",
"157 128 OFFCURVE",
"153 47 QCURVE",
"152 26 OFFCURVE",
"121 -2 OFFCURVE",
"80 0 OFFCURVE",
"52 31 OFFCURVE",
"53 51 QCURVE",
"64 281 OFFCURVE",
"64 666 QCURVE",
"64 687 OFFCURVE",
"93 716 OFFCURVE",
"135 716 OFFCURVE",
"164 687 OFFCURVE",
"164 666 QCURVE",
"164 470 OFFCURVE",
"162 338 QCURVE",
"308 460 OFFCURVE",
"364 514 QCURVE",
"377 530 OFFCURVE",
"419 532 OFFCURVE",
"450 505 OFFCURVE",
"452 463 OFFCURVE",
"438 448 QCURVE",
"388 399 OFFCURVE",
"295 319 QCURVE",
"355 209 OFFCURVE",
"469 82 QCURVE",
"483 67 OFFCURVE",
"481 26 OFFCURVE",
"450 -2 OFFCURVE",
"409 0 OFFCURVE",
"395 16 QCURVE",
"280 143 OFFCURVE",
"217 254 QCURVE"
);
}
);
width = 532;
},
{
layerId = "E9DB90EB-1A2C-4E35-923D-2CA62A497591";
paths = (
{
closed = 1;
nodes = (
"207 151 LINE",
"205 150 OFFCURVE",
"203 148 QCURVE",
"203 67 LINE",
"202 38 OFFCURVE",
"161 -2 OFFCURVE",
"103 -1 OFFCURVE",
"63 40 OFFCURVE",
"63 69 QCURVE",
"66 249 OFFCURVE",
"53 645 QCURVE",
"52 674 OFFCURVE",
"91 716 OFFCURVE",
"149 719 OFFCURVE",
"191 680 OFFCURVE",
"193 651 QCURVE",
"199 476 OFFCURVE",
"202 339 QCURVE",
"280 415 OFFCURVE",
"366 507 QCURVE",
"386 528 OFFCURVE",
"443 530 OFFCURVE",
"486 490 OFFCURVE",
"488 433 OFFCURVE",
"468 411 QCURVE",
"349 289 LINE",
"405 200 OFFCURVE",
"487 116 QCURVE",
"507 96 OFFCURVE",
"506 38 OFFCURVE",
"465 -2 OFFCURVE",
"407 -1 OFFCURVE",
"387 20 QCURVE",
"304 105 OFFCURVE",
"247 189 QCURVE"
);
}
);
width = 532;
}
);
unicode = 006B;
},
{
glyphname = l;
lastChange = "2019-10-09 22:50:45 +0000";
layers = (
{
layerId = UUID0;
paths = (
{
closed = 1;
nodes = (
"153 597 OFFCURVE",
"157 343 OFFCURVE",
"156 136 OFFCURVE",
"153 48 QCURVE",
"152 27 OFFCURVE",
"122 -1 OFFCURVE",
"80 1 OFFCURVE",
"52 31 OFFCURVE",
"53 52 QCURVE",
"57 185 OFFCURVE",
"57 323 OFFCURVE",
"53 597 OFFCURVE",
"53 666 QCURVE",
"53 687 OFFCURVE",
"82 716 OFFCURVE",
"124 716 OFFCURVE",
"153 687 OFFCURVE",
"153 666 QCURVE"
);
}
);
width = 212;
},
{
layerId = "E9DB90EB-1A2C-4E35-923D-2CA62A497591";
paths = (
{
closed = 1;
nodes = (
"190 566 OFFCURVE",
"191 338 OFFCURVE",
"191 152 OFFCURVE",
"190 67 QCURVE",
"189 38 OFFCURVE",
"148 -2 OFFCURVE",
"90 -1 OFFCURVE",
"50 40 OFFCURVE",
"50 69 QCURVE",
"52 69 OFFCURVE",
"51 350 QCURVE",
"50 646 LINE",
"50 675 OFFCURVE",
"91 716 OFFCURVE",
"149 716 OFFCURVE",
"190 675 OFFCURVE",
"190 646 QCURVE"
);
}
);
width = 241;
}
);
unicode = 006C;
},
{
glyphname = m;
lastChange = "2019-10-09 22:50:45 +0000";
layers = (
{
layerId = UUID0;
paths = (
{
closed = 1;
nodes = (
"448 313 OFFCURVE",
"448 227 QCURVE",
"448 164 OFFCURVE",
"451 51 QCURVE",
"452 31 OFFCURVE",
"423 1 OFFCURVE",
"382 -1 OFFCURVE",
"352 28 OFFCURVE",
"351 49 QCURVE",
"348 162 OFFCURVE",
"348 227 QCURVE",
"348 253 LINE",
"348 277 LINE",
"348 282 OFFCURVE",
"347 314 OFFCURVE",
"346 329 OFFCURVE",
"343 354 OFFCURVE",
"340 373 OFFCURVE",
"337 382 QCURVE",
"329 410 OFFCURVE",
"315 421 QCURVE",
"300 433 OFFCURVE",
"270 430 QCURVE",
"237 427 OFFCURVE",
"213 412 QCURVE",
"190 397 OFFCURVE",
"166 364 QCURVE",
"161 358 OFFCURVE",
"155 353 QCURVE",
"159 153 OFFCURVE",
"155 48 QCURVE",
"154 27 OFFCURVE",
"124 -1 OFFCURVE",
"82 1 OFFCURVE",
"54 31 OFFCURVE",
"55 52 QCURVE",
"57 163 OFFCURVE",
"57 226 OFFCURVE",
"52 453 OFFCURVE",
"52 485 QCURVE",
"52 500 OFFCURVE",
"81 530 OFFCURVE",
"121 530 OFFCURVE",
"150 504 OFFCURVE",
"152 491 QCURVE",
"199 524 OFFCURVE",
"262 530 QCURVE",
"331 536 OFFCURVE",
"377 499 QCURVE",
"399 481 OFFCURVE",
"414 455 QCURVE",
"491 529 OFFCURVE",
"583 530 QCURVE",
"657 531 OFFCURVE",
"702 484 QCURVE",
"737 443 OFFCURVE",
"749 379 QCURVE",
"754 349 OFFCURVE",
"756 278 OFFCURVE",
"753 189 OFFCURVE",
"753 183 QCURVE",
"753 156 LINE",
"753 138 LINE",
"753 128 LINE",
"753 123 OFFCURVE",
"754 113 OFFCURVE",
"755 100 OFFCURVE",
"757 70 OFFCURVE",
"759 52 QCURVE",
"760 31 OFFCURVE",
"733 0 OFFCURVE",
"692 -3 OFFCURVE",
"661 24 OFFCURVE",
"659 44 QCURVE",
"658 62 OFFCURVE",
"655 93 OFFCURVE",
"654 108 OFFCURVE",
"653 119 OFFCURVE",
"653 126 QCURVE",
"653 136 LINE",
"653 156 LINE",
"653 183 LINE",
"653 199 OFFCURVE",
"656 280 OFFCURVE",
"655 336 OFFCURVE",
"650 361 QCURVE",
"644 396 OFFCURVE",
"614 427 OFFCURVE",
"583 427 QCURVE",
"514 426 OFFCURVE",
"445 343 QCURVE"
);
}
);
width = 813;
},
{
layerId = "E9DB90EB-1A2C-4E35-923D-2CA62A497591";
paths = (
{
closed = 1;
nodes = (
"193 363 OFFCURVE",
"191 355 QCURVE",
"191 351 LINE",
"193 169 OFFCURVE",
"193 70 QCURVE",
"193 41 OFFCURVE",
"152 0 OFFCURVE",
"94 0 OFFCURVE",
"53 41 OFFCURVE",
"53 70 QCURVE",
"53 165 OFFCURVE",
"50 458 QCURVE",
"50 487 OFFCURVE",
"90 528 OFFCURVE",
"119 529 QCURVE",
"147 529 OFFCURVE",
"168 510 QCURVE",
"226 537 OFFCURVE",
"291 531 QCURVE",
"368 524 OFFCURVE",
"421 476 QCURVE",
"457 507 OFFCURVE",
"549 533 OFFCURVE",
"594 529 QCURVE",
"656 523 OFFCURVE",
"758 453 OFFCURVE",
"778 391 QCURVE",
"789 357 OFFCURVE",
"798 244 OFFCURVE",
"797 181 OFFCURVE",
"792 65 OFFCURVE",
"792 64 QCURVE",
"791 37 OFFCURVE",
"751 -1 OFFCURVE",
"697 1 OFFCURVE",
"659 41 OFFCURVE",
"660 68 QCURVE",
"660 80 OFFCURVE",
"665 187 OFFCURVE",
"666 239 OFFCURVE",
"660 327 OFFCURVE",
"652 351 QCURVE",
"646 370 OFFCURVE",
"610 395 OFFCURVE",
"583 397 QCURVE",
"555 400 OFFCURVE",
"508 381 OFFCURVE",
"497 364 QCURVE",
"496 361 OFFCURVE",
"494 353 QCURVE",
"494 350 OFFCURVE",
"494 347 QCURVE",
"492 339 LINE",
"492 336 OFFCURVE",
"492 333 QCURVE",
"491 324 OFFCURVE",
"490 317 QCURVE",
"493 286 OFFCURVE",
"495 198 OFFCURVE",
"493 144 OFFCURVE",
"489 73 OFFCURVE",
"489 63 QCURVE",
"488 36 OFFCURVE",
"448 -2 OFFCURVE",
"394 0 OFFCURVE",
"356 40 OFFCURVE",
"357 67 QCURVE",
"358 84 OFFCURVE",
"360 126 QCURVE",
"362 184 LINE",
"363 209 OFFCURVE",
"361 284 OFFCURVE",
"358 308 QCURVE",
"357 312 OFFCURVE",
"357 316 QCURVE",
"354 337 OFFCURVE",
"349 353 QCURVE",
"343 372 OFFCURVE",
"307 397 OFFCURVE",
"280 399 QCURVE",
"252 402 OFFCURVE",
"205 383 OFFCURVE",
"194 366 QCURVE"
);
}
);
width = 848;
}
);
unicode = 006D;
},
{
glyphname = n;
lastChange = "2019-10-09 22:50:45 +0000";
layers = (
{
layerId = UUID0;
paths = (
{
closed = 1;
nodes = (
"151 311 OFFCURVE",
"154 107 OFFCURVE",
"154 50 QCURVE",
"154 29 OFFCURVE",
"125 0 OFFCURVE",
"83 0 OFFCURVE",
"54 29 OFFCURVE",
"54 50 QCURVE",
"54 103 OFFCURVE",
"50 397 OFFCURVE",
"51 481 QCURVE",
"51 502 OFFCURVE",
"81 530 OFFCURVE",
"123 530 OFFCURVE",
"151 500 OFFCURVE",
"151 479 QCURVE",
"151 468 LINE",
"241 534 OFFCURVE",
"329 529 QCURVE",
"366 527 OFFCURVE",
"425 495 OFFCURVE",
"460 451 OFFCURVE",
"483 389 OFFCURVE",
"493 335 OFFCURVE",
"494 304 QCURVE",
"498 248 OFFCURVE",
"491 154 QCURVE",
"484 62 OFFCURVE",
"484 50 QCURVE",
"484 29 OFFCURVE",
"455 0 OFFCURVE",
"413 0 OFFCURVE",
"384 29 OFFCURVE",
"384 50 QCURVE",
"384 66 OFFCURVE",
"391 161 QCURVE",
"398 245 OFFCURVE",
"395 298 QCURVE",
"390 367 OFFCURVE",
"355 427 OFFCURVE",
"323 429 QCURVE",
"312 430 OFFCURVE",
"289 427 OFFCURVE",
"271 423 OFFCURVE",
"259 417 QCURVE",
"240 408 LINE",
"233 404 OFFCURVE",
"205 383 OFFCURVE",
"193 375 OFFCURVE",
"158 347 OFFCURVE",
"151 342 QCURVE"
);
}
);
width = 548;
},
{
layerId = "E9DB90EB-1A2C-4E35-923D-2CA62A497591";
paths = (
{
closed = 1;
nodes = (
"203 361 OFFCURVE",
"201 353 QCURVE",
"201 350 OFFCURVE",
"200 347 QCURVE",
"200 339 LINE",
"199 336 OFFCURVE",
"199 333 QCURVE",
"199 330 LINE",
"199 299 OFFCURVE",
"201 117 OFFCURVE",
"201 70 QCURVE",
"201 41 OFFCURVE",
"160 0 OFFCURVE",
"102 0 OFFCURVE",
"61 41 OFFCURVE",
"61 70 QCURVE",
"61 112 OFFCURVE",
"58 372 OFFCURVE",
"51 456 QCURVE",
"50 486 OFFCURVE",
"74 515 OFFCURVE",
"104 518 QCURVE",
"156 518 OFFCURVE",
"167 499 QCURVE",
"226 536 OFFCURVE",
"301 529 QCURVE",
"363 523 OFFCURVE",
"465 453 OFFCURVE",
"485 391 QCURVE",
"496 357 OFFCURVE",
"505 253 OFFCURVE",
"504 182 OFFCURVE",
"499 64 OFFCURVE",
"499 63 QCURVE",
"498 36 OFFCURVE",
"458 -2 OFFCURVE",
"404 0 OFFCURVE",
"366 40 OFFCURVE",
"367 67 QCURVE",
"367 78 OFFCURVE",
"372 188 OFFCURVE",
"373 248 OFFCURVE",
"367 327 OFFCURVE",
"359 351 QCURVE",
"353 370 OFFCURVE",
"317 395 OFFCURVE",
"290 397 QCURVE",
"262 400 OFFCURVE",
"215 381 OFFCURVE",
"204 364 QCURVE"
);
}
);
width = 555;
}
);
unicode = 006E;
},
{
glyphname = o;
lastChange = "2019-10-09 22:50:45 +0000";
layers = (
{
layerId = UUID0;
paths = (
{
closed = 1;
nodes = (
"216 429 OFFCURVE",
"215 429 QCURVE",
"208 427 LINE",
"164 403 OFFCURVE",
"117 298 OFFCURVE",
"127 242 QCURVE",
"138 174 OFFCURVE",
"176 139 QCURVE",
"217 101 OFFCURVE",
"285 111 QCURVE",
"328 117 OFFCURVE",
"389 194 OFFCURVE",
"408 280 OFFCURVE",
"375 383 OFFCURVE",
"339 406 QCURVE",
"328 414 OFFCURVE",
"314 421 OFFCURVE",
"295 426 OFFCURVE",
"284 426 OFFCURVE",
"248 428 OFFCURVE",
"234 429 QCURVE",
"231 429 OFFCURVE",
"227 430 QCURVE"
);
},
{
closed = 1;
nodes = (
"256 528 OFFCURVE",
"286 527 OFFCURVE",
"296 526 OFFCURVE",
"321 523 OFFCURVE",
"329 521 QCURVE",
"348 514 LINE",
"360 510 OFFCURVE",
"382 498 OFFCURVE",
"395 490 QCURVE",
"460 446 OFFCURVE",
"510 287 OFFCURVE",
"498 238 QCURVE",
"489 184 OFFCURVE",
"443 91 OFFCURVE",
"362 19 OFFCURVE",
"316 7 QCURVE",
"184 -25 OFFCURVE",
"105 60 QCURVE",
"44 125 OFFCURVE",
"29 227 QCURVE",
"18 307 OFFCURVE",
"48 379 QCURVE",
"82 471 OFFCURVE",
"160 515 QCURVE",
"176 524 OFFCURVE",
"200 528 QCURVE",
"201 528 OFFCURVE",
"214 529 QCURVE",
"219 530 OFFCURVE",
"222 531 QCURVE",
"237 534 OFFCURVE",
"252 528 QCURVE"
);
}
);
width = 528;
},
{
layerId = "E9DB90EB-1A2C-4E35-923D-2CA62A497591";
paths = (
{
closed = 1;
nodes = (
"242 392 OFFCURVE",
"241 392 QCURVE",
"231 388 LINE",
"203 365 OFFCURVE",
"174 283 OFFCURVE",
"180 239 QCURVE",
"184 197 OFFCURVE",
"227 145 OFFCURVE",
"262 138 QCURVE",
"304 130 OFFCURVE",
"326 138 QCURVE",
"345 145 OFFCURVE",
"383 208 OFFCURVE",
"394 305 OFFCURVE",
"371 369 OFFCURVE",
"354 376 QCURVE",
"341 382 OFFCURVE",
"319 387 OFFCURVE",
"279 392 OFFCURVE",
"259 397 QCURVE"
);
},
{
closed = 1;
nodes = (
"382 514 OFFCURVE",
"414 500 QCURVE",
"451 482 OFFCURVE",
"502 420 OFFCURVE",
"523 350 OFFCURVE",
"533 273 OFFCURVE",
"527 242 QCURVE",
"522 194 OFFCURVE",
"488 106 OFFCURVE",
"419 26 OFFCURVE",
"372 10 QCURVE",
"315 -10 OFFCURVE",
"236 6 QCURVE",
"149 23 OFFCURVE",
"100 84 QCURVE",
"51 145 OFFCURVE",
"41 224 QCURVE",
"32 297 OFFCURVE",
"83 443 OFFCURVE",
"141 492 QCURVE",
"165 510 OFFCURVE",
"200 521 QCURVE",
"201 521 OFFCURVE",
"221 527 QCURVE",
"229 529 OFFCURVE",
"233 531 QCURVE",
"261 542 OFFCURVE",
"288 529 QCURVE"
);
}
);
width = 567;
}
);
unicode = 006F;
},
{
glyphname = p;
lastChange = "2019-10-09 22:50:45 +0000";
layers = (
{
layerId = UUID0;
paths = (
{
closed = 1;
nodes = (
"156 182 LINE",
"161 177 OFFCURVE",
"164 171 QCURVE",
"192 127 OFFCURVE",
"254 93 OFFCURVE",
"298 101 QCURVE",
"374 115 OFFCURVE",
"435 232 OFFCURVE",
"414 311 QCURVE",
"393 389 OFFCURVE",
"341 418 QCURVE",
"288 449 OFFCURVE",
"218 406 QCURVE",
"186 387 OFFCURVE",
"181 381 QCURVE",
"178 378 OFFCURVE",
"174 373 OFFCURVE",
"169 364 QCURVE",
"156 346 LINE"
);
},
{
closed = 1;
nodes = (
"166 492 LINE",
"226 528 OFFCURVE",
"344 534 OFFCURVE",
"391 505 QCURVE",
"435 480 OFFCURVE",
"496 390 OFFCURVE",
"510 337 QCURVE",
"521 299 OFFCURVE",
"523 213 OFFCURVE",
"499 139 OFFCURVE",
"453 67 OFFCURVE",
"370 13 OFFCURVE",
"316 3 QCURVE",
"223 -14 OFFCURVE",
"155 35 QCURVE",
"154 -58 OFFCURVE",
"152 -151 QCURVE",
"152 -172 OFFCURVE",
"122 -200 OFFCURVE",
"80 -200 OFFCURVE",
"52 -170 OFFCURVE",
"52 -149 QCURVE",
"56 48 OFFCURVE",
"56 480 QCURVE",
"56 501 OFFCURVE",
"85 530 OFFCURVE",
"106 530 QCURVE",
"121 530 OFFCURVE",
"146 503 OFFCURVE",
"152 483 QCURVE"
);
}
);
width = 571;
},
{
layerId = "E9DB90EB-1A2C-4E35-923D-2CA62A497591";
paths = (
{
closed = 1;
nodes = (
"213 172 OFFCURVE",
"263 139 OFFCURVE",
"287 139 QCURVE",
"302 134 OFFCURVE",
"339 152 QCURVE",
"378 172 OFFCURVE",
"404 264 OFFCURVE",
"386 319 QCURVE",
"364 368 OFFCURVE",
"330 384 QCURVE",
"295 400 OFFCURVE",
"229 374 OFFCURVE",
"193 319 QCURVE",
"193 209 LINE"
);
},
{
closed = 1;
nodes = (
"290 555 OFFCURVE",
"388 511 QCURVE",
"474 471 OFFCURVE",
"514 369 QCURVE",
"530 327 OFFCURVE",
"537 236 OFFCURVE",
"516 139 OFFCURVE",
"452 53 OFFCURVE",
"401 28 QCURVE",
"315 -15 OFFCURVE",
"247 5 QCURVE",
"219 13 OFFCURVE",
"192 31 QCURVE",
"191 -46 OFFCURVE",
"190 -132 QCURVE",
"189 -161 OFFCURVE",
"148 -201 OFFCURVE",
"90 -200 OFFCURVE",
"50 -159 OFFCURVE",
"50 -130 QCURVE",
"53 43 OFFCURVE",
"53 458 QCURVE",
"53 487 OFFCURVE",
"94 528 OFFCURVE",
"123 528 QCURVE",
"161 528 OFFCURVE",
"182 495 QCURVE"
);
}
);
width = 587;
}
);
unicode = 0070;
},
{
glyphname = q;
lastChange = "2019-10-09 22:50:45 +0000";
layers = (
{
layerId = UUID0;
paths = (
{
closed = 1;
nodes = (
"427 351 LINE",
"420 360 OFFCURVE",
"416 364 QCURVE",
"408 372 OFFCURVE",
"381 390 QCURVE",
"299 440 OFFCURVE",
"240 410 QCURVE",
"186 382 OFFCURVE",
"161 301 QCURVE",
"139 239 OFFCURVE",
"197 115 OFFCURVE",
"268 102 QCURVE",
"311 94 OFFCURVE",
"338 106 QCURVE",
"351 112 OFFCURVE",
"378 135 OFFCURVE",
"393 151 OFFCURVE",
"411 173 QCURVE",
"437 203 LINE",
"437 340 LINE"
);
},
{
closed = 1;
nodes = (
"440 503 OFFCURVE",
"467 526 OFFCURVE",
"484 526 QCURVE",
"505 526 OFFCURVE",
"535 498 OFFCURVE",
"535 477 QCURVE",
"536 414 OFFCURVE",
"536 365 QCURVE",
"538 357 OFFCURVE",
"536 350 QCURVE",
"539 125 OFFCURVE",
"530 -146 QCURVE",
"529 -166 OFFCURVE",
"499 -195 OFFCURVE",
"458 -193 OFFCURVE",
"429 -163 OFFCURVE",
"430 -142 QCURVE",
"433 -55 OFFCURVE",
"435 52 QCURVE",
"407 28 OFFCURVE",
"380 16 QCURVE",
"324 -10 OFFCURVE",
"250 4 QCURVE",
"197 14 OFFCURVE",
"117 70 OFFCURVE",
"73 145 OFFCURVE",
"52 222 OFFCURVE",
"55 290 OFFCURVE",
"64 328 QCURVE",
"82 385 OFFCURVE",
"147 475 OFFCURVE",
"184 500 QCURVE",
"304 575 OFFCURVE",
"433 474 QCURVE",
"436 473 LINE"
);
}
);
width = 585;
},
{
layerId = "E9DB90EB-1A2C-4E35-923D-2CA62A497591";
paths = (
{
closed = 1;
nodes = (
"539 201 OFFCURVE",
"532 -134 QCURVE",
"531 -163 OFFCURVE",
"489 -202 OFFCURVE",
"431 -201 OFFCURVE",
"392 -159 OFFCURVE",
"392 -130 QCURVE",
"394 -30 OFFCURVE",
"395 44 QCURVE",
"329 2 OFFCURVE",
"202 -3 OFFCURVE",
"148 39 QCURVE",
"103 76 OFFCURVE",
"57 194 OFFCURVE",
"55 257 QCURVE",
"52 318 OFFCURVE",
"89 441 OFFCURVE",
"132 481 QCURVE",
"184 531 OFFCURVE",
"326 534 OFFCURVE",
"403 489 QCURVE",
"411 507 OFFCURVE",
"445 529 OFFCURVE",
"465 530 QCURVE",
"494 530 OFFCURVE",
"535 490 OFFCURVE",
"536 461 QCURVE"
);
},
{
closed = 1;
nodes = (
"272 411 OFFCURVE",
"226 375 QCURVE",
"212 365 OFFCURVE",
"183 297 OFFCURVE",
"197 184 OFFCURVE",
"248 147 QCURVE",
"302 130 OFFCURVE",
"374 164 OFFCURVE",
"398 232 QCURVE",
"399 333 LINE",
"399 333 OFFCURVE",
"387 366 OFFCURVE",
"340 387 CURVE",
"340 387 LINE"
);
}
);
width = 585;
}
);
unicode = 0071;
},
{
glyphname = r;
lastChange = "2019-10-09 22:50:45 +0000";
layers = (
{
layerId = UUID0;
paths = (
{
closed = 1;
nodes = (
"151 312 OFFCURVE",
"154 102 OFFCURVE",
"154 50 QCURVE",
"154 29 OFFCURVE",
"125 0 OFFCURVE",
"83 0 OFFCURVE",
"54 29 OFFCURVE",
"54 50 QCURVE",
"54 97 OFFCURVE",
"50 410 OFFCURVE",
"51 485 QCURVE",
"51 506 OFFCURVE",
"81 534 OFFCURVE",
"123 534 OFFCURVE",
"151 504 OFFCURVE",
"151 483 QCURVE",
"151 477 LINE",
"156 482 OFFCURVE",
"161 485 QCURVE",
"214 520 OFFCURVE",
"312 517 QCURVE",
"332 516 OFFCURVE",
"361 486 OFFCURVE",
"359 445 OFFCURVE",
"329 416 OFFCURVE",
"308 417 QCURVE",
"242 419 OFFCURVE",
"217 402 QCURVE",
"211 398 OFFCURVE",
"201 390 OFFCURVE",
"194 383 QCURVE",
"184 372 LINE",
"179 367 OFFCURVE",
"158 343 OFFCURVE",
"151 336 QCURVE"
);
}
);
width = 411;
},
{
layerId = "E9DB90EB-1A2C-4E35-923D-2CA62A497591";
paths = (
{
closed = 1;
nodes = (
"225 499 OFFCURVE",
"305 527 QCURVE",
"331 536 OFFCURVE",
"380 513 OFFCURVE",
"398 461 OFFCURVE",
"375 412 OFFCURVE",
"349 403 QCURVE",
"257 371 OFFCURVE",
"192 340 QCURVE",
"188 308 OFFCURVE",
"191 249 QCURVE",
"192 186 OFFCURVE",
"193 71 QCURVE",
"193 42 OFFCURVE",
"152 0 OFFCURVE",
"95 0 OFFCURVE",
"74 21 QCURVE",
"53 41 OFFCURVE",
"53 69 QCURVE",
"52 168 OFFCURVE",
"52 225 QCURVE",
"50 237 OFFCURVE",
"52 248 QCURVE",
"51 359 OFFCURVE",
"51 449 QCURVE",
"51 488 OFFCURVE",
"92 529 OFFCURVE",
"121 529 QCURVE",
"142 529 OFFCURVE",
"177 506 OFFCURVE",
"185 477 QCURVE"
);
}
);
width = 448;
}
);
unicode = 0072;
},
{
glyphname = s;
lastChange = "2019-10-09 22:50:45 +0000";
layers = (
{
layerId = UUID0;
paths = (
{
closed = 1;
nodes = (
"383 371 OFFCURVE",
"373 381 QCURVE",
"359 398 LINE",
"353 403 OFFCURVE",
"345 408 QCURVE",
"326 420 OFFCURVE",
"266 437 OFFCURVE",
"237 436 QCURVE",
"184 433 OFFCURVE",
"176 399 QCURVE",
"167 363 OFFCURVE",
"182 352 QCURVE",
"200 339 OFFCURVE",
"263 326 QCURVE",
"356 310 OFFCURVE",
"390 295 QCURVE",
"472 258 OFFCURVE",
"483 176 QCURVE",
"492 109 OFFCURVE",
"433 60 QCURVE",
"388 23 OFFCURVE",
"319 9 QCURVE",
"253 -6 OFFCURVE",
"193 6 QCURVE",
"119 19 OFFCURVE",
"86 66 QCURVE",
"70 87 OFFCURVE",
"63 122 QCURVE",
"59 144 LINE",
"57 154 OFFCURVE",
"55 160 QCURVE",
"49 179 OFFCURVE",
"69 215 OFFCURVE",
"109 225 OFFCURVE",
"145 207 OFFCURVE",
"151 187 QCURVE",
"154 176 OFFCURVE",
"157 162 QCURVE",
"157 161 OFFCURVE",
"160 145 OFFCURVE",
"161 141 QCURVE",
"164 126 OFFCURVE",
"168 120 QCURVE",
"178 107 OFFCURVE",
"212 101 QCURVE",
"252 93 OFFCURVE",
"298 103 QCURVE",
"343 113 OFFCURVE",
"368 132 QCURVE",
"386 148 OFFCURVE",
"383 165 QCURVE",
"380 193 OFFCURVE",
"348 207 QCURVE",
"328 216 OFFCURVE",
"244 231 QCURVE",
"157 248 OFFCURVE",
"121 275 QCURVE",
"55 324 OFFCURVE",
"78 421 QCURVE",
"92 477 OFFCURVE",
"179 530 OFFCURVE",
"232 533 QCURVE",
"277 535 OFFCURVE",
"370 510 OFFCURVE",
"403 488 QCURVE",
"414 480 OFFCURVE",
"438 458 OFFCURVE",
"461 432 OFFCURVE",
"463 431 QCURVE",
"478 416 OFFCURVE",
"478 377 OFFCURVE",
"449 348 OFFCURVE",
"408 348 OFFCURVE",
"393 362 QCURVE"
);
}
);
width = 537;
},
{
layerId = "E9DB90EB-1A2C-4E35-923D-2CA62A497591";
paths = (
{
closed = 1;
nodes = (
"351 366 OFFCURVE",
"331 383 OFFCURVE",
"322 390 OFFCURVE",
"318 394 QCURVE",
"307 400 OFFCURVE",
"278 405 QCURVE",
"266 406 OFFCURVE",
"228 400 OFFCURVE",
"215 392 QCURVE",
"209 388 LINE",
"211 384 LINE",
"212 383 LINE",
"213 382 OFFCURVE",
"228 372 OFFCURVE",
"240 367 QCURVE",
"256 360 OFFCURVE",
"322 336 OFFCURVE",
"331 333 QCURVE",
"354 323 OFFCURVE",
"391 306 OFFCURVE",
"441 272 OFFCURVE",
"471 234 OFFCURVE",
"490 175 OFFCURVE",
"486 142 QCURVE",
"481 108 OFFCURVE",
"446 55 OFFCURVE",
"396 24 OFFCURVE",
"343 6 OFFCURVE",
"316 2 QCURVE",
"264 -5 OFFCURVE",
"152 14 OFFCURVE",
"115 41 QCURVE",
"94 57 OFFCURVE",
"77 86 QCURVE",
"69 102 LINE",
"66 108 OFFCURVE",
"64 111 QCURVE",
"49 133 OFFCURVE",
"60 184 OFFCURVE",
"106 213 OFFCURVE",
"161 202 OFFCURVE",
"176 180 QCURVE",
"182 171 OFFCURVE",
"188 160 QCURVE",
"195 147 LINE",
"198 143 OFFCURVE",
"199 140 QCURVE",
"211 132 OFFCURVE",
"267 122 OFFCURVE",
"297 127 QCURVE",
"350 135 OFFCURVE",
"352 157 QCURVE",
"354 171 OFFCURVE",
"328 196 OFFCURVE",
"281 215 QCURVE",
"274 218 OFFCURVE",
"200 245 OFFCURVE",
"184 253 QCURVE",
"112 285 OFFCURVE",
"89 331 QCURVE",
"62 385 OFFCURVE",
"84 435 QCURVE",
"101 477 OFFCURVE",
"147 501 QCURVE",
"182 519 OFFCURVE",
"223 526 QCURVE",
"263 534 OFFCURVE",
"296 529 QCURVE",
"356 521 OFFCURVE",
"393 500 QCURVE",
"401 494 OFFCURVE",
"411 485 QCURVE",
"435 465 LINE",
"448 454 OFFCURVE",
"452 450 QCURVE",
"473 433 OFFCURVE",
"477 380 OFFCURVE",
"441 341 OFFCURVE",
"386 337 OFFCURVE",
"364 355 QCURVE"
);
}
);
width = 537;
}
);
unicode = 0073;
},
{
glyphname = t;
lastChange = "2019-10-09 22:50:45 +0000";
layers = (
{
layerId = UUID0;
paths = (
{
closed = 1;
nodes = (
"106 420 LINE",
"85 418 OFFCURVE",
"53 444 OFFCURVE",
"48 485 OFFCURVE",
"74 517 OFFCURVE",
"94 520 QCURVE",
"117 522 LINE",
"118 575 OFFCURVE",
"120 629 QCURVE",
"121 650 OFFCURVE",
"151 678 OFFCURVE",
"193 676 OFFCURVE",
"221 646 OFFCURVE",
"220 625 QCURVE",
"217 530 LINE",
"250 532 LINE",
"271 533 OFFCURVE",
"302 507 OFFCURVE",
"305 465 OFFCURVE",
"279 434 OFFCURVE",
"258 432 QCURVE",
"214 430 LINE",
"213 382 OFFCURVE",
"213 360 QCURVE",
"211 266 OFFCURVE",
"214 207 QCURVE",
"216 147 OFFCURVE",
"224 129 OFFCURVE",
"228 122 OFFCURVE",
"239 115 OFFCURVE",
"251 113 OFFCURVE",
"284 104 OFFCURVE",
"303 97 QCURVE",
"322 91 OFFCURVE",
"341 54 OFFCURVE",
"328 15 OFFCURVE",
"291 -4 OFFCURVE",
"271 3 QCURVE",
"265 5 OFFCURVE",
"228 13 OFFCURVE",
"201 23 OFFCURVE",
"166 42 OFFCURVE",
"138 75 OFFCURVE",
"128 98 QCURVE",
"117 125 OFFCURVE",
"114 204 QCURVE",
"111 265 OFFCURVE",
"113 361 QCURVE",
"113 379 OFFCURVE",
"114 421 QCURVE"
);
}
);
width = 357;
},
{
layerId = "E9DB90EB-1A2C-4E35-923D-2CA62A497591";
paths = (
{
closed = 1;
nodes = (
"128 565 OFFCURVE",
"129 602 OFFCURVE",
"129 607 QCURVE",
"130 636 OFFCURVE",
"172 675 OFFCURVE",
"230 674 OFFCURVE",
"269 632 OFFCURVE",
"269 603 QCURVE",
"269 599 OFFCURVE",
"268 564 OFFCURVE",
"267 551 QCURVE",
"309 549 OFFCURVE",
"346 509 OFFCURVE",
"346 481 QCURVE",
"346 454 OFFCURVE",
"307 414 OFFCURVE",
"264 412 QCURVE",
"264 381 OFFCURVE",
"263 353 QCURVE",
"262 260 OFFCURVE",
"266 169 QCURVE",
"267 169 LINE",
"266 169 LINE",
"267 167 OFFCURVE",
"274 162 OFFCURVE",
"281 158 QCURVE",
"289 154 LINE",
"298 149 LINE",
"303 147 OFFCURVE",
"306 145 QCURVE",
"325 136 OFFCURVE",
"337 127 QCURVE",
"361 111 OFFCURVE",
"373 55 OFFCURVE",
"341 7 OFFCURVE",
"285 -5 OFFCURVE",
"261 11 QCURVE",
"254 15 OFFCURVE",
"242 21 QCURVE",
"214 36 LINE",
"170 60 OFFCURVE",
"147 90 QCURVE",
"136 104 OFFCURVE",
"132 126 QCURVE",
"130 136 OFFCURVE",
"128 150 QCURVE",
"126 169 OFFCURVE",
"125 206 QCURVE",
"123 263 OFFCURVE",
"124 354 QCURVE",
"124 384 OFFCURVE",
"125 417 QCURVE",
"77 424 OFFCURVE",
"50 461 OFFCURVE",
"50 507 OFFCURVE",
"79 544 OFFCURVE",
"128 550 QCURVE"
);
}
);
width = 423;
}
);
unicode = 0074;
},
{
glyphname = u;
lastChange = "2019-10-09 22:50:45 +0000";
layers = (
{
layerId = UUID0;
paths = (
{
closed = 1;
nodes = (
"497 246 OFFCURVE",
"488 47 QCURVE",
"487 27 OFFCURVE",
"456 -1 OFFCURVE",
"435 0 QCURVE",
"417 1 OFFCURVE",
"390 27 OFFCURVE",
"388 58 QCURVE",
"342 18 OFFCURVE",
"293 6 QCURVE",
"223 -12 OFFCURVE",
"165 29 QCURVE",
"109 69 OFFCURVE",
"77 161 QCURVE",
"66 193 OFFCURVE",
"60 227 QCURVE",
"54 262 OFFCURVE",
"55 341 OFFCURVE",
"57 390 OFFCURVE",
"65 475 OFFCURVE",
"66 486 QCURVE",
"68 506 OFFCURVE",
"99 533 OFFCURVE",
"140 530 OFFCURVE",
"167 499 OFFCURVE",
"166 478 QCURVE",
"165 463 OFFCURVE",
"156 379 OFFCURVE",
"155 338 OFFCURVE",
"154 271 OFFCURVE",
"163 218 OFFCURVE",
"171 193 QCURVE",
"193 132 OFFCURVE",
"227 110 QCURVE",
"241 101 OFFCURVE",
"273 101 QCURVE",
"316 108 OFFCURVE",
"369 144 OFFCURVE",
"392 208 QCURVE",
"394 341 OFFCURVE",
"389 478 QCURVE",
"388 499 OFFCURVE",
"417 529 OFFCURVE",
"458 531 OFFCURVE",
"488 502 OFFCURVE",
"489 482 QCURVE"
);
}
);
width = 545;
},
{
layerId = "E9DB90EB-1A2C-4E35-923D-2CA62A497591";
paths = (
{
closed = 1;
nodes = (
"196 403 LINE",
"191 367 OFFCURVE",
"187 330 OFFCURVE",
"182 256 OFFCURVE",
"185 240 QCURVE",
"189 191 OFFCURVE",
"220 141 OFFCURVE",
"252 133 QCURVE",
"274 127 OFFCURVE",
"313 154 OFFCURVE",
"354 201 QCURVE",
"360 207 OFFCURVE",
"366 211 QCURVE",
"367 344 OFFCURVE",
"365 459 QCURVE",
"365 488 OFFCURVE",
"405 529 OFFCURVE",
"463 530 OFFCURVE",
"504 490 OFFCURVE",
"505 461 QCURVE",
"507 314 OFFCURVE",
"505 77 QCURVE",
"505 49 OFFCURVE",
"484 28 QCURVE",
"463 8 OFFCURVE",
"434 8 QCURVE",
"398 9 OFFCURVE",
"378 38 QCURVE",
"303 -17 OFFCURVE",
"218 5 QCURVE",
"174 17 OFFCURVE",
"110 65 OFFCURVE",
"74 130 OFFCURVE",
"56 194 OFFCURVE",
"53 231 QCURVE",
"50 251 OFFCURVE",
"56 342 OFFCURVE",
"60 385 OFFCURVE",
"70 462 OFFCURVE",
"71 471 QCURVE",
"75 498 OFFCURVE",
"118 532 OFFCURVE",
"172 525 OFFCURVE",
"206 482 OFFCURVE",
"203 455 QCURVE"
);
}
);
width = 557;
}
);
unicode = 0075;
},
{
glyphname = v;
lastChange = "2019-10-09 22:50:45 +0000";
layers = (
{
layerId = UUID0;
paths = (
{
closed = 1;
nodes = (
"159 477 OFFCURVE",
"268 193 OFFCURVE",
"282 158 QCURVE",
"286 149 LINE",
"290 156 OFFCURVE",
"296 171 OFFCURVE",
"300 180 OFFCURVE",
"301 184 QCURVE",
"303 188 LINE",
"310 204 OFFCURVE",
"403 444 OFFCURVE",
"436 504 QCURVE",
"446 522 OFFCURVE",
"486 534 OFFCURVE",
"522 514 OFFCURVE",
"534 474 OFFCURVE",
"524 456 QCURVE",
"492 398 OFFCURVE",
"409 182 OFFCURVE",
"395 148 QCURVE",
"367 87 LINE",
"353 59 OFFCURVE",
"341 41 QCURVE",
"332 28 OFFCURVE",
"323 20 QCURVE",
"305 2 OFFCURVE",
"283 0 QCURVE",
"264 -1 OFFCURVE",
"249 10 QCURVE",
"244 14 OFFCURVE",
"240 19 QCURVE",
"236 23 OFFCURVE",
"233 28 QCURVE",
"225 42 LINE",
"219 54 OFFCURVE",
"210 75 QCURVE",
"190 120 LINE",
"174 159 OFFCURVE",
"67 438 OFFCURVE",
"57 463 QCURVE",
"50 482 OFFCURVE",
"67 520 OFFCURVE",
"105 535 OFFCURVE",
"143 518 OFFCURVE",
"151 499 QCURVE"
);
}
);
width = 584;
},
{
layerId = "E9DB90EB-1A2C-4E35-923D-2CA62A497591";
paths = (
{
closed = 1;
nodes = (
"484 382 LINE",
"413 234 LINE",
"397 199 LINE",
"380 159 LINE",
"368 131 OFFCURVE",
"361 112 OFFCURVE",
"348 79 QCURVE",
"332 40 LINE",
"321 15 OFFCURVE",
"272 -6 OFFCURVE",
"246 4 QCURVE",
"215 18 OFFCURVE",
"207 52 QCURVE",
"207 55 OFFCURVE",
"206 57 QCURVE",
"142 268 OFFCURVE",
"63 431 QCURVE",
"50 455 OFFCURVE",
"65 508 OFFCURVE",
"113 535 OFFCURVE",
"165 520 OFFCURVE",
"178 495 QCURVE",
"233 381 OFFCURVE",
"279 257 QCURVE",
"337 392 OFFCURVE",
"394 498 QCURVE",
"408 521 OFFCURVE",
"461 533 OFFCURVE",
"507 504 OFFCURVE",
"520 452 OFFCURVE",
"505 427 QCURVE"
);
}
);
width = 570;
}
);
unicode = 0076;
},
{
glyphname = w;
lastChange = "2019-10-09 22:50:45 +0000";
layers = (
{
layerId = UUID0;
paths = (
{
closed = 1;
nodes = (
"170 89 OFFCURVE",
"118 245 QCURVE",
"73 379 OFFCURVE",
"52 466 QCURVE",
"46 486 OFFCURVE",
"67 522 OFFCURVE",
"107 533 OFFCURVE",
"143 512 OFFCURVE",
"148 492 QCURVE",
"167 414 OFFCURVE",
"213 277 QCURVE",
"232 220 LINE",
"243 257 OFFCURVE",
"257 298 QCURVE",
"288 390 LINE",
"314 465 LINE",
"320 484 OFFCURVE",
"357 503 OFFCURVE",
"376 501 QCURVE",
"396 501 OFFCURVE",
"424 477 OFFCURVE",
"430 452 QCURVE",
"525 181 LINE",
"541 232 OFFCURVE",
"591 446 OFFCURVE",
"605 493 QCURVE",
"611 513 OFFCURVE",
"647 533 OFFCURVE",
"687 521 OFFCURVE",
"707 485 OFFCURVE",
"701 465 QCURVE",
"690 425 OFFCURVE",
"645 233 OFFCURVE",
"602 89 OFFCURVE",
"577 31 QCURVE",
"569 12 OFFCURVE",
"531 -4 OFFCURVE",
"512 4 QCURVE",
"508 5 OFFCURVE",
"505 7 QCURVE",
"477 13 OFFCURVE",
"468 40 QCURVE",
"433 144 OFFCURVE",
"369 318 QCURVE",
"313 155 OFFCURVE",
"295 58 QCURVE",
"292 40 OFFCURVE",
"278 29 QCURVE",
"269 8 OFFCURVE",
"247 2 QCURVE",
"227 -4 OFFCURVE",
"191 16 OFFCURVE",
"185 36 QCURVE"
);
}
);
width = 754;
},
{
layerId = "E9DB90EB-1A2C-4E35-923D-2CA62A497591";
paths = (
{
closed = 1;
nodes = (
"94 270 OFFCURVE",
"53 437 QCURVE",
"46 466 OFFCURVE",
"76 517 OFFCURVE",
"132 532 OFFCURVE",
"182 501 OFFCURVE",
"189 472 QCURVE",
"215 355 OFFCURVE",
"238 285 QCURVE",
"270 375 OFFCURVE",
"302 471 QCURVE",
"311 497 OFFCURVE",
"356 522 OFFCURVE",
"381 516 QCURVE",
"401 514 OFFCURVE",
"432 489 OFFCURVE",
"439 470 QCURVE",
"498 296 LINE",
"543 473 LINE",
"550 502 OFFCURVE",
"600 532 OFFCURVE",
"656 516 OFFCURVE",
"685 465 OFFCURVE",
"677 436 QCURVE",
"590 97 OFFCURVE",
"576 48 QCURVE",
"568 23 OFFCURVE",
"523 -6 OFFCURVE",
"496 -2 QCURVE",
"476 0 OFFCURVE",
"442 26 OFFCURVE",
"435 47 QCURVE",
"370 237 LINE",
"311 49 LINE",
"304 27 OFFCURVE",
"268 0 OFFCURVE",
"246 -1 QCURVE",
"219 -7 OFFCURVE",
"171 21 OFFCURVE",
"163 47 QCURVE"
);
}
);
width = 754;
}
);
unicode = 0077;
},
{
glyphname = x;
lastChange = "2019-10-09 22:50:45 +0000";
layers = (
{
layerId = UUID0;
paths = (
{
closed = 1;
nodes = (
"470 78 LINE",
"482 61 OFFCURVE",
"474 21 OFFCURVE",
"440 -3 OFFCURVE",
"400 5 OFFCURVE",
"388 22 QCURVE",
"255 200 LINE",
"199 121 OFFCURVE",
"144 25 QCURVE",
"134 7 OFFCURVE",
"94 -4 OFFCURVE",
"58 17 OFFCURVE",
"47 57 OFFCURVE",
"58 75 QCURVE",
"123 182 OFFCURVE",
"191 285 QCURVE",
"67 450 LINE",
"54 467 OFFCURVE",
"61 508 OFFCURVE",
"94 533 OFFCURVE",
"135 526 OFFCURVE",
"147 510 QCURVE",
"251 373 LINE",
"305 443 OFFCURVE",
"361 512 QCURVE",
"374 528 OFFCURVE",
"415 533 OFFCURVE",
"447 507 OFFCURVE",
"449 487 QCURVE",
"452 466 OFFCURVE",
"439 450 QCURVE",
"376 374 OFFCURVE",
"314 288 QCURVE"
);
}
);
width = 528;
},
{
layerId = "E9DB90EB-1A2C-4E35-923D-2CA62A497591";
paths = (
{
closed = 1;
nodes = (
"466 111 LINE",
"483 87 OFFCURVE",
"473 27 OFFCURVE",
"425 -6 OFFCURVE",
"367 4 OFFCURVE",
"351 28 QCURVE",
"270 142 LINE",
"232 87 OFFCURVE",
"201 33 QCURVE",
"186 8 OFFCURVE",
"129 -7 OFFCURVE",
"79 23 OFFCURVE",
"64 82 OFFCURVE",
"79 107 QCURVE",
"124 183 OFFCURVE",
"178 266 QCURVE",
"65 410 LINE",
"47 433 OFFCURVE",
"53 493 OFFCURVE",
"98 530 OFFCURVE",
"156 524 OFFCURVE",
"175 501 QCURVE",
"264 388 LINE",
"341 500 LINE",
"358 523 OFFCURVE",
"416 531 OFFCURVE",
"462 495 OFFCURVE",
"470 435 OFFCURVE",
"452 411 QCURVE",
"354 269 LINE"
);
}
);
width = 528;
}
);
unicode = 0078;
},
{
glyphname = y;
lastChange = "2019-10-09 22:50:45 +0000";
layers = (
{
layerId = UUID0;
paths = (
{
closed = 1;
nodes = (
"103 -100 OFFCURVE",
"131 -98 OFFCURVE",
"140 -97 OFFCURVE",
"154 -94 OFFCURVE",
"158 -91 QCURVE",
"168 -85 LINE",
"192 -73 OFFCURVE",
"211 -18 QCURVE",
"217 -1 OFFCURVE",
"223 6 QCURVE",
"216 14 OFFCURVE",
"212 25 QCURVE",
"194 102 OFFCURVE",
"138 253 QCURVE",
"88 386 OFFCURVE",
"64 466 QCURVE",
"58 486 OFFCURVE",
"78 522 OFFCURVE",
"118 534 OFFCURVE",
"154 514 OFFCURVE",
"160 494 QCURVE",
"179 430 OFFCURVE",
"232 288 QCURVE",
"270 184 LINE",
"340 398 OFFCURVE",
"398 505 QCURVE",
"408 523 OFFCURVE",
"448 535 OFFCURVE",
"484 515 OFFCURVE",
"496 475 OFFCURVE",
"486 457 QCURVE",
"460 409 OFFCURVE",
"404 271 OFFCURVE",
"372 177 OFFCURVE",
"346 93 QCURVE",
"340 73 OFFCURVE",
"338 65 QCURVE",
"333 52 OFFCURVE",
"324 13 QCURVE",
"313 -24 OFFCURVE",
"306 -47 QCURVE",
"278 -125 OFFCURVE",
"230 -163 QCURVE",
"216 -174 OFFCURVE",
"188 -189 OFFCURVE",
"157 -196 OFFCURVE",
"139 -199 OFFCURVE",
"106 -200 OFFCURVE",
"103 -201 QCURVE",
"82 -203 OFFCURVE",
"50 -176 OFFCURVE",
"46 -135 OFFCURVE",
"73 -103 OFFCURVE",
"93 -101 QCURVE"
);
}
);
width = 542;
},
{
layerId = "E9DB90EB-1A2C-4E35-923D-2CA62A497591";
paths = (
{
closed = 1;
nodes = (
"95 -71 OFFCURVE",
"132 -40 OFFCURVE",
"155 -18 OFFCURVE",
"165 -5 QCURVE",
"184 18 OFFCURVE",
"201 45 QCURVE",
"198 49 OFFCURVE",
"197 54 QCURVE",
"56 436 LINE",
"46 463 OFFCURVE",
"69 516 OFFCURVE",
"123 536 OFFCURVE",
"176 513 OFFCURVE",
"186 486 QCURVE",
"283 215 LINE",
"306 276 OFFCURVE",
"361 481 QCURVE",
"368 507 OFFCURVE",
"416 533 OFFCURVE",
"469 518 OFFCURVE",
"495 470 OFFCURVE",
"487 443 QCURVE",
"484 434 OFFCURVE",
"459 325 OFFCURVE",
"449 295 OFFCURVE",
"424 213 OFFCURVE",
"416 193 QCURVE",
"394 135 LINE",
"380 99 OFFCURVE",
"368 75 QCURVE",
"340 21 LINE",
"324 -10 OFFCURVE",
"288 -63 OFFCURVE",
"269 -87 QCURVE",
"256 -104 OFFCURVE",
"237 -121 QCURVE",
"197 -157 LINE",
"177 -175 OFFCURVE",
"172 -181 QCURVE",
"152 -200 OFFCURVE",
"97 -198 OFFCURVE",
"59 -159 OFFCURVE",
"61 -104 OFFCURVE",
"80 -85 QCURVE"
);
}
);
width = 544;
}
);
unicode = 0079;
},
{
glyphname = z;
lastChange = "2019-10-09 22:50:45 +0000";
layers = (
{
layerId = UUID0;
paths = (
{
closed = 1;
nodes = (
"152 528 OFFCURVE",
"317 531 OFFCURVE",
"364 530 QCURVE",
"374 530 LINE",
"384 530 LINE",
"391 530 LINE",
"399 530 LINE",
"401 530 LINE",
"403 530 LINE",
"404 530 LINE",
"407 530 LINE",
"409 529 OFFCURVE",
"411 529 QCURVE",
"417 527 LINE",
"428 524 OFFCURVE",
"436 516 QCURVE",
"463 490 OFFCURVE",
"458 447 QCURVE",
"455 422 OFFCURVE",
"440 390 QCURVE",
"418 344 OFFCURVE",
"366 288 QCURVE",
"308 212 OFFCURVE",
"222 123 QCURVE",
"199 100 LINE",
"228 99 OFFCURVE",
"273 100 QCURVE",
"325 101 OFFCURVE",
"395 104 QCURVE",
"467 107 OFFCURVE",
"475 107 QCURVE",
"496 107 OFFCURVE",
"525 78 OFFCURVE",
"525 36 OFFCURVE",
"496 7 OFFCURVE",
"475 7 QCURVE",
"467 7 OFFCURVE",
"324 1 OFFCURVE",
"274 0 QCURVE",
"197 -1 OFFCURVE",
"152 2 QCURVE",
"123 4 OFFCURVE",
"105 8 QCURVE",
"92 11 OFFCURVE",
"82 15 QCURVE",
"60 26 OFFCURVE",
"51 47 QCURVE",
"45 64 OFFCURVE",
"51 82 QCURVE",
"53 88 OFFCURVE",
"56 92 QCURVE",
"58 96 OFFCURVE",
"62 101 QCURVE",
"73 115 LINE",
"104 147 LINE",
"150 193 LINE",
"232 278 OFFCURVE",
"287 340 QCURVE",
"330 394 OFFCURVE",
"348 430 QCURVE",
"310 431 OFFCURVE",
"277 431 QCURVE",
"145 428 OFFCURVE",
"108 432 QCURVE",
"88 435 OFFCURVE",
"62 467 OFFCURVE",
"67 508 OFFCURVE",
"99 534 OFFCURVE",
"120 532 QCURVE"
);
}
);
width = 574;
},
{
layerId = "E9DB90EB-1A2C-4E35-923D-2CA62A497591";
paths = (
{
closed = 1;
nodes = (
"125 188 OFFCURVE",
"291 395 QCURVE",
"210 394 OFFCURVE",
"122 399 QCURVE",
"95 397 OFFCURVE",
"54 433 OFFCURVE",
"50 488 OFFCURVE",
"86 529 OFFCURVE",
"114 531 QCURVE",
"268 531 OFFCURVE",
"427 526 QCURVE",
"454 525 OFFCURVE",
"491 486 OFFCURVE",
"491 459 QCURVE",
"496 429 OFFCURVE",
"476 405 QCURVE",
"319 208 LINE",
"254 132 LINE",
"343 132 OFFCURVE",
"442 137 QCURVE",
"469 139 OFFCURVE",
"510 103 OFFCURVE",
"514 48 OFFCURVE",
"478 7 OFFCURVE",
"450 5 QCURVE",
"307 -3 OFFCURVE",
"130 2 QCURVE",
"126 2 LINE",
"102 0 OFFCURVE",
"83 14 QCURVE",
"61 30 OFFCURVE",
"51 84 OFFCURVE",
"67 106 QCURVE"
);
}
);
width = 564;
}
);
unicode = 007A;
},
{
glyphname = braceleft;
lastChange = "2019-10-09 22:50:45 +0000";
layers = (
{
layerId = UUID0;
paths = (
{
closed = 1;
nodes = (
"308 606 OFFCURVE",
"302 601 QCURVE",
"293 606 OFFCURVE",
"278 564 QCURVE",
"264 529 OFFCURVE",
"262 451 QCURVE",
"261 449 OFFCURVE",
"261 425 OFFCURVE",
"260 416 OFFCURVE",
"259 394 OFFCURVE",
"258 382 OFFCURVE",
"255 362 OFFCURVE",
"252 349 OFFCURVE",
"247 332 OFFCURVE",
"244 326 QCURVE",
"226 287 OFFCURVE",
"191 256 QCURVE",
"192 256 LINE",
"221 220 OFFCURVE",
"230 179 QCURVE",
"234 158 OFFCURVE",
"228 108 QCURVE",
"226 88 LINE",
"223 68 LINE",
"222 60 OFFCURVE",
"222 55 QCURVE",
"218 -8 OFFCURVE",
"220 -60 OFFCURVE",
"226 -72 QCURVE",
"239 -94 OFFCURVE",
"334 -106 QCURVE",
"353 -112 OFFCURVE",
"372 -149 OFFCURVE",
"359 -188 OFFCURVE",
"322 -207 OFFCURVE",
"302 -200 QCURVE",
"236 -199 OFFCURVE",
"159 -156 OFFCURVE",
"139 -121 QCURVE",
"121 -89 OFFCURVE",
"117 13 OFFCURVE",
"122 61 QCURVE",
"122 63 OFFCURVE",
"129 120 QCURVE",
"130 131 OFFCURVE",
"132 150 OFFCURVE",
"132 154 QCURVE",
"132 157 LINE",
"128 174 OFFCURVE",
"116 190 QCURVE",
"99 198 LINE",
"49 222 OFFCURVE",
"50 267 QCURVE",
"51 302 OFFCURVE",
"82 320 QCURVE",
"94 327 OFFCURVE",
"113 330 QCURVE",
"115 330 OFFCURVE",
"124 332 OFFCURVE",
"126 332 QCURVE",
"144 348 OFFCURVE",
"152 366 QCURVE",
"159 381 OFFCURVE",
"162 455 QCURVE",
"166 551 OFFCURVE",
"184 600 QCURVE",
"198 635 OFFCURVE",
"224 680 OFFCURVE",
"246 694 QCURVE",
"252 698 OFFCURVE",
"264 705 OFFCURVE",
"272 708 QCURVE",
"286 712 LINE",
"291 713 OFFCURVE",
"344 713 OFFCURVE",
"346 713 QCURVE",
"366 717 OFFCURVE",
"400 693 OFFCURVE",
"407 652 OFFCURVE",
"383 618 OFFCURVE",
"362 615 QCURVE"
);
}
);
width = 448;
},
{
layerId = "E9DB90EB-1A2C-4E35-923D-2CA62A497591";
paths = (
{
closed = 1;
nodes = (
"379 570 OFFCURVE",
"366 576 QCURVE",
"365 576 OFFCURVE",
"355 581 OFFCURVE",
"352 582 QCURVE",
"348 584 LINE",
"332 582 OFFCURVE",
"312 549 OFFCURVE",
"305 503 QCURVE",
"299 450 LINE",
"293 400 LINE",
"282 327 OFFCURVE",
"254 289 QCURVE",
"249 282 OFFCURVE",
"244 276 QCURVE",
"260 254 OFFCURVE",
"265 222 QCURVE",
"267 212 OFFCURVE",
"269 184 OFFCURVE",
"270 182 QCURVE",
"273 152 OFFCURVE",
"268 97 QCURVE",
"264 55 OFFCURVE",
"266 38 QCURVE",
"274 -20 OFFCURVE",
"308 -42 QCURVE",
"340 -63 OFFCURVE",
"421 -70 QCURVE",
"448 -73 OFFCURVE",
"483 -115 OFFCURVE",
"478 -169 OFFCURVE",
"436 -204 OFFCURVE",
"409 -202 QCURVE",
"296 -191 OFFCURVE",
"236 -153 QCURVE",
"151 -98 OFFCURVE",
"136 22 QCURVE",
"132 53 OFFCURVE",
"136 108 QCURVE",
"140 151 OFFCURVE",
"138 168 QCURVE",
"138 171 OFFCURVE",
"137 187 QCURVE",
"136 194 LINE",
"111 199 OFFCURVE",
"98 204 QCURVE",
"73 213 OFFCURVE",
"50 263 OFFCURVE",
"59 289 QCURVE",
"68 312 OFFCURVE",
"90 324 QCURVE",
"93 328 OFFCURVE",
"97 331 QCURVE",
"99 332 OFFCURVE",
"135 356 QCURVE",
"145 363 OFFCURVE",
"148 367 QCURVE",
"156 378 OFFCURVE",
"162 419 QCURVE",
"165 435 OFFCURVE",
"172 505 OFFCURVE",
"175 523 QCURVE",
"202 703 OFFCURVE",
"339 716 QCURVE",
"369 719 OFFCURVE",
"404 703 QCURVE",
"405 703 OFFCURVE",
"422 695 QCURVE",
"428 693 OFFCURVE",
"430 692 QCURVE",
"456 683 OFFCURVE",
"481 635 OFFCURVE",
"464 583 OFFCURVE",
"416 558 OFFCURVE",
"390 566 QCURVE"
);
}
);
width = 533;
}
);
unicode = 007B;
},
{
glyphname = bar;
lastChange = "2019-10-09 22:50:45 +0000";
layers = (
{
layerId = UUID0;
paths = (
{
closed = 1;
nodes = (
"155 197 OFFCURVE",
"150 41 QCURVE",
"149 21 OFFCURVE",
"119 -8 OFFCURVE",
"78 -6 OFFCURVE",
"49 24 OFFCURVE",
"50 45 QCURVE",
"55 199 OFFCURVE",
"55 668 QCURVE",
"55 689 OFFCURVE",
"84 718 OFFCURVE",
"126 718 OFFCURVE",
"155 689 OFFCURVE",
"155 668 QCURVE"
);
}
);
width = 203;
},
{
layerId = "E9DB90EB-1A2C-4E35-923D-2CA62A497591";
paths = (
{
closed = 1;
nodes = (
"197 518 LINE",
"197 398 LINE",
"197 356 OFFCURVE",
"196 226 OFFCURVE",
"193 115 OFFCURVE",
"191 61 QCURVE",
"189 32 OFFCURVE",
"147 -7 OFFCURVE",
"89 -4 OFFCURVE",
"50 38 OFFCURVE",
"51 67 QCURVE",
"54 133 OFFCURVE",
"57 298 OFFCURVE",
"58 381 OFFCURVE",
"57 639 OFFCURVE",
"57 658 QCURVE",
"57 687 OFFCURVE",
"98 728 OFFCURVE",
"156 728 OFFCURVE",
"197 687 OFFCURVE",
"197 658 QCURVE"
);
}
);
width = 247;
}
);
unicode = 007C;
},
{
glyphname = braceright;
lastChange = "2019-10-09 22:50:45 +0000";
layers = (
{
layerId = UUID0;
paths = (
{
closed = 1;
nodes = (
"173 715 OFFCURVE",
"224 683 QCURVE",
"271 653 OFFCURVE",
"290 592 QCURVE",
"298 564 OFFCURVE",
"303 497 OFFCURVE",
"302 391 OFFCURVE",
"302 385 QCURVE",
"302 377 OFFCURVE",
"300 355 OFFCURVE",
"300 354 QCURVE",
"300 352 LINE",
"304 347 OFFCURVE",
"322 336 QCURVE",
"323 336 OFFCURVE",
"337 334 QCURVE",
"356 331 OFFCURVE",
"369 325 QCURVE",
"400 308 OFFCURVE",
"401 272 QCURVE",
"402 230 OFFCURVE",
"357 203 QCURVE",
"342 194 OFFCURVE",
"341 194 QCURVE",
"337 186 OFFCURVE",
"330 157 QCURVE",
"321 118 OFFCURVE",
"322 53 QCURVE",
"323 -36 OFFCURVE",
"321 -56 QCURVE",
"311 -127 OFFCURVE",
"260 -163 QCURVE",
"209 -200 OFFCURVE",
"107 -202 QCURVE",
"86 -202 OFFCURVE",
"56 -174 OFFCURVE",
"56 -132 OFFCURVE",
"84 -102 OFFCURVE",
"105 -102 QCURVE",
"175 -101 OFFCURVE",
"202 -82 QCURVE",
"218 -70 OFFCURVE",
"222 -42 QCURVE",
"224 -25 OFFCURVE",
"222 51 QCURVE",
"220 129 OFFCURVE",
"244 229 OFFCURVE",
"260 252 QCURVE",
"261 254 OFFCURVE",
"262 255 QCURVE",
"224 280 OFFCURVE",
"209 309 QCURVE",
"199 331 OFFCURVE",
"200 360 QCURVE",
"200 363 OFFCURVE",
"202 375 QCURVE",
"202 383 LINE",
"202 405 OFFCURVE",
"203 495 OFFCURVE",
"200 543 OFFCURVE",
"194 563 QCURVE",
"186 588 OFFCURVE",
"170 598 QCURVE",
"147 613 OFFCURVE",
"98 610 QCURVE",
"77 609 OFFCURVE",
"46 636 OFFCURVE",
"44 678 OFFCURVE",
"71 709 OFFCURVE",
"92 710 QCURVE"
);
}
);
width = 448;
},
{
layerId = "E9DB90EB-1A2C-4E35-923D-2CA62A497591";
paths = (
{
closed = 1;
nodes = (
"191 711 LINE",
"209 705 OFFCURVE",
"210 705 QCURVE",
"245 695 OFFCURVE",
"266 676 QCURVE",
"290 655 OFFCURVE",
"320 603 OFFCURVE",
"332 537 OFFCURVE",
"335 502 OFFCURVE",
"335 470 QCURVE",
"337 410 OFFCURVE",
"344 357 OFFCURVE",
"355 342 QCURVE",
"357 340 OFFCURVE",
"365 336 QCURVE",
"379 327 LINE",
"391 320 OFFCURVE",
"398 314 QCURVE",
"405 309 OFFCURVE",
"411 302 QCURVE",
"417 297 OFFCURVE",
"422 291 QCURVE",
"439 269 OFFCURVE",
"432 215 OFFCURVE",
"390 181 OFFCURVE",
"363 153 OFFCURVE",
"353 127 OFFCURVE",
"350 112 OFFCURVE",
"350 99 QCURVE",
"350 74 LINE",
"350 50 OFFCURVE",
"347 26 OFFCURVE",
"340 -22 OFFCURVE",
"330 -46 QCURVE",
"320 -69 OFFCURVE",
"305 -92 QCURVE",
"283 -126 OFFCURVE",
"238 -156 QCURVE",
"208 -174 LINE",
"194 -183 OFFCURVE",
"186 -189 QCURVE",
"145 -206 OFFCURVE",
"91 -199 OFFCURVE",
"57 -156 OFFCURVE",
"64 -102 OFFCURVE",
"86 -85 QCURVE",
"99 -75 OFFCURVE",
"118 -62 QCURVE",
"146 -45 LINE",
"187 -32 OFFCURVE",
"193 -22 QCURVE",
"202 -8 OFFCURVE",
"212 14 OFFCURVE",
"214 28 QCURVE",
"217 48 LINE",
"218 55 OFFCURVE",
"218 74 QCURVE",
"218 102 LINE",
"220 183 OFFCURVE",
"268 243 QCURVE",
"258 252 OFFCURVE",
"251 262 QCURVE",
"242 273 OFFCURVE",
"228 301 OFFCURVE",
"218 324 OFFCURVE",
"214 341 QCURVE",
"209 368 LINE",
"207 378 OFFCURVE",
"205 415 OFFCURVE",
"204 427 OFFCURVE",
"203 465 OFFCURVE",
"203 467 QCURVE",
"201 557 OFFCURVE",
"180 576 QCURVE",
"171 579 LINE",
"169 580 OFFCURVE",
"123 581 OFFCURVE",
"117 583 OFFCURVE",
"115 584 QCURVE",
"101 588 OFFCURVE",
"91 592 QCURVE",
"65 602 OFFCURVE",
"44 652 OFFCURVE",
"64 703 OFFCURVE",
"114 724 OFFCURVE",
"179 714 QCURVE"
);
}
);
width = 448;
}
);
unicode = 007D;
},
{
glyphname = asciitilde;
lastChange = "2019-10-09 22:50:45 +0000";
layers = (
{
layerId = UUID0;
paths = (
{
closed = 1;
nodes = (
"148 334 OFFCURVE",
"237 334 QCURVE",
"262 334 OFFCURVE",
"319 317 OFFCURVE",
"333 310 QCURVE",
"372 289 LINE",
"433 255 OFFCURVE",
"461 255 QCURVE",
"509 255 OFFCURVE",
"569 318 QCURVE",
"583 333 OFFCURVE",
"625 333 OFFCURVE",
"655 305 OFFCURVE",
"655 263 OFFCURVE",
"641 248 QCURVE",
"551 155 OFFCURVE",
"461 155 QCURVE",
"435 155 OFFCURVE",
"377 173 OFFCURVE",
"349 187 OFFCURVE",
"324 201 QCURVE",
"263 235 OFFCURVE",
"237 234 QCURVE",
"193 234 OFFCURVE",
"137 172 QCURVE",
"123 156 OFFCURVE",
"82 154 OFFCURVE",
"51 182 OFFCURVE",
"49 223 OFFCURVE",
"63 238 QCURVE"
);
}
);
width = 704;
},
{
layerId = "E9DB90EB-1A2C-4E35-923D-2CA62A497591";
paths = (
{
closed = 1;
nodes = (
"84 292 LINE",
"88 295 OFFCURVE",
"97 303 OFFCURVE",
"100 306 QCURVE",
"124 328 OFFCURVE",
"147 338 QCURVE",
"175 351 OFFCURVE",
"231 358 OFFCURVE",
"287 349 OFFCURVE",
"304 344 QCURVE",
"318 341 OFFCURVE",
"346 331 QCURVE",
"366 324 OFFCURVE",
"379 319 OFFCURVE",
"408 310 OFFCURVE",
"420 307 OFFCURVE",
"440 304 OFFCURVE",
"455 305 OFFCURVE",
"462 307 QCURVE",
"468 308 OFFCURVE",
"474 312 OFFCURVE",
"494 324 OFFCURVE",
"511 332 QCURVE",
"535 343 OFFCURVE",
"587 325 OFFCURVE",
"610 276 OFFCURVE",
"592 224 OFFCURVE",
"567 212 QCURVE",
"564 210 LINE",
"561 209 OFFCURVE",
"556 206 QCURVE",
"546 200 LINE",
"540 197 OFFCURVE",
"526 190 OFFCURVE",
"512 184 OFFCURVE",
"504 182 QCURVE",
"490 177 LINE",
"476 175 OFFCURVE",
"447 173 OFFCURVE",
"423 173 OFFCURVE",
"393 178 OFFCURVE",
"375 182 OFFCURVE",
"345 191 OFFCURVE",
"333 195 OFFCURVE",
"304 206 OFFCURVE",
"302 207 QCURVE",
"263 221 OFFCURVE",
"221 226 OFFCURVE",
"201 218 QCURVE",
"197 216 OFFCURVE",
"189 209 QCURVE",
"161 183 OFFCURVE",
"159 182 QCURVE",
"138 164 OFFCURVE",
"84 170 OFFCURVE",
"49 213 OFFCURVE",
"55 267 OFFCURVE",
"77 284 QCURVE"
);
}
);
width = 704;
}
);
unicode = 007E;
},
